<svg width="34" height="20" viewBox="0 0 34 20" fill="none" xmlns="http://www.w3.org/2000/svg">
<path d="M29.1979 1.2897C29.6647 0.827549 30.295 0.568298 30.9518 0.568298C31.6086 0.568298 32.2389 0.827549 32.7057 1.2897C32.9361 1.51664 33.1191 1.78715 33.244 2.08548C33.369 2.38382 33.4333 2.70401 33.4333 3.02744C33.4333 3.35087 33.369 3.67107 33.244 3.9694C33.1191 4.26773 32.9361 4.53824 32.7057 4.76518L18.689 18.5021C18.2212 18.9636 17.5904 19.2224 16.9333 19.2224C16.2761 19.2224 15.6454 18.9636 15.1776 18.5021L1.16089 4.76518C0.930448 4.53824 0.747444 4.26773 0.62253 3.9694C0.497617 3.67107 0.433289 3.35087 0.433289 3.02744C0.433289 2.70401 0.497617 2.38382 0.62253 2.08548C0.747444 1.78715 0.930448 1.51664 1.16089 1.2897C1.62764 0.827549 2.25794 0.568298 2.91478 0.568298C3.57162 0.568298 4.20191 0.827549 4.66866 1.2897L16.9387 12.5554L29.1979 1.2897Z" fill="#485161"/>
</svg>
