<svg width="35" height="36" viewBox="0 0 35 36" fill="none" xmlns="http://www.w3.org/2000/svg">
<path d="M29.4523 0.495361H5.05479C3.71466 0.496927 2.42986 1.02999 1.48224 1.9776C0.534625 2.92522 0.00156558 4.21002 0 5.55015L0 29.9476C0.00156558 31.2877 0.534625 32.5725 1.48224 33.5202C2.42986 34.4678 3.71466 35.0008 5.05479 35.0024H29.4523C30.7924 35.0008 32.0772 34.4678 33.0248 33.5202C33.9724 32.5725 34.5055 31.2877 34.507 29.9476V5.55015C34.5055 4.21002 33.9724 2.92522 33.0248 1.9776C32.0772 1.02999 30.7924 0.496927 29.4523 0.495361V0.495361ZM20.2862 21.7251V32.9813H18.2651V21.7251C18.265 21.5923 18.2388 21.4608 18.1879 21.3382C18.137 21.2156 18.0625 21.1041 17.9686 21.0103C17.8747 20.9165 17.7632 20.842 17.6405 20.7913C17.5178 20.7405 17.3863 20.7145 17.2535 20.7145H14.2208V18.6934H17.2535C17.5217 18.6934 17.7788 18.5869 17.9684 18.3973C18.1581 18.2076 18.2646 17.9505 18.2646 17.6823V13.6401C18.2655 12.2999 18.7979 11.0149 19.7451 10.0668C20.6922 9.11873 21.9768 8.58504 23.3169 8.58283H26.3496V10.604H23.3169C22.5129 10.6049 21.742 10.9247 21.1735 11.4932C20.6049 12.0618 20.2851 12.8326 20.2842 13.6366V17.6789C20.2839 17.8119 20.3098 17.9437 20.3605 18.0667C20.4112 18.1897 20.4857 18.3014 20.5797 18.3956C20.6736 18.4897 20.7853 18.5644 20.9081 18.6153C21.031 18.6663 21.1628 18.6925 21.2958 18.6924H26.0666L25.5613 20.7135H21.2958C21.0278 20.7139 20.7709 20.8207 20.5816 21.0104C20.3923 21.2 20.2861 21.4571 20.2862 21.7251ZM32.4859 29.9476C32.4853 30.752 32.1654 31.5232 31.5967 32.092C31.0279 32.6608 30.2566 32.9806 29.4523 32.9813H22.3083V22.7361H26.3506C26.576 22.7362 26.795 22.6609 26.9728 22.5221C27.1505 22.3834 27.2768 22.1893 27.3315 21.9706L28.3426 17.9283C28.3797 17.7793 28.3824 17.6237 28.3505 17.4735C28.3186 17.3232 28.2528 17.1822 28.1583 17.0612C28.0637 16.9401 27.9429 16.8422 27.8048 16.7748C27.6668 16.7074 27.5152 16.6723 27.3616 16.6723H22.3083V13.6376C22.3086 13.37 22.4148 13.1133 22.6039 12.9238C22.7929 12.7344 23.0493 12.6275 23.3169 12.6266H27.3592C27.6273 12.6266 27.8845 12.52 28.0741 12.3304C28.2637 12.1408 28.3702 11.8837 28.3702 11.6155V7.57325C28.3711 7.30518 28.2656 7.04773 28.0767 6.85749C27.8878 6.66724 27.6312 6.55979 27.3631 6.55874H23.3169C21.4407 6.56148 19.6422 7.30831 18.316 8.63539C16.9897 9.96247 16.244 11.7614 16.2425 13.6376V16.6703H13.2113C12.9431 16.6703 12.686 16.7768 12.4963 16.9664C12.3067 17.156 12.2002 17.4132 12.2002 17.6813V21.7236C12.2003 21.856 12.2266 21.9871 12.2776 22.1093C12.3285 22.2315 12.4031 22.3425 12.497 22.4358C12.591 22.5291 12.7025 22.6029 12.825 22.653C12.9476 22.7031 13.0789 22.7285 13.2113 22.7278H16.2439V32.9813H5.0538C4.2496 32.9804 3.47861 32.6604 2.91004 32.0917C2.34147 31.5229 2.02178 30.7518 2.02113 29.9476V5.55015C2.02178 4.74577 2.34161 3.97453 2.91039 3.40575C3.47917 2.83697 4.25041 2.51714 5.05479 2.51649H29.4523C30.2566 2.51714 31.0279 2.83697 31.5967 3.40575C32.1654 3.97453 32.4853 4.74577 32.4859 5.55015V29.9476Z" fill="#EF5D24"/>
</svg>
