<svg width="36" height="36" viewBox="0 0 36 36" fill="none" xmlns="http://www.w3.org/2000/svg">
<path d="M7.33608 35.0013H28.1833C29.9937 34.999 31.7294 34.2788 33.0095 32.9986C34.2896 31.7184 35.0097 29.9827 35.0118 28.1722V7.32503C35.0096 5.51458 34.2894 3.77892 33.0092 2.49879C31.7289 1.21865 29.9932 0.498557 28.1828 0.49646L7.33559 0.49646C5.52514 0.498688 3.78948 1.21891 2.50935 2.49914C1.22921 3.77937 0.509116 5.51507 0.507019 7.32552L0.507019 28.1727C0.509247 29.9832 1.22947 31.7188 2.5097 32.999C3.78992 34.2791 5.52563 34.9992 7.33608 35.0013ZM2.66354 7.32552C2.66498 6.08673 3.15773 4.89909 4.03369 4.02313C4.90965 3.14717 6.09729 2.65442 7.33608 2.65298H28.1833C29.4221 2.65442 30.6097 3.14717 31.4857 4.02313C32.3616 4.89909 32.8544 6.08673 32.8558 7.32552V28.1727C32.8544 29.4115 32.3616 30.5991 31.4857 31.4751C30.6097 32.3511 29.4221 32.8438 28.1833 32.8453H7.33608C6.0972 32.8438 4.90949 32.351 4.03351 31.4749C3.15754 30.5989 2.66485 29.4111 2.66354 28.1722V7.32552Z" fill="#EF5D24"/>
<path d="M17.7597 26.5619C19.503 26.5619 21.2071 26.0449 22.6566 25.0764C24.1061 24.1079 25.2359 22.7313 25.903 21.1207C26.5701 19.5101 26.7447 17.7378 26.4046 16.028C26.0645 14.3182 25.225 12.7477 23.9923 11.515C22.7596 10.2823 21.1891 9.44282 19.4793 9.10272C17.7695 8.76262 15.9972 8.93717 14.3866 9.6043C12.776 10.2714 11.3994 11.4012 10.4309 12.8507C9.46238 14.3002 8.94543 16.0043 8.94543 17.7476C8.94779 20.0846 9.87719 22.3251 11.5297 23.9776C13.1822 25.6301 15.4227 26.5595 17.7597 26.5619ZM17.7597 11.0923C19.0763 11.0923 20.3633 11.4828 21.458 12.2142C22.5527 12.9457 23.4059 13.9853 23.9097 15.2017C24.4135 16.418 24.5454 17.7565 24.2885 19.0478C24.0317 20.339 23.3977 21.5252 22.4667 22.4561C21.5357 23.3871 20.3496 24.0211 19.0583 24.2779C17.7671 24.5348 16.4286 24.4029 15.2123 23.8991C13.9959 23.3953 12.9563 22.5421 12.2248 21.4474C11.4934 20.3527 11.1029 19.0657 11.1029 17.7491C11.1049 15.9842 11.8069 14.2922 13.0548 13.0442C14.3028 11.7963 15.9948 11.0943 17.7597 11.0923Z" fill="#EF5D24"/>
<path d="M26.9003 11.0805C27.2281 11.0886 27.5541 11.0301 27.8587 10.9087C28.1633 10.7873 28.4402 10.6053 28.6725 10.3739C28.9048 10.1425 29.0879 9.86643 29.2105 9.56232C29.3331 9.2582 29.3929 8.93238 29.3861 8.60454C29.3935 8.27665 29.3343 7.95068 29.2119 7.64638C29.0896 7.34207 28.9067 7.06579 28.6744 6.83427C28.4421 6.60276 28.1652 6.42083 27.8605 6.29954C27.5558 6.17824 27.2296 6.12009 26.9018 6.12863C26.5739 6.12053 26.2479 6.17896 25.9433 6.30039C25.6387 6.42182 25.3619 6.60373 25.1295 6.83514C24.8972 7.06655 24.7142 7.34265 24.5915 7.64676C24.4689 7.95088 24.4091 8.2767 24.4159 8.60454C24.4083 8.93248 24.4674 9.25855 24.5897 9.56295C24.7119 9.86735 24.8948 10.1437 25.1271 10.3753C25.3595 10.6068 25.6365 10.7888 25.9413 10.91C26.2461 11.0312 26.5724 11.0892 26.9003 11.0805ZM27.1548 8.36883C27.6089 8.76993 26.5725 9.25719 26.5725 8.60751C26.5725 8.21978 27.1003 8.32031 27.1548 8.36933V8.36883Z" fill="#EF5D24"/>
</svg>
