<svg xmlns="http://www.w3.org/2000/svg" viewBox="0 0 874.31 158.17"><defs><style>.cls-1{fill:#ef5d24;}</style></defs><title>logo</title><g id="Layer_2" data-name="Layer 2"><g id="Layer_1-2" data-name="Layer 1"><path class="cls-1" d="M0,133.57V63.45H27.14a35.27,35.27,0,0,1,13.1,2.38,28.71,28.71,0,0,1,10.3,6.81,31.68,31.68,0,0,1,6.71,10.77,39.85,39.85,0,0,1,2.43,14.36,46.57,46.57,0,0,1-2.17,14.63,32.87,32.87,0,0,1-6.18,11.3A28,28,0,0,1,41.72,131a29,29,0,0,1-12.36,2.59H0Zm26.4-11.93q9.62,0,13.94-6t4.33-17.9a42,42,0,0,0-1.06-10.14,16.21,16.21,0,0,0-3.43-6.92,13.52,13.52,0,0,0-6.07-3.91,29,29,0,0,0-9-1.21H14.26v46.05Z"/><path class="cls-1" d="M64.74,75.38V62.6H78.47V75.38Zm0,58.19v-52H78.47v52Z"/><path class="cls-1" d="M120.92,126.6a10.83,10.83,0,0,1-5.33,5.44,19.5,19.5,0,0,1-8.92,2,23.35,23.35,0,0,1-10.82-2.27,19.9,19.9,0,0,1-7.08-6,24.45,24.45,0,0,1-3.91-8.55,40.78,40.78,0,0,1-1.21-9.93,32.78,32.78,0,0,1,1.79-11,26.74,26.74,0,0,1,4.86-8.55,21.72,21.72,0,0,1,7.18-5.49,20.47,20.47,0,0,1,8.87-2q9.72,0,14.57,7.81V81.61h13.73V134.1a25.23,25.23,0,0,1-2,10.4,21.28,21.28,0,0,1-5.49,7.5,23.9,23.9,0,0,1-8.24,4.59,33.48,33.48,0,0,1-20.17,0,23.6,23.6,0,0,1-8-4.33,20,20,0,0,1-5.23-6.81,20.93,20.93,0,0,1-1.9-9.08H96.42a9,9,0,0,0,3.12,7.34,12.59,12.59,0,0,0,8.29,2.59,14.47,14.47,0,0,0,9.29-3,9.9,9.9,0,0,0,3.8-8.18V126.6Zm-11.3-3.38a10.62,10.62,0,0,0,8.4-3.85q3.33-3.86,3.33-10.51,0-16.68-11.72-16.69T97.91,108q0,7,3.33,11.09A10.29,10.29,0,0,0,109.62,123.22Z"/><path class="cls-1" d="M141,75.38V62.6h13.73V75.38Zm0,58.19v-52h13.73v52Z"/><path class="cls-1" d="M190.41,99.35h12.78v14.79A25.65,25.65,0,0,1,202,122a18.43,18.43,0,0,1-3.8,6.65,18.07,18.07,0,0,1-6.55,4.59,23.93,23.93,0,0,1-9.45,1.69,25,25,0,0,1-9.72-1.69,18.35,18.35,0,0,1-6.6-4.54,17.17,17.17,0,0,1-3.75-6.65,27.12,27.12,0,0,1-1.16-8V67.56h13.52v14H203.2v9.72H174.47v21.33q0,5,1.85,7.66c1.23,1.79,3.26,2.69,6.07,2.69s4.77-.88,6.07-2.64,1.95-4.26,1.95-7.5V99.35Z"/><path class="cls-1" d="M241.31,133.57a21.83,21.83,0,0,1-.85-4.65A17,17,0,0,1,234,133.3a24.49,24.49,0,0,1-9.29,1.64q-9,0-13.15-4a13.55,13.55,0,0,1-4.17-10.3,18.77,18.77,0,0,1,1.8-8.92,13.43,13.43,0,0,1,5-5.23,23.87,23.87,0,0,1,7.55-2.8c2.92-.6,6.11-1.14,9.56-1.64s5.77-1.14,7-2a4.82,4.82,0,0,0-.58-7.92,12.35,12.35,0,0,0-6.39-1.43c-3.17,0-5.44.71-6.81,2.11a9.9,9.9,0,0,0-2.59,5.6H209.1a23.49,23.49,0,0,1,1.32-7.39,14.16,14.16,0,0,1,3.91-5.81,18.34,18.34,0,0,1,7-3.75,36.63,36.63,0,0,1,10.56-1.32,34.5,34.5,0,0,1,10.4,1.37,16.81,16.81,0,0,1,6.86,4A15.21,15.21,0,0,1,252.92,92a30.31,30.31,0,0,1,1.16,8.71v32.84H241.31Zm-.95-25.45a7.46,7.46,0,0,1-3.06,1.69,56.08,56.08,0,0,1-5.81,1.37c-3.94.78-6.65,1.76-8.13,3a6.27,6.27,0,0,0-2.22,5.17q0,5.81,6.65,5.81a13.19,13.19,0,0,0,4.91-.9,12,12,0,0,0,6.55-6,9.83,9.83,0,0,0,1-4.38Z"/><path class="cls-1" d="M260.11,133.57v-71h13.73v71Z"/><path class="cls-1" d="M359.06,133.57v-48L346,133.57H331.39l-13-47.84v47.84H304.78V63.45h21.54L339,114.88l12.67-51.43h21.12v70.12Z"/><path class="cls-1" d="M391.06,111.18q.31,5.91,3.43,9.4a10.48,10.48,0,0,0,8.18,3.49,11.53,11.53,0,0,0,6-1.53,7,7,0,0,0,3.33-4.28h14.15a22.84,22.84,0,0,1-8.45,12.36A23.91,23.91,0,0,1,403.31,135q-26,0-26-28.3A32.91,32.91,0,0,1,379,95.77a23.44,23.44,0,0,1,4.91-8.34,21.25,21.25,0,0,1,7.87-5.33,28.74,28.74,0,0,1,10.67-1.85q12,0,18.22,7.71t6.18,23.23H391.06Zm21.65-8.66a14.68,14.68,0,0,0-1-5,10.48,10.48,0,0,0-2.38-3.59A9.49,9.49,0,0,0,406,91.8a11.38,11.38,0,0,0-3.91-.69,9.73,9.73,0,0,0-7.13,3,12.82,12.82,0,0,0-3.43,8.4Z"/><path class="cls-1" d="M467.63,133.57l-.11-6.34q-4.75,7.71-14.47,7.71A21.34,21.34,0,0,1,444,133a19.88,19.88,0,0,1-7.08-5.49,26.7,26.7,0,0,1-4.65-8.77,37.59,37.59,0,0,1-1.69-11.72A38.83,38.83,0,0,1,432,96.23a25.57,25.57,0,0,1,4.17-8.5,18.86,18.86,0,0,1,6.71-5.54,20.18,20.18,0,0,1,9-2q9.62,0,15.42,8.13V62.6h13.52v71Zm-11.41-9.82a10.24,10.24,0,0,0,8.29-4.12q3.33-4.12,3.33-10.77,0-16.89-11.51-16.9Q444.5,92,444.5,108q0,7,3.27,11.35A10.08,10.08,0,0,0,456.22,123.75Z"/><path class="cls-1" d="M487.16,75.38V62.6h13.73V75.38Zm0,58.19v-52h13.73v52Z"/><path class="cls-1" d="M539.65,133.57a20.67,20.67,0,0,1-.84-4.65,17,17,0,0,1-6.44,4.38,24.49,24.49,0,0,1-9.29,1.64q-9,0-13.15-4a13.55,13.55,0,0,1-4.17-10.3,18.9,18.9,0,0,1,1.79-8.92,13.43,13.43,0,0,1,5-5.23,23.87,23.87,0,0,1,7.55-2.8c2.92-.6,6.11-1.14,9.56-1.64s5.77-1.14,7-2a4.83,4.83,0,0,0-.59-7.92,12.37,12.37,0,0,0-6.39-1.43c-3.17,0-5.44.71-6.81,2.11a9.9,9.9,0,0,0-2.59,5.6H507.44a23.49,23.49,0,0,1,1.32-7.39,14.16,14.16,0,0,1,3.91-5.81,18.34,18.34,0,0,1,7-3.75,36.63,36.63,0,0,1,10.56-1.32,34.5,34.5,0,0,1,10.4,1.37,16.81,16.81,0,0,1,6.86,4A15.21,15.21,0,0,1,551.26,92a30.31,30.31,0,0,1,1.16,8.71v32.84H539.65Zm-.95-25.45a7.46,7.46,0,0,1-3.06,1.69,56.08,56.08,0,0,1-5.81,1.37c-3.94.78-6.65,1.76-8.13,3a6.27,6.27,0,0,0-2.22,5.17q0,5.81,6.65,5.81a13.19,13.19,0,0,0,4.91-.9,12,12,0,0,0,6.55-6,9.83,9.83,0,0,0,1-4.38Z"/><path class="cls-1" d="M583.58,133.57V63.45h27.14a35.27,35.27,0,0,1,13.1,2.38,28.71,28.71,0,0,1,10.3,6.81,31.68,31.68,0,0,1,6.71,10.77,39.85,39.85,0,0,1,2.43,14.36,46.57,46.57,0,0,1-2.17,14.63,32.87,32.87,0,0,1-6.18,11.3A28,28,0,0,1,625.3,131a29,29,0,0,1-12.36,2.59H583.58ZM610,121.64q9.62,0,13.94-6t4.33-17.9a42,42,0,0,0-1.06-10.14,16.21,16.21,0,0,0-3.43-6.92,13.52,13.52,0,0,0-6.07-3.91,29,29,0,0,0-9-1.21H597.84v46.05Z"/><path class="cls-1" d="M660.57,111.18q.31,5.91,3.43,9.4a10.48,10.48,0,0,0,8.18,3.49,11.53,11.53,0,0,0,6-1.53,7,7,0,0,0,3.33-4.28h14.15a22.84,22.84,0,0,1-8.45,12.36A23.91,23.91,0,0,1,672.82,135q-26,0-26-28.3a32.91,32.91,0,0,1,1.69-10.88,23.44,23.44,0,0,1,4.91-8.34,21.25,21.25,0,0,1,7.87-5.33A28.74,28.74,0,0,1,672,80.25q12,0,18.22,7.71t6.18,23.23H660.57Zm21.65-8.66a14.68,14.68,0,0,0-1-5,10.48,10.48,0,0,0-2.38-3.59,9.49,9.49,0,0,0-3.38-2.11,11.38,11.38,0,0,0-3.91-.69,9.73,9.73,0,0,0-7.13,3,12.82,12.82,0,0,0-3.43,8.4Z"/><path class="cls-1" d="M732.38,97.35C732,94.81,731.11,93,729.63,92s-3.8-1.53-7-1.53a14.39,14.39,0,0,0-6,1,3.43,3.43,0,0,0-2.11,3.33,3.86,3.86,0,0,0,2.11,3.54,28.68,28.68,0,0,0,6.34,2.38c3,.84,5.77,1.6,8.45,2.27a63.57,63.57,0,0,1,7.08,2.17,14.88,14.88,0,0,1,6.34,4.59c1.48,1.94,2.22,4.59,2.22,8q0,8.13-5.76,12.67T724.36,135q-12,0-18.43-5.07a16.46,16.46,0,0,1-6.6-13h14.15a6.54,6.54,0,0,0,2.85,5.7q2.85,2,7.92,2a15.81,15.81,0,0,0,6.44-1.21,4.25,4.25,0,0,0,2.75-4.17,4,4,0,0,0-2.48-3.91,33.56,33.56,0,0,0-5.86-2q-6.55-1.59-10.56-2.85a27.43,27.43,0,0,1-6.76-3.06,13.22,13.22,0,0,1-5.12-5.28,14.64,14.64,0,0,1-1.43-6.44,16.23,16.23,0,0,1,1.16-6.13,11.81,11.81,0,0,1,3.8-4.91A19.43,19.43,0,0,1,713,81.41a38.17,38.17,0,0,1,10.08-1.16q11.29,0,16.63,4.33t5.86,12.78H732.38Z"/><path class="cls-1" d="M751.28,75.38V62.6H765V75.38Zm0,58.19v-52H765v52Z"/><path class="cls-1" d="M807.47,126.6a10.83,10.83,0,0,1-5.33,5.44,19.5,19.5,0,0,1-8.92,2,23.38,23.38,0,0,1-10.82-2.27,19.9,19.9,0,0,1-7.08-6,24.45,24.45,0,0,1-3.91-8.55,40.78,40.78,0,0,1-1.21-9.93,32.53,32.53,0,0,1,1.8-11,26.56,26.56,0,0,1,4.86-8.55A21.72,21.72,0,0,1,784,82.19a20.47,20.47,0,0,1,8.87-2q9.72,0,14.57,7.81V81.61h13.73V134.1a25.23,25.23,0,0,1-2,10.4,21.28,21.28,0,0,1-5.49,7.5,23.9,23.9,0,0,1-8.24,4.59,33.48,33.48,0,0,1-20.17,0,23.6,23.6,0,0,1-8-4.33,20,20,0,0,1-5.23-6.81,20.93,20.93,0,0,1-1.9-9.08H783a9,9,0,0,0,3.12,7.34,12.59,12.59,0,0,0,8.29,2.59,14.47,14.47,0,0,0,9.29-3,9.9,9.9,0,0,0,3.8-8.18V126.6Zm-11.3-3.38a10.62,10.62,0,0,0,8.4-3.85q3.33-3.86,3.33-10.51,0-16.68-11.72-16.69T784.46,108q0,7,3.33,11.09A10.29,10.29,0,0,0,796.17,123.22Z"/><path class="cls-1" d="M860.48,133.57V102.1q0-6-2-8.13t-6.86-2.11q-10.67,0-10.67,11.93v29.78H827.21v-52H840.3v7.6a16.75,16.75,0,0,1,6.44-6.71A23.5,23.5,0,0,1,864,81.34a14.61,14.61,0,0,1,5.44,3.33A16,16,0,0,1,873,90.11a19.54,19.54,0,0,1,1.32,7.45v36Z"/><path class="cls-1" d="M.59,43.68V3.84H16a20.08,20.08,0,0,1,7.44,1.35A16.35,16.35,0,0,1,29.3,9.06a17.94,17.94,0,0,1,3.81,6.12,22.67,22.67,0,0,1,1.38,8.16,26.55,26.55,0,0,1-1.23,8.31,18.76,18.76,0,0,1-3.51,6.42,15.84,15.84,0,0,1-5.46,4.14,16.53,16.53,0,0,1-7,1.47Zm15-6.78q5.46,0,7.92-3.39T26,23.34a24,24,0,0,0-.6-5.76,9.2,9.2,0,0,0-1.95-3.93A7.7,7.7,0,0,0,20,11.43a16.47,16.47,0,0,0-5.1-.69H8.69V36.9Z"/><path class="cls-1" d="M37.37,10.62V3.36h7.8v7.26Zm0,33.06V14.16h7.8V43.68Z"/><path class="cls-1" d="M48.71,57.66V14.16h7.5l.06,3.6a9,9,0,0,1,8.22-4.38,12.22,12.22,0,0,1,5.13,1.08,11.21,11.21,0,0,1,4,3.12,15.13,15.13,0,0,1,2.64,5,21.41,21.41,0,0,1,1,6.66,22,22,0,0,1-.81,6.15,14.53,14.53,0,0,1-2.37,4.83,10.71,10.71,0,0,1-3.81,3.15,11.45,11.45,0,0,1-5.13,1.11,10.26,10.26,0,0,1-8.76-4.62V57.66ZM62.63,37.8q6.72,0,6.72-9.12a10.5,10.5,0,0,0-1.86-6.45,5.74,5.74,0,0,0-4.8-2.49A5.82,5.82,0,0,0,58,22.08a9.44,9.44,0,0,0-1.89,6.12Q56.09,37.8,62.63,37.8Z"/><path class="cls-1" d="M80.09,43.68V3.36h7.8V43.68Z"/><path class="cls-1" d="M105.71,44.46a17,17,0,0,1-6.42-1.14,13.16,13.16,0,0,1-7.74-8.1,18.75,18.75,0,0,1-1-6.3,18.45,18.45,0,0,1,1-6.36,13.69,13.69,0,0,1,3-4.92,13.52,13.52,0,0,1,4.77-3.15,17,17,0,0,1,6.33-1.11A16.6,16.6,0,0,1,112,14.49a13.47,13.47,0,0,1,4.71,3.12,13.61,13.61,0,0,1,3,4.89,18.63,18.63,0,0,1,1,6.42,18.38,18.38,0,0,1-1,6.39,14,14,0,0,1-3,4.89,13.22,13.22,0,0,1-4.74,3.15A16.67,16.67,0,0,1,105.71,44.46Zm0-6.54q7.14,0,7.14-9T105.71,20q-7.14,0-7.14,8.94T105.71,37.92Z"/><path class="cls-1" d="M158.16,43.68V25.8a7.11,7.11,0,0,0-1.26-4.38,4,4,0,0,0-3.36-1.68,4.35,4.35,0,0,0-3.57,1.8,7.07,7.07,0,0,0-1.41,4.5V43.68h-7.8V25.92a14.72,14.72,0,0,0-.24-2.94,4,4,0,0,0-.81-1.8,3.05,3.05,0,0,0-1.47-.93,7.58,7.58,0,0,0-2.16-.27q-4.74,0-4.74,5.76V43.68h-7.8V14.16h7.32v4.32a8.77,8.77,0,0,1,3.6-4,10.9,10.9,0,0,1,5-1.08,13.37,13.37,0,0,1,2.67.24,6.47,6.47,0,0,1,2.1.81A8.53,8.53,0,0,1,146,15.9a16.92,16.92,0,0,1,1.68,2.16,7.89,7.89,0,0,1,3.18-3.57,9.68,9.68,0,0,1,4.8-1.11,10.81,10.81,0,0,1,4.08.75,9.19,9.19,0,0,1,3.18,2.1,9.95,9.95,0,0,1,2.82,7V43.68Z"/><path class="cls-1" d="M187.26,43.68a12,12,0,0,1-.48-2.64,9.65,9.65,0,0,1-3.66,2.49,13.9,13.9,0,0,1-5.28.93q-5.1,0-7.47-2.25A7.7,7.7,0,0,1,168,36.36a10.71,10.71,0,0,1,1-5.07,7.61,7.61,0,0,1,2.82-3,13.58,13.58,0,0,1,4.29-1.59q2.49-.51,5.43-.93a10.47,10.47,0,0,0,4-1.11,2.52,2.52,0,0,0,1-2.25,2.51,2.51,0,0,0-1.35-2.25,7,7,0,0,0-3.63-.81,5.24,5.24,0,0,0-3.87,1.2,5.62,5.62,0,0,0-1.47,3.18H169a13.39,13.39,0,0,1,.75-4.2,8,8,0,0,1,2.22-3.3,10.38,10.38,0,0,1,4-2.13,20.79,20.79,0,0,1,6-.75,19.51,19.51,0,0,1,5.91.78,9.52,9.52,0,0,1,3.9,2.25,8.57,8.57,0,0,1,2.13,3.66,17.14,17.14,0,0,1,.66,4.95V43.68Zm-.54-14.46a4.22,4.22,0,0,1-1.74,1,31.93,31.93,0,0,1-3.3.78,11.18,11.18,0,0,0-4.62,1.68,3.56,3.56,0,0,0-1.26,2.94q0,3.3,3.78,3.3a7.52,7.52,0,0,0,2.79-.51A6.8,6.8,0,0,0,186.09,35a5.61,5.61,0,0,0,.57-2.49Z"/><path class="cls-1" d="M224.46,52.26a41.11,41.11,0,0,1-7.14-12.54,41.7,41.7,0,0,1-2.46-14.1,39.86,39.86,0,0,1,2.34-13.47A37.12,37.12,0,0,1,224.46,0h5.7a52.21,52.21,0,0,0-5.49,12.57,48,48,0,0,0-1.83,13.17,50.62,50.62,0,0,0,1.83,13.41,56.57,56.57,0,0,0,5.49,13.11Z"/><path class="cls-1" d="M266.88,30a22.5,22.5,0,0,1-2.1,6.18,16.79,16.79,0,0,1-3.63,4.74A15.7,15.7,0,0,1,256.08,44a18,18,0,0,1-6.36,1.08,19.91,19.91,0,0,1-7.29-1.32,15.66,15.66,0,0,1-5.85-4,18.9,18.9,0,0,1-3.87-6.51,26.34,26.34,0,0,1-1.41-9,29.88,29.88,0,0,1,1.29-9.09,19.34,19.34,0,0,1,3.69-6.84A16,16,0,0,1,242.13,4a19.14,19.14,0,0,1,7.71-1.5,19.51,19.51,0,0,1,6.75,1.11,16.06,16.06,0,0,1,5.22,3.06,14.77,14.77,0,0,1,3.48,4.59,16.47,16.47,0,0,1,1.59,5.64h-8.34a9.34,9.34,0,0,0-3.24-5.31,8.5,8.5,0,0,0-5.4-1.89q-5.22,0-7.68,3.75t-2.46,10.29q0,6.66,2.43,10.35a8.15,8.15,0,0,0,7.29,3.69,8.63,8.63,0,0,0,6-2A10.58,10.58,0,0,0,258.54,30Z"/><path class="cls-1" d="M283.26,44.46a17,17,0,0,1-6.42-1.14,13.16,13.16,0,0,1-7.74-8.1,18.75,18.75,0,0,1-1-6.3,18.45,18.45,0,0,1,1.05-6.36,13.69,13.69,0,0,1,3-4.92,13.52,13.52,0,0,1,4.77-3.15,17,17,0,0,1,6.33-1.11,16.6,16.6,0,0,1,6.24,1.11,13.47,13.47,0,0,1,4.71,3.12,13.61,13.61,0,0,1,3,4.89,18.63,18.63,0,0,1,1.05,6.42,18.38,18.38,0,0,1-1.05,6.39,14,14,0,0,1-3,4.89,13.22,13.22,0,0,1-4.74,3.15A16.63,16.63,0,0,1,283.26,44.46Zm0-6.54q7.14,0,7.14-9T283.26,20q-7.14,0-7.14,8.94T283.26,37.92Z"/><path class="cls-1" d="M320,43.68V25.8q0-3.42-1.14-4.62T315,20q-6.06,0-6.06,6.78V43.68h-7.8V14.16h7.44v4.32a9.48,9.48,0,0,1,3.66-3.81,11.86,11.86,0,0,1,5.88-1.29A11.73,11.73,0,0,1,322,14a8.26,8.26,0,0,1,3.09,1.89,9.05,9.05,0,0,1,2,3.09,11.09,11.09,0,0,1,.75,4.23V43.68Z"/><path class="cls-1" d="M338.11,43.68,327.55,14.16h8.7l6.18,19.5,6.24-19.5h8.22L346.27,43.68Z"/><path class="cls-1" d="M364.09,31a8.43,8.43,0,0,0,2,5.34,5.94,5.94,0,0,0,4.65,2,6.53,6.53,0,0,0,3.39-.87A3.94,3.94,0,0,0,376,35h8a13,13,0,0,1-4.8,7,13.6,13.6,0,0,1-8.16,2.46q-14.76,0-14.76-16.08a18.73,18.73,0,0,1,1-6.18A13.34,13.34,0,0,1,360,17.46a12.06,12.06,0,0,1,4.47-3,16.31,16.31,0,0,1,6.06-1q6.84,0,10.35,4.38T384.43,31ZM376.39,26a8.2,8.2,0,0,0-.57-2.85,6,6,0,0,0-1.35-2,5.36,5.36,0,0,0-1.92-1.2,6.49,6.49,0,0,0-2.22-.39,5.54,5.54,0,0,0-4.05,1.71A7.3,7.3,0,0,0,364.33,26Z"/><path class="cls-1" d="M387.13,43.68V14.16h7.32V17.7a9.56,9.56,0,0,1,2-2.34,8.69,8.69,0,0,1,2.16-1.29,8.27,8.27,0,0,1,2.25-.57,22.34,22.34,0,0,1,2.34-.12h1v8a13.12,13.12,0,0,0-2.16-.18q-7.14,0-7.14,7.14V43.68Z"/><path class="cls-1" d="M423,23.1a4.16,4.16,0,0,0-1.56-3,7.08,7.08,0,0,0-4-.87,8.19,8.19,0,0,0-3.42.57,2,2,0,0,0-1.2,1.89,2.19,2.19,0,0,0,1.2,2,16.16,16.16,0,0,0,3.6,1.35q2.52.72,4.8,1.29a36.12,36.12,0,0,1,4,1.23,8.42,8.42,0,0,1,3.6,2.61,7.3,7.3,0,0,1,1.26,4.53,8.65,8.65,0,0,1-3.27,7.2q-3.27,2.58-9.63,2.58-6.84,0-10.47-2.88a9.35,9.35,0,0,1-3.75-7.38h8a3.73,3.73,0,0,0,1.62,3.24,7.72,7.72,0,0,0,4.5,1.14,9,9,0,0,0,3.66-.69,2.41,2.41,0,0,0,1.56-2.37,2.28,2.28,0,0,0-1.41-2.22,18.44,18.44,0,0,0-3.33-1.14q-3.72-.9-6-1.62A15.59,15.59,0,0,1,409,28.8a7.53,7.53,0,0,1-2.91-3,8.32,8.32,0,0,1-.81-3.66,9.13,9.13,0,0,1,.66-3.48,6.74,6.74,0,0,1,2.16-2.79A11.06,11.06,0,0,1,412,14a21.6,21.6,0,0,1,5.73-.66q6.42,0,9.45,2.46a9.63,9.63,0,0,1,3.33,7.26Z"/><path class="cls-1" d="M433.75,10.62V3.36h7.8v7.26Zm0,33.06V14.16h7.8V43.68Z"/><path class="cls-1" d="M459.62,44.46a17,17,0,0,1-6.42-1.14,13.16,13.16,0,0,1-7.74-8.1,18.75,18.75,0,0,1-1-6.3,18.45,18.45,0,0,1,1.05-6.36,13.69,13.69,0,0,1,3-4.92,13.52,13.52,0,0,1,4.77-3.15,17,17,0,0,1,6.33-1.11,16.6,16.6,0,0,1,6.24,1.11,13.47,13.47,0,0,1,4.71,3.12,13.61,13.61,0,0,1,3,4.89,18.63,18.63,0,0,1,1.05,6.42,18.38,18.38,0,0,1-1.05,6.39,14,14,0,0,1-3,4.89,13.22,13.22,0,0,1-4.74,3.15A16.67,16.67,0,0,1,459.62,44.46Zm0-6.54q7.14,0,7.14-9T459.62,20q-7.14,0-7.14,8.94T459.62,37.92Z"/><path class="cls-1" d="M496.34,43.68V25.8q0-3.42-1.14-4.62T491.3,20q-6.06,0-6.06,6.78V43.68h-7.8V14.16h7.44v4.32a9.48,9.48,0,0,1,3.66-3.81,11.86,11.86,0,0,1,5.88-1.29,11.73,11.73,0,0,1,3.9.63,8.26,8.26,0,0,1,3.09,1.89,9.05,9.05,0,0,1,2,3.09,11.09,11.09,0,0,1,.75,4.23V43.68Z"/><path class="cls-1" d="M506.54,52.26A56.57,56.57,0,0,0,512,39.15a50.62,50.62,0,0,0,1.83-13.41A48,48,0,0,0,512,12.57,52.21,52.21,0,0,0,506.54,0h5.7a37.12,37.12,0,0,1,7.26,12.15,39.86,39.86,0,0,1,2.34,13.47,41.7,41.7,0,0,1-2.46,14.1,41.11,41.11,0,0,1-7.14,12.54Z"/><path class="cls-1" d="M541.82,10.62V3.36h7.8v7.26Zm0,33.06V14.16h7.8V43.68Z"/><path class="cls-1" d="M572.06,43.68V25.8q0-3.42-1.14-4.62T567,20Q561,20,561,26.76V43.68h-7.8V14.16h7.44v4.32a9.48,9.48,0,0,1,3.66-3.81,11.86,11.86,0,0,1,5.88-1.29A11.73,11.73,0,0,1,574,14a8.26,8.26,0,0,1,3.09,1.89,9.05,9.05,0,0,1,2,3.09,11.09,11.09,0,0,1,.75,4.23V43.68Z"/></g></g></svg>