<svg width="119" height="89" viewBox="0 0 119 89" fill="none" xmlns="http://www.w3.org/2000/svg">
<path d="M27.0469 35.493C25.724 35.493 24.4545 35.6951 23.1909 35.8794C23.6002 34.5001 24.0214 33.0971 24.6977 31.8367C25.374 30.0055 26.4299 28.4182 27.48 26.8189C28.3579 25.0888 29.9063 23.9176 31.0453 22.4373C32.2377 20.9985 33.8632 20.0413 35.1505 18.8464C36.4141 17.5979 38.0692 16.9736 39.3862 16.0937C40.7625 15.303 41.9608 14.4291 43.2422 14.0129L46.4397 12.6931L49.2517 11.5218L46.3745 0L42.8329 0.85611C41.6998 1.14148 40.3175 1.47441 38.7455 1.87274C37.1378 2.17 35.4234 2.9845 33.5132 3.72765C31.6267 4.57188 29.4436 5.14262 27.4147 6.49813C25.374 7.79419 23.0188 8.87622 20.9425 10.6122C18.9315 12.4017 16.5051 13.9534 14.7136 16.2305C12.7559 18.3588 10.8219 20.5943 9.32106 23.1388C7.58288 25.5645 6.40235 28.2279 5.15655 30.8617C4.02941 33.4954 3.12176 36.1886 2.38022 38.8045C0.974253 44.0482 0.345424 49.0303 0.102198 53.293C-0.0995017 57.5617 0.0191452 61.111 0.268304 63.6793C0.357289 64.8921 0.523395 66.0693 0.642042 66.8838L0.790349 67.8826L0.94459 67.8469C1.99972 72.7864 4.42868 77.3255 7.95047 80.9393C11.4723 84.5531 15.943 87.0939 20.8455 88.2677C25.7479 89.4415 30.8818 89.2003 35.6533 87.5722C40.4247 85.944 44.6387 82.9953 47.8078 79.0672C50.9768 75.1391 52.9715 70.3922 53.561 65.3754C54.1505 60.3587 53.3108 55.2772 51.1389 50.7188C48.9671 46.1604 45.5519 42.3113 41.2884 39.6169C37.0249 36.9224 32.0873 35.4926 27.0469 35.493V35.493ZM92.3027 35.493C90.9798 35.493 89.7102 35.6951 88.4466 35.8794C88.856 34.5001 89.2772 33.0971 89.9535 31.8367C90.6297 30.0055 91.6857 28.4182 92.7357 26.8189C93.6137 25.0888 95.1621 23.9176 96.3011 22.4373C97.4935 20.9985 99.1189 20.0413 100.406 18.8464C101.67 17.5979 103.325 16.9736 104.642 16.0937C106.018 15.303 107.217 14.4291 108.498 14.0129L111.695 12.6931L114.507 11.5218L111.63 0L108.089 0.85611C106.956 1.14148 105.573 1.47441 104.001 1.87274C102.394 2.17 100.679 2.9845 98.7689 3.72765C96.8884 4.57782 94.6993 5.14262 92.6705 6.50407C90.6297 7.80013 88.2746 8.88216 86.1983 10.6182C84.1872 12.4077 81.7609 13.9594 79.9693 16.2305C78.0116 18.3588 76.0777 20.5943 74.5768 23.1388C72.8386 25.5645 71.6581 28.2279 70.4123 30.8617C69.2852 33.4954 68.3775 36.1886 67.636 38.8045C66.23 44.0482 65.6012 49.0303 65.358 53.293C65.1563 57.5617 65.2749 61.111 65.5241 63.6793C65.6131 64.8921 65.7792 66.0693 65.8978 66.8838L66.0461 67.8826L66.2004 67.8469C67.2555 72.7864 69.6844 77.3255 73.2062 80.9393C76.728 84.5531 81.1988 87.0939 86.1012 88.2677C91.0037 89.4415 96.1376 89.2003 100.909 87.5722C105.68 85.944 109.894 82.9953 113.064 79.0672C116.233 75.1391 118.227 70.3922 118.817 65.3754C119.406 60.3587 118.567 55.2772 116.395 50.7188C114.223 46.1604 110.808 42.3113 106.544 39.6169C102.281 36.9224 97.3431 35.4926 92.3027 35.493V35.493Z" fill="#F45B32"/>
</svg>
