<svg width="119" height="89" viewBox="0 0 119 89" fill="none" xmlns="http://www.w3.org/2000/svg">
<path d="M118.358 22.1207L118.21 21.122L118.055 21.1576C117.001 16.2177 114.573 11.6778 111.051 8.06327C107.53 4.44872 103.059 1.90724 98.1562 0.732899C93.2533 -0.441446 88.1189 -0.20066 83.3469 1.4274C78.5749 3.05546 74.3604 6.00424 71.1911 9.93257C68.0218 13.8609 66.0272 18.6082 65.438 23.6252C64.8489 28.6422 65.6893 33.7238 67.862 38.2821C70.0348 42.8404 73.451 46.6891 77.7155 49.3828C81.98 52.0765 86.9184 53.5051 91.9593 53.5034C93.2822 53.5034 94.5517 53.3013 95.8153 53.117C95.406 54.4962 94.9848 55.8992 94.3085 57.1595C93.6322 58.9905 92.5763 60.5778 91.5263 62.1769C90.6483 63.9069 89.1 65.078 87.961 66.5583C86.7686 67.9969 85.1431 68.954 83.8558 70.1489C82.5923 71.3974 80.9371 72.0216 79.6202 72.9014C78.2439 73.6921 77.0456 74.566 75.7642 74.9821L72.5667 76.3018L69.7548 77.473L72.626 89L76.1676 88.1439C77.3007 87.8586 78.6829 87.5257 80.2549 87.1274C81.8626 86.8301 83.577 86.0157 85.4872 85.2726C87.3677 84.4225 89.5568 83.8577 91.5856 82.4964C93.6263 81.2004 95.9814 80.1184 98.0577 78.3825C100.069 76.5931 102.495 75.0415 104.287 72.7706C106.244 70.6424 108.178 68.4071 109.679 65.8627C111.417 63.4372 112.598 60.774 113.843 58.1404C114.971 55.5068 115.878 52.8138 116.62 50.1981C118.026 44.9548 118.655 39.973 118.898 35.7106C119.1 31.4422 118.981 27.8931 118.732 25.325C118.648 24.2525 118.524 23.1836 118.358 22.1207V22.1207ZM53.1029 22.1207L52.9546 21.122L52.8003 21.1576C51.7462 16.2177 49.3179 11.6778 45.7964 8.06327C42.2748 4.44872 37.8039 1.90724 32.9011 0.732899C27.9982 -0.441446 22.8638 -0.20066 18.0918 1.4274C13.3198 3.05546 9.10535 6.00424 5.93604 9.93257C2.76673 13.8609 0.772104 18.6082 0.182958 23.6252C-0.406188 28.6422 0.434223 33.7238 2.60695 38.2821C4.77968 42.8404 8.19592 46.6891 12.4604 49.3828C16.7249 52.0765 21.6633 53.5051 26.7042 53.5034C28.0271 53.5034 29.2967 53.3013 30.5602 53.117C30.1509 54.4962 29.7297 55.8992 29.0534 57.1595C28.3772 58.9905 27.3212 60.5778 26.2712 62.1769C25.3932 63.9069 23.8449 65.078 22.7059 66.5583C21.5135 67.9969 19.8881 68.954 18.6008 70.1489C17.3372 71.3974 15.6821 72.0216 14.3651 72.9014C12.9888 73.6921 11.7905 74.566 10.5091 74.9821L7.31163 76.3018C5.52601 77.0331 4.50566 77.4611 4.50566 77.4611L7.37689 88.9881L10.9185 88.1321C12.0515 87.8467 13.4337 87.5138 15.0058 87.1155C16.6134 86.8182 18.3279 86.0038 20.2381 85.2607C22.1186 84.4106 24.3076 83.8458 26.3364 82.4845C28.3772 81.1885 30.7323 80.1065 32.8086 78.3707C34.8196 76.5813 37.2459 75.0297 39.0375 72.7587C40.9951 70.6305 42.929 68.3952 44.4299 65.8508C46.1681 63.4254 47.3486 60.7621 48.5944 58.1285C49.7215 55.495 50.6291 52.802 51.3707 50.1862C52.7766 44.9429 53.4054 39.9611 53.6487 35.6987C53.8504 31.4303 53.7317 27.8812 53.4826 25.3131C53.394 24.2448 53.2673 23.18 53.1029 22.1207V22.1207Z" fill="#F45B32"/>
</svg>
