<svg width="36" height="36" viewBox="0 0 36 36" fill="none" xmlns="http://www.w3.org/2000/svg">
<path d="M26.1346 0.000546682H9.38693C8.15213 -0.0128606 6.92707 0.220463 5.78365 0.686831C4.64022 1.1532 3.60144 1.84322 2.72825 2.71641C1.85506 3.5896 1.16504 4.62838 0.698671 5.77181C0.232304 6.91523 -0.00101975 8.14028 0.0123875 9.37509V26.1228C-0.00101975 27.3576 0.232304 28.5826 0.698671 29.726C1.16504 30.8695 1.85506 31.9082 2.72825 32.7814C3.60144 33.6546 4.64022 34.3446 5.78365 34.811C6.92707 35.2774 8.15213 35.5107 9.38693 35.4973H26.1346C27.3694 35.5107 28.5944 35.2774 29.7379 34.811C30.8813 34.3446 31.9201 33.6546 32.7933 32.7814C33.6665 31.9082 34.3565 30.8695 34.8228 29.726C35.2892 28.5826 35.5225 27.3576 35.5091 26.1228V9.37509C35.5224 8.14032 35.289 6.91533 34.8226 5.77197C34.3562 4.6286 33.6661 3.58988 32.793 2.71671C31.9198 1.84355 30.8811 1.15353 29.7377 0.68711C28.5943 0.220695 27.3694 -0.0127232 26.1346 0.000546682ZM33.2188 26.1228C33.2289 27.0559 33.0526 27.9816 32.7002 28.8457C32.3477 29.7098 31.8263 30.4947 31.1664 31.1546C30.5066 31.8145 29.7216 32.3359 28.8575 32.6883C27.9935 33.0408 27.0677 33.2171 26.1346 33.207H9.38693C8.45385 33.217 7.52816 33.0405 6.66416 32.688C5.80015 32.3356 5.01522 31.8141 4.35539 31.1543C3.69556 30.4945 3.17412 29.7095 2.82163 28.8455C2.46914 27.9815 2.29271 27.0558 2.30268 26.1228V9.37509C2.29271 8.442 2.46914 7.51632 2.82163 6.65232C3.17412 5.78831 3.69556 5.00338 4.35539 4.34355C5.01522 3.68372 5.80015 3.16228 6.66416 2.80979C7.52816 2.4573 8.45385 2.28087 9.38693 2.29084H26.1346C27.0677 2.28073 27.9935 2.45707 28.8575 2.80951C29.7216 3.16195 30.5066 3.68339 31.1664 4.34325C31.8263 5.0031 32.3477 5.78809 32.7002 6.65215C33.0526 7.51622 33.2289 8.44197 33.2188 9.37509V26.1228Z" fill="#EF5D24"/>
<path d="M28.9236 9.06362C28.7436 8.9324 28.5292 8.85656 28.3067 8.84539C28.0842 8.83422 27.8633 8.88819 27.671 9.00071C27.045 9.24424 26.3856 9.39103 25.7154 9.43602C25.571 9.45565 25.429 9.47376 25.2917 9.49339C24.3062 8.67857 23.0677 8.23247 21.789 8.23174C20.4113 8.22563 19.0829 8.74454 18.0741 9.68294C17.0653 10.6213 16.4519 11.9088 16.3585 13.2834C13.7266 12.842 11.3405 11.4712 9.63353 9.41992C9.50905 9.26913 9.34802 9.15273 9.1658 9.08183C8.98357 9.01093 8.78623 8.98787 8.59257 9.01487C8.39891 9.04186 8.21539 9.11801 8.0595 9.23604C7.90362 9.35408 7.78056 9.51007 7.70206 9.68915C7.62858 9.85623 6.98996 11.4284 6.98996 15.317C6.98996 18.6847 9.64762 21.1592 11.4689 22.4631C10.1985 23.027 8.80092 23.2424 7.41973 23.0872C7.16197 23.0579 6.90191 23.1171 6.68213 23.2549C6.46235 23.3927 6.29587 23.6011 6.20993 23.8459C6.124 24.0906 6.1237 24.3573 6.20909 24.6023C6.29447 24.8472 6.46049 25.056 6.67995 25.1943C8.83422 26.5528 11.3296 27.2726 13.8764 27.2702C17.3426 27.3314 20.6923 26.0195 23.195 23.6207C25.6976 21.2218 27.1502 17.9306 27.2357 14.465C27.4717 14.1228 27.9216 13.4585 28.6821 12.2869C29.0039 11.6395 29.2344 10.9505 29.367 10.2397C29.4159 10.0218 29.4 9.79433 29.3212 9.58534C29.2424 9.37636 29.1042 9.195 28.9236 9.06362ZM25.1704 13.4218C25.0293 13.617 24.9532 13.8517 24.953 14.0926C24.953 18.6123 21.5168 24.9774 13.8779 24.9774C13.1908 24.9778 12.505 24.9155 11.8292 24.7912C12.7338 24.4481 13.5827 23.9733 14.3485 23.3821C14.5017 23.264 14.6225 23.109 14.6996 22.9316C14.7767 22.7542 14.8076 22.5602 14.7894 22.3676C14.7712 22.175 14.7045 21.9902 14.5955 21.8304C14.4866 21.6706 14.3389 21.5409 14.1663 21.4536C14.116 21.4285 9.27673 18.883 9.27673 15.3195C9.27138 14.3681 9.32178 13.4172 9.4277 12.4716C11.6987 14.4238 14.5551 15.5642 17.5461 15.7131C17.5693 15.7131 17.5929 15.7131 17.6151 15.7131C17.805 15.715 17.9924 15.6697 18.1605 15.5812C18.3285 15.4926 18.4719 15.3637 18.5776 15.2059C18.6834 15.0481 18.7482 14.8665 18.7663 14.6774C18.7843 14.4883 18.755 14.2977 18.681 14.1228C18.6049 13.6748 18.6287 13.2155 18.7507 12.7777C18.8728 12.34 19.09 11.9346 19.3869 11.5905C19.6838 11.2465 20.053 10.9723 20.4682 10.7875C20.8833 10.6027 21.3342 10.5119 21.7885 10.5215C22.2187 10.5209 22.6446 10.6074 23.0405 10.7756C23.4364 10.9438 23.7942 11.1903 24.0924 11.5003C24.2251 11.6391 24.3904 11.7424 24.5732 11.8007C24.7561 11.8591 24.9507 11.8707 25.1392 11.8345C25.3993 11.7842 25.6993 11.7464 26.0138 11.7052C26.126 11.6901 26.2393 11.6755 26.355 11.6594C25.4955 12.9693 25.185 13.4011 25.1704 13.4218Z" fill="#EF5D24"/>
</svg>
