<svg width="32" height="31" viewBox="0 0 32 31" fill="none" xmlns="http://www.w3.org/2000/svg">
<path fill-rule="evenodd" clip-rule="evenodd" d="M19.167 6.5V3.33333H12.8337V6.5H19.167ZM3.33366 9.66666V27.0833H28.667V9.66666H3.33366ZM28.667 6.5C30.4245 6.5 31.8337 7.90916 31.8337 9.66666V27.0833C31.8337 28.8408 30.4245 30.25 28.667 30.25H3.33366C1.57616 30.25 0.166992 28.8408 0.166992 27.0833L0.182826 9.66666C0.182826 7.90916 1.57616 6.5 3.33366 6.5H9.66699V3.33333C9.66699 1.57583 11.0762 0.166664 12.8337 0.166664H19.167C20.9245 0.166664 22.3337 1.57583 22.3337 3.33333V6.5H28.667Z" fill="#EF5D24"/>
</svg>
