<svg width="32" height="32" viewBox="0 0 32 32" fill="none" xmlns="http://www.w3.org/2000/svg">
<path d="M22.667 20H25.3337V22.6667H22.667V20ZM22.667 14.6667H25.3337V17.3333H22.667V14.6667ZM22.667 9.33334H25.3337V12H22.667V9.33334ZM18.3203 9.33334L20.0003 10.4533V9.33334H18.3203Z" fill="#EF5D24"/>
<path d="M13.333 4V6.01333L15.9997 7.78667V6.66667H27.9997V25.3333H22.6663V28H30.6663V4H13.333Z" fill="#EF5D24"/>
<path d="M10.893 7.60001L19.9997 13.6667V28H1.33301V13.9733L10.893 7.60001ZM13.333 25.3333H17.333V14.88L10.893 10.7867L3.99967 15.1733V25.3333H7.99967V17.3333H13.333V25.3333Z" fill="#EF5D24"/>
</svg>
