<svg width="48" height="63" viewBox="0 0 48 63" fill="none" xmlns="http://www.w3.org/2000/svg">
<path d="M1.47852 1.47849H45.8328V60.6175H1.47852V1.47849Z" fill="#F4F4F4"/>
<path d="M32.5271 50.2682H36.6669L29.2745 42.8758L25.1348 47.0155L32.5271 54.4079V50.2682Z" fill="#EF5D24"/>
<path d="M14.7852 50.2681H10.6455L18.0379 42.8758L22.1776 47.0155L14.7852 54.4079V50.2681Z" fill="#EF5D24"/>
<path d="M10.3496 14.7848H36.9622V20.6987H10.3496V14.7848Z" fill="#EF5D24"/>
<path d="M10.3496 25.1341H36.9622V28.091H10.3496V25.1341Z" fill="#EF5D24"/>
<path d="M23.656 34.0049C19.5163 34.0049 16.2637 37.2576 16.2637 41.3973C16.2637 45.537 19.5163 48.7897 23.656 48.7897C27.7958 48.7897 31.0484 45.537 31.0484 41.3973C31.0484 37.2576 27.7958 34.0049 23.656 34.0049ZM23.656 45.8327C21.1426 45.8327 19.2206 43.9107 19.2206 41.3973C19.2206 38.8839 21.1426 36.9619 23.656 36.9619C26.1695 36.9619 28.0915 38.8839 28.0915 41.3973C28.0915 43.9107 26.1695 45.8327 23.656 45.8327Z" fill="#EF5D24"/>
<path d="M0 0V62.0959H47.3112V0H0ZM44.3542 54.7036C41.8408 54.7036 39.9188 56.6256 39.9188 59.139H7.39237C7.39237 56.6256 5.47036 54.7036 2.95695 54.7036V7.39237C5.47036 7.39237 7.39237 5.47036 7.39237 2.95695H39.9188C39.9188 5.47036 41.8408 7.39237 44.3542 7.39237V54.7036Z" fill="#EF5D24"/>
</svg>
