<svg width="34" height="25" viewBox="0 0 34 25" fill="none" xmlns="http://www.w3.org/2000/svg">
<path d="M31.0119 0H2.9883C1.34055 0 0 1.2617 0 2.81252V21.5626C0 23.1135 1.34055 24.3752 2.9883 24.3752H31.0119C32.6596 24.3752 34.0002 23.1135 34.0002 21.5626V2.81252C34.0002 1.2617 32.6596 0 31.0119 0ZM32.008 21.5626C32.008 22.0796 31.5611 22.5001 31.0119 22.5001H2.9883C2.43905 22.5001 1.9922 22.0796 1.9922 21.5626V2.81252C1.9922 2.29558 2.43905 1.87501 2.9883 1.87501H31.0119C31.5611 1.87501 32.008 2.29558 32.008 2.81252V21.5626Z" fill="#EF5D24"/>
<path d="M17 4.66812H5C4.44773 4.66812 4 5.14784 4 5.73955V18.5967C4 19.1884 4.44773 19.6681 5 19.6681H17C17.5523 19.6681 18 19.1884 18 18.5967V5.73955C18 5.14784 17.5523 4.66812 17 4.66812ZM16 6.81098V16.9278C15.6132 15.4751 14.6901 14.2623 13.4743 13.5546C13.8056 13.0378 14 12.4126 14 11.7396C14 9.96727 12.6542 8.52534 11 8.52534C9.3458 8.52534 8 9.96727 8 11.7396C8 12.4126 8.1944 13.0378 8.52573 13.5546C7.30987 14.2623 6.38673 15.4752 5.99993 16.9279V6.81098H16ZM11 12.811C10.4486 12.811 10 12.3303 10 11.7396C10 11.1488 10.4486 10.6681 11 10.6681C11.5514 10.6681 12 11.1488 12 11.7396C12 12.3303 11.5514 12.811 11 12.811ZM11 15.0253C12.4641 15.0253 13.7008 16.0846 14.0797 17.5253H7.92033C8.2992 16.0847 9.53593 15.0253 11 15.0253Z" fill="#EF5D24"/>
<path d="M29.0225 7.43755H20.9209C20.3708 7.43755 19.9248 7.8573 19.9248 8.37505C19.9248 8.8928 20.3708 9.31256 20.9209 9.31256H29.0225C29.5726 9.31256 30.0186 8.8928 30.0186 8.37505C30.0186 7.8573 29.5726 7.43755 29.0225 7.43755Z" fill="#EF5D24"/>
<path d="M29.0225 11.1876H20.9209C20.3708 11.1876 19.9248 11.6074 19.9248 12.1251C19.9248 12.6429 20.3708 13.0626 20.9209 13.0626H29.0225C29.5726 13.0626 30.0186 12.6429 30.0186 12.1251C30.0186 11.6074 29.5726 11.1876 29.0225 11.1876Z" fill="#EF5D24"/>
<path d="M26.8311 15.8752C26.8311 15.3574 26.3851 14.9377 25.835 14.9377H20.9209C20.3708 14.9377 19.9248 15.3574 19.9248 15.8752C19.9248 16.3929 20.3708 16.8127 20.9209 16.8127H25.835C26.3851 16.8127 26.8311 16.3929 26.8311 15.8752Z" fill="#EF5D24"/>
</svg>
