<svg width="32" height="33" viewBox="0 0 32 33" fill="none" xmlns="http://www.w3.org/2000/svg">
<path d="M5.1996 24.1179C3.11285 24.1179 1.41699 22.2386 1.41699 19.9323C1.41699 17.6261 3.11285 15.7468 5.1996 15.7468H26.8007C28.8875 15.7468 30.5833 17.6261 30.5833 19.9323C30.5833 22.2386 28.8875 24.1179 26.8007 24.1179H5.1996Z" fill="#EF5D24"/>
<path d="M26.8006 16.1978C28.6378 16.1978 30.1322 17.8726 30.1322 19.9323C30.1322 21.992 28.6378 23.6668 26.8006 23.6668H5.19945C3.36227 23.6668 1.86787 21.992 1.86787 19.9323C1.86787 17.8726 3.36227 16.1978 5.19945 16.1978H26.8006ZM26.8006 15.2958H5.19945C2.87216 15.2958 0.96582 17.3825 0.96582 19.9323C0.96582 22.4821 2.87216 24.5689 5.19945 24.5689H26.8006C29.1309 24.5689 31.0342 22.4821 31.0342 19.9323C31.0342 17.3825 29.1279 15.2958 26.8006 15.2958Z" fill="#EF5D24"/>
<path d="M5.95727 19.4181C4.73048 19.4181 3.57585 18.8799 2.61968 17.8606C1.11325 16.261 0.310423 13.7052 0.472793 11.0261C0.692292 7.4389 2.97448 5.61977 7.25622 5.61977C10.69 5.61977 11.9138 9.22497 11.9138 12.5956C11.9138 16.3572 9.24374 19.4181 5.95727 19.4181Z" fill="#EF5D24"/>
<path d="M7.25612 6.07078C8.59417 6.07078 9.64355 6.66914 10.3682 7.85083C11.0718 8.99644 11.4627 10.6803 11.4627 12.5986C11.4627 16.1106 8.99408 18.9671 5.95717 18.9671C4.85967 18.9671 3.8163 18.477 2.94732 17.5539C1.52509 16.0415 0.767364 13.6119 0.923719 11.0561C1.12818 7.70049 3.1999 6.07078 7.25612 6.07078ZM7.25612 5.16873C3.71707 5.16873 0.301304 6.38049 0.0216675 10.999C-0.269996 15.8129 2.41812 19.8692 5.95717 19.8692C9.49622 19.8692 12.3647 16.6128 12.3647 12.5986C12.3647 8.5845 10.7952 5.16873 7.25612 5.16873Z" fill="#EF5D24"/>
<path d="M26.0425 19.4181C22.759 19.4181 20.0859 16.3572 20.0859 12.5986C20.0859 9.22496 21.3097 5.62277 24.7435 5.62277C29.0283 5.62277 31.3105 7.44191 31.527 11.0291C31.6893 13.7082 30.8865 16.264 29.3801 17.8636C28.4209 18.8799 27.2663 19.4181 26.0425 19.4181Z" fill="#EF5D24"/>
<path d="M24.7434 6.07078C28.8026 6.07078 30.8743 7.70049 31.0758 11.0531C31.2321 13.6119 30.4744 16.0415 29.0522 17.5509C28.1802 18.477 27.1398 18.9641 26.0423 18.9641C23.0054 18.9641 20.5368 16.1076 20.5368 12.5956C20.5368 10.6773 20.9247 8.99343 21.6313 7.84783C22.356 6.66914 23.4023 6.07078 24.7434 6.07078ZM24.7434 5.16873C21.2043 5.16873 19.6348 8.58149 19.6348 12.5956C19.6348 16.6098 22.5033 19.8662 26.0423 19.8662C29.5814 19.8662 32.2695 15.8099 31.9778 10.996C31.6952 6.38349 28.2824 5.16873 24.7434 5.16873Z" fill="#EF5D24"/>
<path d="M16.0002 32.6934C7.74646 32.6934 3.20312 27.281 3.20312 17.4487C3.20312 11.7207 4.06909 7.57723 5.84614 4.78087C7.89379 1.56356 11.2164 0 15.9972 0C20.7781 0 24.1007 1.56356 26.1483 4.78087C27.9284 7.57423 28.7913 11.7177 28.7913 17.4487C28.7973 27.278 24.254 32.6934 16.0002 32.6934Z" fill="#F8D8D4"/>
<path d="M9.67969 13.2812C9.67969 13.2812 12.2926 12.2468 15.9008 12.2468C19.509 12.2468 22.3234 13.2812 22.3234 13.2812" stroke="#EF5D24" stroke-miterlimit="10" stroke-linecap="round" stroke-linejoin="round"/>
<path d="M11.499 10.7524C11.499 10.7524 13.5948 10.0879 16.0003 10.0879C18.4057 10.0879 20.5015 10.7524 20.5015 10.7524" stroke="#EF5D24" stroke-miterlimit="10" stroke-linecap="round" stroke-linejoin="round"/>
<path d="M11.8382 24.2291L8.97266 27.0946" stroke="#EF5D24" stroke-miterlimit="10" stroke-linecap="round" stroke-linejoin="round"/>
<path d="M20.1611 24.2291L23.0267 27.0946" stroke="#EF5D24" stroke-miterlimit="10" stroke-linecap="round" stroke-linejoin="round"/>
<path d="M9.51777 21.1531C10.5939 21.1531 11.4662 20.2498 11.4662 19.1355C11.4662 18.0212 10.5939 17.1179 9.51777 17.1179C8.44168 17.1179 7.56934 18.0212 7.56934 19.1355C7.56934 20.2498 8.44168 21.1531 9.51777 21.1531Z" fill="#EF5D24"/>
<path d="M22.5227 21.1531C23.5987 21.1531 24.4711 20.2498 24.4711 19.1355C24.4711 18.0212 23.5987 17.1179 22.5227 17.1179C21.4466 17.1179 20.5742 18.0212 20.5742 19.1355C20.5742 20.2498 21.4466 21.1531 22.5227 21.1531Z" fill="#EF5D24"/>
<path d="M17.5243 22.8099C17.4838 22.7933 17.4414 22.7821 17.398 22.7768H14.6016C14.5595 22.7828 14.5174 22.7918 14.4753 22.8099C14.2228 22.9121 14.0814 23.1767 14.2017 23.4533C14.322 23.733 14.8783 24.5178 15.9998 24.5178C17.1214 24.5178 17.6776 23.733 17.7979 23.4533C17.9182 23.1737 17.7799 22.9121 17.5243 22.8099Z" fill="#EF5D24"/>
<path d="M19.3111 25.94C18.0512 26.6887 13.9258 26.6887 12.6659 25.94C11.9443 25.51 11.2046 26.1685 11.5053 26.824C11.8 27.4705 14.0521 28.9679 16.0005 28.9679C17.946 28.9679 20.171 27.4705 20.4657 26.824C20.7634 26.1655 20.0357 25.51 19.3111 25.94Z" fill="#EF5D24"/>
<path d="M6.55513 15.3499C6.55513 15.3499 6.60624 15.2747 6.70547 15.1514C6.73253 15.1214 6.75358 15.0883 6.78966 15.0492C6.83175 15.0071 6.87986 14.965 6.93399 14.9169C6.98811 14.8718 7.04223 14.8207 7.10237 14.7696C7.16251 14.7215 7.22264 14.6824 7.28879 14.6343C7.35494 14.5892 7.4241 14.5411 7.49627 14.496C7.57144 14.4539 7.64961 14.4118 7.7308 14.3697C7.81198 14.3246 7.89918 14.2885 7.98939 14.2524C8.07959 14.2163 8.1728 14.1802 8.26602 14.1472C8.45845 14.093 8.65991 14.0329 8.86738 14.0089C9.07486 13.9698 9.28834 13.9668 9.50183 13.9547C9.71531 13.9668 9.9288 13.9698 10.1363 14.0089C10.3467 14.0329 10.5452 14.096 10.7376 14.1472C10.8339 14.1802 10.9241 14.2163 11.0143 14.2524C11.1045 14.2855 11.1917 14.3246 11.2729 14.3697C11.354 14.4118 11.4322 14.4539 11.5074 14.496C11.5826 14.5411 11.6487 14.5892 11.7149 14.6343C11.781 14.6824 11.8442 14.7215 11.8983 14.7696C11.9524 14.8177 12.0035 14.8628 12.0516 14.9079C12.0997 14.95 12.1448 14.9891 12.1839 15.0312C12.223 15.0703 12.2561 15.1124 12.2862 15.1454C12.4064 15.2868 12.4666 15.3709 12.4666 15.3709C12.665 15.6476 12.6019 16.0294 12.3283 16.2279C12.1599 16.3482 11.9524 16.3722 11.769 16.3121L11.6547 16.273C11.6547 16.273 11.5796 16.2459 11.4623 16.1948C11.4322 16.1828 11.4021 16.1648 11.3661 16.1527C11.327 16.1407 11.2909 16.1257 11.2488 16.1106C11.1676 16.0776 11.0774 16.0445 10.9752 16.0144C10.9241 15.9994 10.876 15.9783 10.8218 15.9633C10.7677 15.9513 10.7106 15.9362 10.6534 15.9212C10.6264 15.9122 10.5963 15.9062 10.5662 15.8971L10.476 15.8791C10.4159 15.8701 10.3558 15.852 10.2926 15.84C10.1633 15.825 10.037 15.7979 9.90174 15.7919C9.76944 15.7739 9.63112 15.7799 9.49581 15.7709C9.36051 15.7769 9.2252 15.7739 9.08989 15.7919C8.95458 15.7979 8.8283 15.825 8.699 15.84C8.63586 15.852 8.57572 15.8671 8.51558 15.8791L8.42538 15.8971C8.39531 15.9062 8.36825 15.9122 8.33818 15.9212C8.28105 15.9362 8.22392 15.9513 8.1698 15.9633C8.11567 15.9783 8.06456 15.9994 8.01645 16.0144C7.96533 16.0294 7.91722 16.0445 7.87212 16.0595C7.83303 16.0745 7.79394 16.0866 7.75786 16.0986C7.72178 16.1106 7.6857 16.1227 7.65262 16.1317C7.61353 16.1467 7.57444 16.1708 7.53836 16.1888C7.40005 16.261 7.31285 16.294 7.31285 16.294C6.99112 16.4294 6.62128 16.276 6.48597 15.9513C6.40779 15.7468 6.44087 15.5213 6.55513 15.3499Z" fill="#EF5D24"/>
<path d="M24.7195 16.291C24.7195 16.291 24.6353 16.255 24.494 16.1858C24.4609 16.1708 24.4188 16.1437 24.3798 16.1287C24.3437 16.1197 24.3106 16.1076 24.2745 16.0956C24.2384 16.0836 24.1993 16.0685 24.1602 16.0565C24.1151 16.0415 24.067 16.0264 24.0159 16.0114C23.9648 15.9964 23.9167 15.9753 23.8626 15.9603C23.8085 15.9453 23.7513 15.9332 23.6942 15.9182C23.6671 15.9092 23.6371 15.9032 23.607 15.8941L23.5168 15.8761C23.4566 15.8671 23.3965 15.849 23.3334 15.837C23.2041 15.822 23.0778 15.7949 22.9425 15.7889C22.8102 15.7709 22.6719 15.7769 22.5366 15.7679C22.4012 15.7739 22.2659 15.7709 22.1306 15.7889C21.9953 15.7949 21.869 15.822 21.7397 15.837C21.6766 15.849 21.6165 15.8641 21.5563 15.8761L21.4661 15.8941C21.4361 15.9032 21.409 15.9092 21.3789 15.9182C21.3218 15.9332 21.2647 15.9483 21.2105 15.9603C21.1564 15.9753 21.1053 15.9964 21.0572 16.0114C20.955 16.0415 20.8648 16.0745 20.7836 16.1076C20.7415 16.1227 20.7054 16.1377 20.6663 16.1497C20.6302 16.1648 20.6002 16.1798 20.5701 16.1918C20.4528 16.2459 20.3776 16.27 20.3776 16.27L20.2664 16.3091C19.9447 16.4203 19.5959 16.252 19.4846 15.9302C19.4155 15.7348 19.4545 15.5243 19.5658 15.3679C19.5658 15.3679 19.6259 15.2838 19.7462 15.1424C19.7763 15.1094 19.8094 15.0673 19.8484 15.0282C19.8875 14.9891 19.9326 14.95 19.9807 14.9049C20.0289 14.8628 20.08 14.8147 20.1341 14.7666C20.1912 14.7185 20.2544 14.6794 20.3175 14.6313C20.3837 14.5862 20.4528 14.5381 20.525 14.493C20.6002 14.4509 20.6783 14.4118 20.7595 14.3667C20.8407 14.3216 20.9279 14.2855 21.0181 14.2494C21.1083 14.2133 21.1985 14.1772 21.2947 14.1442C21.4872 14.09 21.6886 14.0299 21.8961 14.0058C22.1036 13.9668 22.3171 13.9637 22.5305 13.9517C22.744 13.9637 22.9575 13.9637 23.165 14.0058C23.3755 14.0299 23.5739 14.093 23.7664 14.1442C23.8626 14.1772 23.9528 14.2133 24.043 14.2494C24.1332 14.2825 24.2204 14.3216 24.3016 14.3667C24.3828 14.4088 24.4609 14.4509 24.5361 14.493C24.6113 14.5381 24.6774 14.5862 24.7436 14.6313C24.8097 14.6794 24.8699 14.7185 24.93 14.7666C24.9901 14.8177 25.0443 14.8688 25.0984 14.9139C25.1495 14.962 25.2006 15.0041 25.2427 15.0462C25.2788 15.0853 25.2998 15.1184 25.3269 15.1484C25.4231 15.2717 25.4772 15.3469 25.4772 15.3469C25.6727 15.6356 25.6005 16.0294 25.3119 16.2249C25.1345 16.3542 24.909 16.3662 24.7195 16.291Z" fill="#EF5D24"/>
</svg>
