<svg width="32" height="35" viewBox="0 0 32 35" fill="none" xmlns="http://www.w3.org/2000/svg">
<path d="M1.14258 19.4286H30.8569C30.8569 3.42857 28.5711 0 15.9997 0C3.42829 0 1.14258 3.42857 1.14258 19.4286Z" fill="#EF5D24"/>
<path d="M29.6 15.9429C29.4857 16.5714 29.3714 17.1429 29.2 17.4857C28.8571 18.0571 28.2286 18.4 28.2286 18.4C28.2286 18.4 28.4 17.2 28.3429 15.5429C27.6571 5.60001 27.0857 8.34286 16 8.34286C4.91429 8.34286 4.34286 5.60001 3.65714 15.4857C3.6 17.1429 3.77143 18.4 3.77143 18.4C3.77143 18.4 3.14286 18.0571 2.8 17.4857C2.62857 17.1429 2.51429 16.5714 2.4 15.9429C1.37143 15.6572 0 15.8857 0 18.8572C0 20.6857 0.685714 22.2286 3.02857 22.4C3.77143 28.2286 7.2 31.2 12.8571 33.7714C14.4 34.4571 17.6 34.4571 19.1429 33.7714C24.8571 31.2 28.2286 28.2286 28.9714 22.4C31.3143 22.2286 32 20.7429 32 18.8572C32 15.8857 30.6286 15.6572 29.6 15.9429Z" fill="#F8D8D4"/>
<path d="M21.1431 26.8C21.1431 28.7428 18.5717 29.7143 16.0003 29.7143C13.4289 29.7143 10.8574 28.7428 10.8574 26.8C10.8574 26.8 10.8574 26.2857 11.3717 26.2857H20.6288C21.1431 26.2857 21.1431 26.8 21.1431 26.8Z" fill="#EF5D24"/>
<path d="M9.14258 15.2C6.28544 15.2 5.14258 16.2286 5.14258 17.2572C5.14258 18.2857 5.14258 19.7714 8.91401 19.7714C12.5712 19.7714 13.1426 19.3143 13.1426 17.7714C13.1426 16.7429 11.9997 15.2 9.14258 15.2Z" fill="#F5F5F5"/>
<path d="M9.42885 19.4857C10.849 19.4857 12.0003 18.3345 12.0003 16.9143C12.0003 15.4941 10.849 14.3429 9.42885 14.3429C8.00869 14.3429 6.85742 15.4941 6.85742 16.9143C6.85742 18.3345 8.00869 19.4857 9.42885 19.4857Z" fill="#EF5D24"/>
<path d="M10.2856 16.9143C10.2856 17.3714 9.88557 17.7714 9.42843 17.7714C8.97129 17.7714 8.57129 17.3714 8.57129 16.9143C8.57129 16.4571 8.97129 16.0571 9.42843 16.0571C9.88557 16.0571 10.2856 16.4571 10.2856 16.9143Z" fill="white"/>
<path d="M5.14258 17.2C5.14258 13.2 13.1426 13.2 13.1426 17.7714C11.9997 14.3429 6.28544 14.3429 5.14258 17.2Z" fill="#EF5D24"/>
<path d="M22.8574 15.2C25.7146 15.2 26.8574 16.2286 26.8574 17.2572C26.8574 18.2857 26.8574 19.7714 23.086 19.7714C19.4289 19.7714 18.8574 19.3143 18.8574 17.7714C18.8574 16.7429 20.0003 15.2 22.8574 15.2Z" fill="#F5F5F5"/>
<path d="M22.5714 19.4857C23.9916 19.4857 25.1429 18.3345 25.1429 16.9143C25.1429 15.4941 23.9916 14.3429 22.5714 14.3429C21.1513 14.3429 20 15.4941 20 16.9143C20 18.3345 21.1513 19.4857 22.5714 19.4857Z" fill="#EF5D24"/>
<path d="M21.7148 16.9143C21.7148 17.3714 22.1148 17.7714 22.572 17.7714C23.0291 17.7714 23.4291 17.3714 23.4291 16.9143C23.4291 16.4571 23.0291 16.0571 22.572 16.0571C22.1148 16.0571 21.7148 16.4571 21.7148 16.9143Z" fill="white"/>
<path d="M26.8574 17.2C26.8574 13.2 18.8574 13.2 18.8574 17.7714C20.0003 14.3429 25.7146 14.3429 26.8574 17.2Z" fill="#EF5D24"/>
<path d="M16.0006 24.5714C13.6006 24.5714 12.4006 22.8571 13.6006 22.8571H18.4006C19.6006 22.8571 18.4006 24.5714 16.0006 24.5714Z" fill="#EF5D24"/>
</svg>
