<svg id="Layer_1" data-name="Layer 1" xmlns="http://www.w3.org/2000/svg" viewBox="0 0 1043.29 1062.81"><defs><style>.cls-1{fill:#ebf3ff;}.cls-2{fill:#f0dccf;}.cls-3{fill:#ec3125;}.cls-4{fill:#272727;}.cls-5{fill:#42dd9a;}.cls-6{fill:#2b0f54;}.cls-7{fill:#2f1154;}.cls-8{fill:#2d1254;}.cls-9{fill:#40d095;}.cls-10{fill:#ed4135;}.cls-11{fill:#f0baad;}.cls-12{fill:#ee5e52;}.cls-13{fill:#3bd494;}.cls-14{fill:#3bd595;}</style></defs><title>about1</title><path class="cls-1" d="M603,224.63c17.19-7.95,34.46-15.69,52.21-22.31,9-3.35,17.85-7.08,27-10A363.09,363.09,0,0,1,725.71,181c6.06-1.18,12.48-.68,18.46-2.09,7.51-1.78,15-1.13,22.47-1.31,13.81-.32,27.3,2,40.68,5.16,8.88,2.08,17.14,5.77,25.47,9.41,11,4.8,20.89,11.38,30.46,18.5a45.46,45.46,0,0,1,4.66,4.12c4.26,4.2,8.46,8.47,12.71,12.68a163.75,163.75,0,0,1,23.74,29.64c5.93,9.47,11.79,18.94,16.54,29.06,7.49,16,14.26,32.23,18.68,49.39,1.94,7.52,4.59,14.86,6.3,22.42,2.29,10.07,4.07,20.24,5.89,30.4,1.64,9.14,3.43,18.28,4.44,27.5a203.51,203.51,0,0,0,6.42,34.23,124.33,124.33,0,0,0,5.53,16.14,179,179,0,0,0,16.89,30.66c6.4,9.1,13.18,17.94,20,26.71,10.52,13.5,20.61,27.3,29,42.22,4.43,7.91,7.7,16.46,11.79,24.57,4.82,9.57,7.47,19.9,11,29.92,3.37,9.56,5.4,19.44,7.25,29.36,1.66,8.88,3.51,17.77,3.22,26.89,2.81,11,1.08,22.24,1.49,33.37.13,3.61.35,7.26-1.13,10.77a9.7,9.7,0,0,0-.37,3.86c.26,9.42-2.18,18.45-3.94,27.57-4,20.54-11.66,39.75-21.27,58.22a175.79,175.79,0,0,1-15.65,24.09,216.06,216.06,0,0,1-24.21,27.34,253.28,253.28,0,0,1-22.79,18.7c-16.72,12.54-35.29,21.82-54,30.83a171.32,171.32,0,0,1-18,7.35c-13.7,4.76-27.27,9.9-41.4,13.37-10.3,2.53-20.48,5.56-30.79,8-12.81,3.08-25.62,6.28-38.58,8.57-10.94,1.93-21.82,4.13-32.7,6.32-9.11,1.84-18.3,3.22-27.44,4.88-7.87,1.43-15.71,3-23.59,4.42a51.3,51.3,0,0,1-6.22.34c-.75-3-.9-6.28-2.4-8.79-2.79-4.66-3.08-9.71-3.67-14.77-.23-2-.18-4.1-.26-6.15,4.23-1.55,8.63-1.55,13.06-1.55,5.45,0,11,.37,16.34-.46a58.7,58.7,0,0,1,10.79-1c8.6.28,15.8-4.49,18.61-13.57,1.3-4.21,2.57-8.44,3.5-12.74,3.55-16.41,8.06-32.62,10.83-49.22,1.06-6.37,2.28-12.71,3.23-19.1,1.29-8.69,2.36-17.41,3.58-26.1.86-6.14,1.81-12.26,2.71-18.38.53-3.58,1.17-7.14,1.52-10.74.67-7,.51-14,1.92-20.84,1.51-7.26,1-14.47,1.3-21.7a76.49,76.49,0,0,1,.66-10.07,12.11,12.11,0,0,0-.12-6.07,17.63,17.63,0,0,1-.52-4.61c-.51-15,.65-30.07-1.39-45.11-1.17-8.66.23-17.62-1.62-26.33,4.49-3.4,6-8.27,6.27-13.54a20.17,20.17,0,0,1,2.21-9,11.31,11.31,0,0,0,.63-2.92,16,16,0,0,0-2.37-1c-4.36-1-6.47-4-7.43-8.12-.41-1.76-.72-3.55-1-5.33-3.75-21.74-7.36-43.51-11.28-65.21-2.36-13.08-5.93-25.8-13.66-36.93-.33-.63-.66-1.25-1-1.88l.12-.09c-.86-2.16-1.61-4.38-2.61-6.48-4.58-9.61-9.1-19.25-13.89-28.75q-7.54-14.94-15.59-29.64a131.47,131.47,0,0,0-25.94-32.92c-3.8-3.54-7.66-7-11.5-10.52a44.48,44.48,0,0,1-9.63-12.14c-3.15-6-6.51-11.84-9.66-17.8-8.35-15.77-14-32.27-15.16-50.31-.7-10.88-3.58-21.47-7.37-31.76-3.29-8.95-8.13-16.65-15.64-22.81C618.5,250.45,609.65,238.35,603,224.63Z" transform="translate(-25.69 -17.19)"/><path class="cls-2" d="M784.82,647.27c1.85,8.71.45,17.67,1.62,26.33,2,15,.88,30.08,1.39,45.11a17.63,17.63,0,0,0,.52,4.61,12.11,12.11,0,0,1,.12,6.07,76.49,76.49,0,0,0-.66,10.07c-.32,7.23.21,14.44-1.3,21.7-1.41,6.79-1.25,13.89-1.92,20.84-.35,3.6-1,7.16-1.52,10.74-.9,6.12-1.85,12.24-2.71,18.38-1.22,8.69-2.29,17.41-3.58,26.1-.95,6.39-2.17,12.73-3.23,19.1-2.77,16.6-7.28,32.81-10.83,49.22-.93,4.3-2.2,8.53-3.5,12.74-2.81,9.08-10,13.85-18.61,13.57a58.7,58.7,0,0,0-10.79,1c-5.34.83-10.89.47-16.34.46-4.43,0-8.83,0-13.06,1.55-8.35-.14-16.71-.4-25,1.29-2.32,0-4.64-.16-7-.05a308,308,0,0,1-38.19-.13c-24.35-1.87-48.7-3.77-73-6-9.82-.89-19.62-2.3-29.33-4-17.63-3.16-35.15-7-53-9.1-18.81-2.26-37.6-4.69-56.4-7a5.42,5.42,0,0,0-1.64.38,15.42,15.42,0,0,0-1.56,1.5c-3.74,4.71-8.69,6.26-14.52,5.85-9.11-.64-18.15-1.48-26.19-6.15a72.43,72.43,0,0,0-17,6c-3.25,1.53-6.77,2.5-10.17,3.73a24.88,24.88,0,0,0-3.86,0,120.86,120.86,0,0,1-23.2,1.16,14.84,14.84,0,0,0-3.73.8,13.05,13.05,0,0,0-3-2.19,9.94,9.94,0,0,1-5.14-4.36c-1.59-2.57-2.14-5.14-.36-7.89a34.11,34.11,0,0,0,1.76-3.4c2.61-1.12,5.19-2.31,7.83-3.36,5.49-2.17,5.81-3.76,1.55-8.24-1.61-1.7-3.23-3.38-4.95-5-2-1.87-2.72-4.09-3-6.86-1-9.47-3.83-18.72-3.4-28.37,0-.72-.58-1.45-.72-2.2-1.61-8.67-1.11-16.59,7.73-21.52.41-.23.61-.81.89-1.21a21.74,21.74,0,0,0-.05-4.64c-3.33-14.85-6.83-29.65-10.13-44.51-1.89-8.56-3.47-17.19-5.23-25.78-2.38-11.61-4.84-23.21-7.18-34.84-2.39-11.88-4.67-23.78-7-35.67-.74-3.83-1.5-7.64-2.21-11.47-2.62-14-1.89-11.22,4.69-20.65a9.53,9.53,0,0,1,1.76-1.54c2.84-.34,5.67-.72,8.51-1,6.18-.61,12.29-1.22,18.18-3.72a24.56,24.56,0,0,1,13.81-1.35,122.25,122.25,0,0,0,25.64,1.24c7.06-.28,13.93.83,20.83,2.31,6.38,1.37,11.38,4.78,15.93,9.2a14.6,14.6,0,0,1,4.39,8c1.25,6.63,2.81,13.2,4.32,19.78.4,1.72,1.07,3.38,1.93,6,1.6-3.09,2.89-5.26,3.9-7.57,6.54-15,13.13-29.95,19.48-45C431,629,434.4,620.57,437.33,612c4.53-13.25,8.45-26.72,13-40a31,31,0,0,0,1.49-14.55,135.38,135.38,0,0,0-3.28-14.39c-.54-2.14-2.24-3.43-4.16-4.39a10.51,10.51,0,0,0-2-8.81c-1.89-2.48-3.69-5-5.47-7.59-3.56-5.11-7.18-10.19-10.6-15.39-5.28-8-9.64-16.61-15.58-24.24-3.69-4.73-6.26-10.15-5.73-16.58a14.42,14.42,0,0,0-.91-6.09c-3.8-10.06-5-20.67-6.69-31.17-.74-4.62-1.14-9.28-1.71-13.92-.45-3.6,1.14-6,4.35-7.44,1.65-.76,3.29-1.55,4.88-2.42,3.39-1.86,7.16-3,10.27-5.57a12.9,12.9,0,0,0-.31-2.33c-3.76-11.6-6.78-23.46-12.5-34.36a74.58,74.58,0,0,1-4.28-10c-1.86-5.34-3.13-10.81-2.09-16.58l3,.47c-.24-1.37-.51-2.6-.66-3.84-.41-3.32-1.26-6.68-1-10a38.93,38.93,0,0,1,4.86-17.08c2.33-4.05,4.44-8.23,6.54-12.41a25.35,25.35,0,0,0,3-12.75,15.55,15.55,0,0,1,1-6.08c2.76-7.23,6.88-13.4,14.23-16.78,1.65-.76,3.29-1.57,4.89-2.44,5-2.73,8.51-6.71,9.79-12.44.46-2,1.15-4,1.76-6,2.37-7.66,7.39-12.39,15.39-13.67,6.72-1.07,12-4.69,16.85-9.16a31.2,31.2,0,0,0,3.68-4c1.91-2.49,4.65-3.34,7.49-3.57,2.3-.18,3.56,1.81,4.86,3.45,1,1.3,2.29,2.13,4.05,1.36l.15.06c-1.77,1.18-1.77,1.18,0,3.08,0,.47.22.69.69.69,1.13,1.08,2.2,2.33,4.05,1.63l-.14-.12c-.28,1.39.82,1.85,1.66,2.48l4.56,2.3,4.83.82c2.54,1.49,5.24.92,7.92.61,2-.5,4-1.08,6-1.47,3.47-.67,6.13.8,8,3.64a46.9,46.9,0,0,1,2.24,4.93c1.58,3.25,2.88,6.71,4.91,9.65,5.29,7.68,10.68,15.33,16.51,22.6a63.47,63.47,0,0,0,10.75,10,23.13,23.13,0,0,1,7,8.15,87,87,0,0,1,4.81,10.61c3.49,10.57,6.67,21.24,10,31.88-1,5.37-2.08,10.69-5.07,15.42a8.33,8.33,0,0,0-.81,8.17c.66,1.45,1.71,2.71,3.55,1.25-1.41-5.23-1.59-5.34.73-9.48a29.18,29.18,0,0,0,3.64-14.93,22.66,22.66,0,0,0,2.67-12,44.79,44.79,0,0,1,.06-6.24,10.47,10.47,0,0,1,8.34-9.15c3.66-.8,6.85,1,7.51,4.79a46.51,46.51,0,0,1,.67,9.28c-.47,18.83-5.58,36.92-9,55.27a9.45,9.45,0,0,1-7.73,7.88,13.27,13.27,0,0,1-4.56.5,20.33,20.33,0,0,1-4.48-1.82c-3.64,8.77-7.05,17.17-10.63,25.5a82.57,82.57,0,0,1-24.76,32.54,28.73,28.73,0,0,0-5.49,5.47,86.89,86.89,0,0,0-14.35,32.54,24.86,24.86,0,0,0,3.07,18.68c1.56,2.7,3.12,5.41,4.45,8.22a7.5,7.5,0,0,1-.71,8.11c-1.85,2.51-3.67,5-5.4,7.63-6.1,9.1-9.76,19-8.77,30.09,1.28,14.32,5.85,27.37,15.91,38.09,2.14,2.27,4.13,4.67,6.21,7q10.9,12.21,21.83,24.41c8.27,9.24,19,13.2,31,14.27-1.47,2.09-2.63,4.52-4.47,6.22a282.64,282.64,0,0,1-38.77,30.13c-6.7,4.32-13.73,4.47-20.87,1.69a164.52,164.52,0,0,1-26.64-12.93,37.66,37.66,0,0,0-4.26-1.93c-.68,3.28-1.34,6.06-1.83,8.86q-2.7,15.36-5.3,30.74-7.61,45-15.18,90c-2.63,15.64-5.17,31.29-7.87,46.92-.7,4-1.88,8-2.91,12.32,1.91.15,3.44.38,5,.37,6,0,12-.17,17.95-.19,13.79-.05,27.55-.78,41.27-2.07L553.59,833l14.75-.83q33.84-1.83,67.7-3.67,13.22-.72,26.44-1.64A43.33,43.33,0,0,0,673.8,825c.53-14.47.89-28.48,1.6-42.46.48-9.6,1.17-19.2,2.27-28.73,1.34-11.6,3.65-23.1,4.73-34.71,1.29-14,1.82-28-.44-42-1-6.14-1.29-12.4-1.74-18.61a36,36,0,0,1,.46-5.54c13-4.5,25.67-8.95,38.41-13.35a30.32,30.32,0,0,1,4.55-1q26.08-4.56,52.17-9.06c2.77-.48,5.55-.79,8.44.38C784.45,635.91,784.63,641.59,784.82,647.27ZM424.54,422.33a38,38,0,0,1,2.78,16.83,1.2,1.2,0,0,0,.17.74c.48.55.95,1.34,1.56,1.5a2.43,2.43,0,0,0,2.1-.53c2.55-3.53,5-7.15,7.57-11-2.09-2.35-4.06-4.36-5.79-6.56C430.78,420.62,428.28,420.56,424.54,422.33Zm-25.69-83.1c.49,1.66,1,3.31,1.44,5,.35,1.49.52,3,.76,4.54s-.49,3.37,1.08,5.05C404.22,347.61,403.73,344.91,398.85,339.23Z" transform="translate(-25.69 -17.19)"/><path class="cls-1" d="M286.32,683.13c2.33,11.89,4.61,23.79,7,35.67,2.34,11.63,4.8,23.23,7.18,34.84,1.76,8.59,3.34,17.22,5.23,25.78,3.3,14.86,6.8,29.66,10.13,44.51a21.74,21.74,0,0,1,.05,4.64c-.28.4-.48,1-.89,1.21-8.84,4.93-9.34,12.85-7.73,21.52.14.75.76,1.48.72,2.2-.43,9.65,2.41,18.9,3.4,28.37.28,2.77,1,5,3,6.86,1.72,1.58,3.34,3.26,4.95,5,4.26,4.48,3.94,6.07-1.55,8.24-2.64,1.05-5.22,2.24-7.83,3.36-7.64-1.24-15.32-2.27-22.91-3.77-21.58-4.24-42.95-9.34-64.21-15-18.55-4.9-36.91-10.3-54.68-17.69a281.57,281.57,0,0,1-41.33-21.65,77.74,77.74,0,0,1-9.19-7.14C109.42,833,101.2,826,94.32,817.35,88.5,810,82.69,802.76,77.61,794.94a289,289,0,0,1-25.42-49.87,351.54,351.54,0,0,1-16.4-54.25c-2.26-10.06-3.7-20.32-5.4-30.5-1.1-6.61-2-13.25-2.93-19.9a56.16,56.16,0,0,1-.16-6.23c-.07-3.89.18-7.75-1.18-11.57-.67-1.87-.36-4.11-.37-6.19,0-10.93,0-21.86,0-32.79,0-4.91-.38-9.83,1.26-14.67.64-1.89.23-4.13.29-6.21.12-4.65-.52-9.37,1.31-13.87a6.14,6.14,0,0,0,.22-2.32c0-7.54,2-14.84,2.74-22.26,1.28-12.65,4.64-24.88,6.75-37.36a128.3,128.3,0,0,1,3.6-15.09c3.9-13.17,7.69-26.38,12.13-39.37,3.69-10.78,8-21.38,12.48-31.86,4.21-9.77,9-19.31,13.64-28.87a246.29,246.29,0,0,1,24.71-39.51,201.37,201.37,0,0,1,29.43-31.08c17.66-15.26,38-26.07,60.22-33.28a241.16,241.16,0,0,1,30.13-7.28c6.07-1.14,12.39-.91,18.5-1.91,18.36-3,36.83-.73,55.23-1.47a11.46,11.46,0,0,1,3.89.12c6.34,2.11,12.88,1.12,19.33,1.49,4.37.25,8.71,1.16,13.08,1.45s8.72.2,13.12,1.23c4,.92,8.27.39,12.43.51-2.31,8.5-5.39,16.84-5.83,25.77-.29,6-.61,11.95-1,17.92-1,13.48-.64,27-2.64,40.48-1.32,8.85-3.81,17.13-8.89,24.7a98.53,98.53,0,0,0-13.95,32.86c-3.15,13.47-3.36,26.76,1.93,39.85,1.46,3.6,2.39,7.42,3.56,11.13,2.66,8.45.73,15.84-4.94,22.52s-11.24,13.65-16.84,20.49c-2.24,1.25-4.73,2.21-6.68,3.82-9.86,8.11-18.76,17.16-25.51,28.11a54.26,54.26,0,0,0-8.51,31.05c.18,4.66.18,9.35.58,14q2.31,26.76,4.86,53.48c.64,6.76.86,13.51-.68,20.14-1,4.26-2.88,8.31-3.89,12.57-2.76,11.74-3.27,10.24,5.34,16.92,2.25,1.74,4.58,3.4,7,5C284.64,683.17,285.56,683,286.32,683.13Z" transform="translate(-25.69 -17.19)"/><path class="cls-3" d="M311.6,497.75c5.6-6.84,11.13-13.75,16.84-20.49s7.6-14.07,4.94-22.52c-1.17-3.71-2.1-7.53-3.56-11.13-5.29-13.09-5.08-26.38-1.93-39.85a98.53,98.53,0,0,1,13.95-32.86c5.08-7.57,7.57-15.85,8.89-24.7,2-13.43,1.68-27,2.64-40.48.43-6,.75-11.94,1-17.92.44-8.93,3.52-17.27,5.83-25.77,1.73-3.46,3.41-6.94,5.19-10.38A217.36,217.36,0,0,1,395,207.91a102.34,102.34,0,0,0,7.4-10,250.35,250.35,0,0,1,20.94-27.08c13.74-15.22,31.32-21.56,51.18-23a8.73,8.73,0,0,1,3.1,0c4.82,1.51,9,.23,13.24-2.17,1.83-1,4.53-.77,6.82-.67a102.61,102.61,0,0,1,12.39,1.14A59.16,59.16,0,0,1,520.55,149c6.09,2.22,12.07,4.74,18.09,7.14a42.38,42.38,0,0,1,13,8.41c6.1,5.62,12,11.46,17.92,17.29a184,184,0,0,1,30.63,39.12,37.4,37.4,0,0,0,2.76,3.7c6.67,13.72,15.52,25.82,27.33,35.51C637.82,266.3,642.66,274,646,283c3.79,10.29,6.67,20.88,7.37,31.76,1.17,18,6.81,34.54,15.16,50.31,3.15,6,6.51,11.83,9.66,17.8A44.48,44.48,0,0,0,687.77,395c3.84,3.5,7.7,7,11.5,10.52a131.47,131.47,0,0,1,25.94,32.92q8.07,14.67,15.59,29.64c4.79,9.5,9.31,19.14,13.89,28.75,1,2.1,1.75,4.32,2.6,6.48-.89-.36-2.06-.47-2.63-1.12-2.57-2.93-5-6-7.43-9a67.3,67.3,0,0,0-13.48-12.9,386.43,386.43,0,0,0-34.1-22,10.58,10.58,0,0,0-2.63-.5,169.18,169.18,0,0,0,5.86,18.1,86.32,86.32,0,0,1,3.69,11.88,117.33,117.33,0,0,1,2,32.52,165.74,165.74,0,0,1-10.11,46.31c-6,16.1-17.11,27.66-32.46,35.29a21.36,21.36,0,0,1-15.18,1.56,75.57,75.57,0,0,1-9.62-3.14c-2.45-1-5.33-1.39-7.47-4,4.67-2.71,9.93-3.52,14-7.21L641.52,588c10-8,16.83-17.87,24.12-27.31a31.94,31.94,0,0,0,6.66-18.85c.22-7.8,0-15.61-.35-23.4a25.87,25.87,0,0,0-1.57-7.61c-1.26-3.53-3.46-6.29-8.25-6.65.41,4.19.38,8.1,1.25,11.79a29.43,29.43,0,0,1-2,19.05c-5.54,12.61-11.19,25.19-17.21,37.58A45.45,45.45,0,0,1,628,591.31c-4.3,2.78-7.52,6.15-9.35,11a18.73,18.73,0,0,1-2.81,4.67c-5.19,6.79-9.76,14.28-18.46,17.34-12-1.07-22.72-5-31-14.27q-10.9-12.21-21.83-24.41c-2.08-2.33-4.07-4.73-6.21-7-10.06-10.72-14.63-23.77-15.91-38.09-1-11.08,2.67-21,8.77-30.09,1.73-2.59,3.55-5.12,5.4-7.63a7.5,7.5,0,0,0,.71-8.11c-1.33-2.81-2.89-5.52-4.45-8.22a24.86,24.86,0,0,1-3.07-18.68,86.89,86.89,0,0,1,14.35-32.54,28.73,28.73,0,0,1,5.49-5.47,82.57,82.57,0,0,0,24.76-32.54c3.58-8.33,7-16.73,10.63-25.5a20.33,20.33,0,0,0,4.48,1.82,13.27,13.27,0,0,0,4.56-.5,9.45,9.45,0,0,0,7.73-7.88c3.41-18.35,8.52-36.44,9-55.27a46.51,46.51,0,0,0-.67-9.28c-.66-3.75-3.85-5.59-7.51-4.79a10.47,10.47,0,0,0-8.34,9.15,44.79,44.79,0,0,0-.06,6.24,22.66,22.66,0,0,1-2.67,12l-2-.43c-3.31-10.64-6.49-21.31-10-31.88a87,87,0,0,0-4.81-10.61,23.13,23.13,0,0,0-7-8.15,63.47,63.47,0,0,1-10.75-10c-5.83-7.27-11.22-14.92-16.51-22.6-2-2.94-3.33-6.4-4.91-9.65a46.9,46.9,0,0,0-2.24-4.93c-1.82-2.84-4.48-4.31-8-3.64-2,.39-4,1-6,1.47-1-2.26-2.3-4-5-4.38-4.21-.6-7.8-2.65-11.29-5a34.84,34.84,0,0,0-5.45-2.93c-.46-.2-1.3.46-2,.73-1.76.77-3-.06-4.05-1.36-1.3-1.64-2.56-3.63-4.86-3.45-2.84.23-5.58,1.08-7.49,3.57a31.2,31.2,0,0,1-3.68,4c-4.83,4.47-10.13,8.09-16.85,9.16-8,1.28-13,6-15.39,13.67-.61,2-1.3,4-1.76,6-1.28,5.73-4.75,9.71-9.79,12.44-1.6.87-3.24,1.68-4.89,2.44-7.35,3.38-11.47,9.55-14.23,16.78a15.55,15.55,0,0,0-1,6.08,25.35,25.35,0,0,1-3,12.75c-2.1,4.18-4.21,8.36-6.54,12.41a38.93,38.93,0,0,0-4.86,17.08c-.22,3.29.63,6.65,1,10,.15,1.24.42,2.47.66,3.84l-3-.47c-1,5.77.23,11.24,2.09,16.58a74.58,74.58,0,0,0,4.28,10c5.72,10.9,8.74,22.76,12.5,34.36a12.9,12.9,0,0,1,.31,2.33c-3.11,2.54-6.88,3.71-10.27,5.57-1.59.87-3.23,1.66-4.88,2.42-3.21,1.47-4.8,3.84-4.35,7.44.57,4.64,1,9.3,1.71,13.92,1.67,10.5,2.89,21.11,6.69,31.17a14.42,14.42,0,0,1,.91,6.09c-.53,6.43,2,11.85,5.73,16.58,5.94,7.63,10.3,16.22,15.58,24.24,3.42,5.2,7,10.28,10.6,15.39,1.78,2.56,3.58,5.11,5.47,7.59a10.51,10.51,0,0,1,2,8.81c-1.11,3.72-1.89,7.58-3.39,11.13-2.73,6.45-6,12.69-8.84,19.09a168.4,168.4,0,0,0-6.8,16.56c-2.82,8.7-3.19,17.37,2.61,25.3.38.53.23,1.44.38,2.57-2,0-3.79.08-5.57,0q-3.11-.18-6.2-.61a37.13,37.13,0,0,1-5.35-1,60.77,60.77,0,0,1-5.84-2.12c-1.53-.6-2.75-2.16-5-1.74.3,8.26,5.79,13.78,9,20.57-9.82-3.16-16.67-10.65-24.51-16.66-.49.85-1,1.31-.92,1.67,1.65,8.94,8.43,15.16,13,23.19a24.68,24.68,0,0,1-3.59.3c-5.69-.49-11.37-1.11-17.06-1.57A41.53,41.53,0,0,1,353.93,627c-5.78-4.42-11.36-9.08-17-13.66a67.18,67.18,0,0,1-22.24-33.17c-3.66-11.91-7.16-23.87-10.27-35.93-1.48-5.74-2.51-11.71-1.89-17.74.82-8.07,2.59-15.88,6.54-23.08C310.05,501.6,310.76,499.64,311.6,497.75Z" transform="translate(-25.69 -17.19)"/><path class="cls-4" d="M675.45,936.2c8.26-1.69,16.62-1.43,25-1.29.08,2.05,0,4.12.26,6.15.59,5.06.88,10.11,3.67,14.77,1.5,2.51,1.65,5.83,2.4,8.79-1.84,1.88-2.38,3.94-1,6.35.91,1.58,1.63,3.27,2.59,4.81a21.2,21.2,0,0,1,3.27,14.92c-1.45,9.18-.38,18.17,1.57,27.1a31,31,0,0,1,.22,12.37,56.6,56.6,0,0,0-.19,20.15c1.42,8,.74,16,.44,24.52-1.75.2-3.21.48-4.68.5-21.34.23-42.67.4-64,.63q-58.53.65-117.06,1.34-66.34.74-132.68,1.44c-31.47.36-62.94.82-94.42,1.21-6,.08-11.93,0-17.58,0-4.15-4.84-4.43-10-3.93-15.65,1.87-21.3,5-42.36,11.34-62.82,5.54-17.87,11.36-35.64,17.21-53.41,2.76-8.38,5.89-16.64,8.85-25a14.84,14.84,0,0,1,3.73-.8,120.86,120.86,0,0,0,23.2-1.16,24.75,24.75,0,0,1,3.85,0,7.28,7.28,0,0,0,2,1.1c9.16,1.56,18.33,3,27.5,4.57,9.43,1.6,18.83,3.33,28.27,4.86,6.88,1.12,13.77,2.43,20.7,2.9,6.72.45,13.25,2.5,20.09,2,4.9-.37,9.93-.61,14.37,2.37a4.93,4.93,0,0,0,2.25.56q10.83.87,21.67,1.66c1.29.09,2.69-.23,3.89.14,7.65,2.33,15.49,1.08,23.25,1.39a25.63,25.63,0,0,0,9.21-1.19,41.94,41.94,0,0,1,16.14-1.95c1.29.09,2.6-.07,3.9,0,3.53.27,6.71-.3,9.17-3.18.44-.52,1.31-.68,2.17-1.1,2,2.14,3.91,4.18,5.76,6.3,2.11,2.41,5,3.53,7.71,2.36,4.13-1.75,7.62-.33,11.22,1,4.67,1.79,9.38,3.11,14.44,2.07,1.49-.31,2.95-.74,4.13-1,1.67,1.06,2.89,2.41,4.26,2.58a24.38,24.38,0,0,0,7.72-.22c6.35-1.29,12.62-2.54,19.18-2.71,4.84-.13,9.61-1,14.48,0a13.23,13.23,0,0,0,5.39-.41c5.54-1.26,11.22-2,16.37-4.75,1.51-.8,3.5-.85,5.29-1C671,939.48,673.68,938.88,675.45,936.2Z" transform="translate(-25.69 -17.19)"/><path class="cls-5" d="M239.32,58.33c.1,1.55.32,3.11.28,4.66a9.8,9.8,0,0,1-19.22,2.77c-1.64-5.31-1.43-10.82-.82-16.24a36,36,0,0,1,32.85-32.21c13.8-1.19,26.5,6.57,32.3,19.87,3.05,7,4.12,14.45,4.8,22,.49,5.43.89,10.88,1.62,16.28,1.55,11.36,7,19.91,17.94,24.48a17,17,0,0,1,5.17,3.34,9.46,9.46,0,0,1,2,10.79A9.88,9.88,0,0,1,306,119.66a22.45,22.45,0,0,1-5.89-1.92c-17.28-8-26.46-22-29-40.55-.79-5.92-1-11.91-1.67-17.85a86.42,86.42,0,0,0-1.8-10.73c-1.45-6.06-5-10.24-11.43-11.28-5.52-.89-11.64,2.57-14.83,8.13C239.1,49.5,239,53.88,239.32,58.33Z" transform="translate(-25.69 -17.19)"/><path class="cls-5" d="M342.3,155.93a9.72,9.72,0,0,1-9.62-10c0-5.23,4.62-9.62,10.11-9.55s9.51,4.37,9.5,10.08A9.43,9.43,0,0,1,342.3,155.93Z" transform="translate(-25.69 -17.19)"/><path class="cls-6" d="M597.42,624.27c8.7-3.06,13.27-10.55,18.46-17.34a18.73,18.73,0,0,0,2.81-4.67c1.83-4.8,5-8.17,9.35-11a45.45,45.45,0,0,0,16.09-18.75c6-12.39,11.67-25,17.21-37.58a29.43,29.43,0,0,0,2-19.05c-.87-3.69-.84-7.6-1.25-11.79,4.79.36,7,3.12,8.25,6.65A25.87,25.87,0,0,1,672,518.4c.31,7.79.57,15.6.35,23.4a31.94,31.94,0,0,1-6.66,18.85c-7.29,9.44-14.09,19.33-24.12,27.31l6.21,1.06c-4,3.69-9.29,4.5-14,7.21,2.14,2.64,5,3,7.47,4a75.57,75.57,0,0,0,9.62,3.14A21.36,21.36,0,0,0,666,601.84c15.35-7.63,26.46-19.19,32.46-35.29a165.74,165.74,0,0,0,10.11-46.31,117.33,117.33,0,0,0-2-32.52,86.32,86.32,0,0,0-3.69-11.88,169.18,169.18,0,0,1-5.86-18.1,10.58,10.58,0,0,1,2.63.5,386.43,386.43,0,0,1,34.1,22,67.3,67.3,0,0,1,13.48,12.9c2.43,3.05,4.86,6.11,7.43,9,.57.65,1.74.76,2.63,1.12l-.11.09c.32.63.65,1.26,1,1.88,7.73,11.13,11.3,23.85,13.66,36.93,3.92,21.7,7.53,43.47,11.28,65.21.31,1.78.62,3.57,1,5.33,1,4.08,3.07,7.12,7.43,8.12a16,16,0,0,1,2.37,1,11.31,11.31,0,0,1-.63,2.92,20.17,20.17,0,0,0-2.21,9c-.22,5.27-1.78,10.14-6.27,13.54-.19-5.68-.37-11.36-.57-17.32-2.89-1.17-5.67-.86-8.44-.38q-26.09,4.51-52.17,9.06a30.32,30.32,0,0,0-4.55,1c-12.74,4.4-25.46,8.85-38.41,13.35a36,36,0,0,0-.46,5.54c.45,6.21.74,12.47,1.74,18.61,2.26,14,1.73,28,.44,42-1.08,11.61-3.39,23.11-4.73,34.71-1.1,9.53-1.79,19.13-2.27,28.73-.71,14-1.07,28-1.6,42.46a43.33,43.33,0,0,1-11.32,1.79q-13.22.91-26.44,1.64-33.85,1.88-67.7,3.67l-14.75.83a21,21,0,0,0-.85-4.46,9.36,9.36,0,0,0-9.55-6.2,9.19,9.19,0,0,0-9.09,6.83,25.8,25.8,0,0,0-.59,5.24c-13.72,1.29-27.48,2-41.27,2.07-6,0-12,.17-17.95.19-1.53,0-3.06-.22-5-.37,1-4.3,2.21-8.27,2.91-12.32,2.7-15.63,5.24-31.28,7.87-46.92q7.57-45,15.18-90,2.61-15.37,5.3-30.74c.49-2.8,1.15-5.58,1.83-8.86a37.66,37.66,0,0,1,4.26,1.93,164.52,164.52,0,0,0,26.64,12.93c7.14,2.78,14.17,2.63,20.87-1.69A282.64,282.64,0,0,0,593,630.49C594.79,628.79,596,626.36,597.42,624.27ZM557,722.66c.12-5.65-4.15-10.37-9.38-10.37a9.71,9.71,0,0,0-9.86,9.05c-.27,5.85,3.54,10.38,9,10.67A9.58,9.58,0,0,0,557,722.66ZM534.6,779.72a9.81,9.81,0,0,0,9.09,10.61,9.43,9.43,0,0,0,10.14-8.57c.46-6.25-3.44-10.82-9.34-10.93A9.58,9.58,0,0,0,534.6,779.72Z" transform="translate(-25.69 -17.19)"/><path class="cls-3" d="M758.16,505.24c-.33-.62-.66-1.25-1-1.88C757.5,504,757.83,504.61,758.16,505.24Z" transform="translate(-25.69 -17.19)"/><path class="cls-7" d="M311.6,497.75c-.84,1.89-1.55,3.85-2.54,5.66-3.95,7.2-5.72,15-6.54,23.08-.62,6,.41,12,1.89,17.74,3.11,12.06,6.61,24,10.27,35.93a67.18,67.18,0,0,0,22.24,33.17c5.65,4.58,11.23,9.24,17,13.66a41.53,41.53,0,0,0,22.32,8.33c5.69.46,11.37,1.08,17.06,1.57a24.68,24.68,0,0,0,3.59-.3c-4.55-8-11.33-14.25-13-23.19-.07-.36.43-.82.92-1.67,7.84,6,14.69,13.5,24.51,16.66-3.19-6.79-8.68-12.31-9-20.57,2.25-.42,3.47,1.14,5,1.74a60.77,60.77,0,0,0,5.84,2.12,37.13,37.13,0,0,0,5.35,1q3.09.43,6.2.61c1.78.1,3.57,0,5.57,0-.15-1.13,0-2-.38-2.57-5.8-7.93-5.43-16.6-2.61-25.3a168.4,168.4,0,0,1,6.8-16.56c2.86-6.4,6.11-12.64,8.84-19.09,1.5-3.55,2.28-7.41,3.39-11.13,1.92,1,3.62,2.25,4.16,4.39a135.38,135.38,0,0,1,3.28,14.39A31,31,0,0,1,450.32,572c-4.54,13.26-8.46,26.73-13,40-2.93,8.58-6.33,17-9.85,25.39-6.35,15.06-12.94,30-19.48,45-1,2.31-2.3,4.48-3.9,7.57-.86-2.64-1.53-4.3-1.93-6-1.51-6.58-3.07-13.15-4.32-19.78a14.6,14.6,0,0,0-4.39-8c-4.55-4.42-9.55-7.83-15.93-9.2-6.9-1.48-13.77-2.59-20.83-2.31a122.25,122.25,0,0,1-25.64-1.24,24.56,24.56,0,0,0-13.81,1.35c-5.89,2.5-12,3.11-18.18,3.72-2.84.28-5.67.66-8.51,1A9.53,9.53,0,0,0,288.8,651c-6.58,9.43-7.31,6.64-4.69,20.65.71,3.83,1.47,7.64,2.21,11.47-.76-.1-1.68,0-2.25-.34-2.38-1.56-4.71-3.22-7-5-8.61-6.68-8.1-5.18-5.34-16.92,1-4.26,2.9-8.31,3.89-12.57,1.54-6.63,1.32-13.38.68-20.14q-2.56-26.73-4.86-53.48c-.4-4.64-.4-9.33-.58-14a54.26,54.26,0,0,1,8.51-31.05c6.75-10.95,15.65-20,25.51-28.11C306.87,500,309.36,499,311.6,497.75Z" transform="translate(-25.69 -17.19)"/><path class="cls-8" d="M675.45,936.2c-1.77,2.68-4.45,3.28-7.42,3.44-1.79.1-3.78.15-5.29,1-5.15,2.74-10.83,3.49-16.37,4.75a13.23,13.23,0,0,1-5.39.41c-4.87-1-9.64-.15-14.48,0-6.56.17-12.83,1.42-19.18,2.71a24.38,24.38,0,0,1-7.72.22c-1.37-.17-2.59-1.52-4.26-2.58-1.18.29-2.64.72-4.13,1-5.06,1-9.77-.28-14.44-2.07-3.6-1.38-7.09-2.8-11.22-1-2.74,1.17-5.6,0-7.71-2.36-1.85-2.12-3.79-4.16-5.76-6.3-.86.42-1.73.58-2.17,1.1-2.46,2.88-5.64,3.45-9.17,3.18-1.3-.1-2.61.06-3.9,0a41.94,41.94,0,0,0-16.14,1.95,25.63,25.63,0,0,1-9.21,1.19c-7.76-.31-15.6.94-23.25-1.39-1.2-.37-2.6-.05-3.89-.14q-10.85-.8-21.67-1.66a4.93,4.93,0,0,1-2.25-.56c-4.44-3-9.47-2.74-14.37-2.37-6.84.51-13.37-1.54-20.09-2-6.93-.47-13.82-1.78-20.7-2.9-9.44-1.53-18.84-3.26-28.27-4.86-9.17-1.55-18.34-3-27.5-4.57a7.28,7.28,0,0,1-2-1.1c3.41-1.23,6.93-2.2,10.18-3.73a72.43,72.43,0,0,1,17-6c8,4.67,17.08,5.51,26.19,6.15,5.83.41,10.78-1.14,14.52-5.85a15.42,15.42,0,0,1,1.56-1.5,5.42,5.42,0,0,1,1.64-.38c18.8,2.32,37.59,4.75,56.4,7,17.81,2.14,35.33,5.94,53,9.1,9.71,1.74,19.51,3.15,29.33,4,24.32,2.21,48.67,4.11,73,6a308,308,0,0,0,38.19.13C670.81,936,673.13,936.18,675.45,936.2Z" transform="translate(-25.69 -17.19)"/><path class="cls-9" d="M533.51,834.37a25.8,25.8,0,0,1,.59-5.24,9.19,9.19,0,0,1,9.09-6.83,9.36,9.36,0,0,1,9.55,6.2,21,21,0,0,1,.85,4.46Z" transform="translate(-25.69 -17.19)"/><path class="cls-10" d="M424.54,422.33c3.74-1.77,6.24-1.71,8.39,1,1.73,2.2,3.7,4.21,5.79,6.56-2.61,3.81-5,7.43-7.57,11a2.43,2.43,0,0,1-2.1.53c-.61-.16-1.08-.95-1.56-1.5a1.2,1.2,0,0,1-.17-.74A38,38,0,0,0,424.54,422.33Z" transform="translate(-25.69 -17.19)"/><path class="cls-11" d="M495.66,211.23c.66-.27,1.5-.93,2-.73a34.84,34.84,0,0,1,5.45,2.93c3.49,2.32,7.08,4.37,11.29,5,2.68.38,4,2.12,5,4.38-2.68.31-5.38.88-7.92-.61-1.39-2.77-2.7-3-4.83-.82l-4.56-2.3a2,2,0,0,0-1.66-2.48l.14.12a3.15,3.15,0,0,0-4.05-1.63c-.47,0-.7-.22-.69-.69,0-1,0-2.06,0-3.08Z" transform="translate(-25.69 -17.19)"/><path class="cls-12" d="M589.54,322.78l2,.43a29.18,29.18,0,0,1-3.64,14.93c-2.32,4.14-2.14,4.25-.73,9.48-1.84,1.46-2.89.2-3.55-1.25a8.33,8.33,0,0,1,.81-8.17C587.46,333.47,588.56,328.15,589.54,322.78Z" transform="translate(-25.69 -17.19)"/><path class="cls-3" d="M398.85,339.23c4.88,5.68,5.37,8.38,3.28,14.59-1.57-1.68-.83-3.5-1.08-5.05s-.41-3-.76-4.54C399.9,342.54,399.34,340.89,398.85,339.23Z" transform="translate(-25.69 -17.19)"/><path class="cls-3" d="M506.59,221.35c2.13-2.17,3.44-1.95,4.83.82Z" transform="translate(-25.69 -17.19)"/><path class="cls-3" d="M496.46,215.06a3.15,3.15,0,0,1,4.05,1.63C498.66,217.39,497.59,216.14,496.46,215.06Z" transform="translate(-25.69 -17.19)"/><path class="cls-3" d="M495.81,211.29c0,1,0,2.05,0,3.08C494,212.47,494,212.47,495.81,211.29Z" transform="translate(-25.69 -17.19)"/><path class="cls-3" d="M500.37,216.57a2,2,0,0,1,1.66,2.48C501.19,218.42,500.09,218,500.37,216.57Z" transform="translate(-25.69 -17.19)"/><path class="cls-13" d="M557,722.66A9.58,9.58,0,0,1,546.67,732c-5.42-.29-9.23-4.82-9-10.67a9.71,9.71,0,0,1,9.86-9.05C552.8,712.29,557.07,717,557,722.66Z" transform="translate(-25.69 -17.19)"/><path class="cls-14" d="M534.6,779.72a9.58,9.58,0,0,1,9.89-8.89c5.9.11,9.8,4.68,9.34,10.93a9.43,9.43,0,0,1-10.14,8.57A9.81,9.81,0,0,1,534.6,779.72Z" transform="translate(-25.69 -17.19)"/></svg>