<svg xmlns="http://www.w3.org/2000/svg" viewBox="0 0 4950.86 3209.38"><defs><style>.cls-1{fill:#edf3ff;}.cls-2{fill:#eae7d7;}.cls-3{fill:#c8a296;}.cls-4{fill:#24005b;}.cls-5{fill:#485262;}.cls-6{fill:#e9c8c1;}.cls-7{fill:#f0624f;}.cls-8{fill:#ff2000;}.cls-9{fill:#383838;}.cls-10{fill:#447254;}.cls-11{fill:#57646c;}.cls-12{fill:#dec4bc;}.cls-13{fill:#3cdc97;}.cls-14{fill:#707171;}</style></defs><g id="Layer_15" data-name="Layer 15"><path class="cls-1" d="M273.7,370.52c115-208.95,363.75-315.75,602.09-325s471.46,63,699,134.36l555.45,174.31c177.2,55.61,356.55,111.62,541.92,123,324.38,19.88,643.18-98,968.17-98.18,451.18-.24,900.83,250.8,1113.29,648.82s163,928.07-139.66,1262.64c-106.72,118-239,210-376,290.9-163.64,96.68-337.27,179.64-522.2,223.53-203.28,48.25-414.53,48.16-623.45,46.43-573-4.73-1155-18.75-1708.41,129.95-108.24,29.09-217,64.6-329.08,62.65-65.83-1.15-130.88-15.32-193.73-34.94-224.39-70.05-425.66-212.21-566.7-400.27-256.4-341.88-297.12-818.46-153.74-1221C220,1165,353.19,943.06,314.21,710,293.54,586.41,209.14,495.07,273.7,370.52" transform="translate(-58.75 -44.71)"/></g><g id="Layer_6" data-name="Layer 6"><polygon class="cls-2" points="2746.61 1555.69 3185.46 1555.69 3315.42 1602.2 3185.46 1992.14 2764.5 1992.14 2746.61 1555.69"/></g><g id="Layer_7" data-name="Layer 7"><polygon class="cls-3" points="2147.71 2277.58 2914.06 2447.64 2907.21 2515.27 2845.13 2740.23 2456.2 2740.23 2455.89 2755.43 2442.06 2764.62 2242.14 2752.5 2070.48 2638.74 2063.75 2490.64 2147.71 2277.58"/></g><g id="Layer_5" data-name="Layer 5"><path class="cls-4" d="M2641.43,1144.69,2380,1275.39s-98.84,41.15-143.82,118.06-109.48,211.5-129.1,262-58.89,159.83-58.89,215.91c0,0-61.68,204.68-70.1,232.72s-44.86,179.45-56.07,221.51-30.85,120.57-14,157,44.86,70.1,58.88,78.51,81.31,42.06,92.53,53.28,22.43,25.23,28,39.25,16.82,33.65,36.45,47.67c8,5.7,16.87,12.32,27.07,17.8,14.91,8,32.6,13.57,54.24,10.24l36.45-5.61,4.87-4.85s-69.28-35.28-78.26-55.81-24.38-73.13,13.47-107.77,93-92.38,118-89.81,53.89,3.21,80.19,29.51l26.3,26.3s38.64,35.59,63.33,44.41,178.11,95.23,186.93,97,1.76,28.22,82.88-17.63l81.12-45.85s72.3-51.14,114.63-44.09,97,14.11,97,14.11l647.2-331.54-77.6-153.42s-42.32-229.25-45.85-292.74-7.05-104-15.87-130.49-8.82-54.67-28.21-79.36-33.51-91.7-70.54-118.15-208.09,44.08-208.09,44.08L3111.45,1855s-28.22,121.68-28.22,130.5v8.81S2981,1812.69,2935.1,1756.26s-146.67-202.8-144.76-248.65-71.54-326.24-71.54-326.24l-32.86-57.55Z" transform="translate(-58.75 -44.71)"/><path class="cls-5" d="M2562.78,2843.12,2364.4,2851H2244.74s-67.18-79.16-79-96.83-21.69-20.32-18.27-27.7l3.42-7.38,95.56-.22s38.33,25.87,117.88,44.72,122,34.18,136.13,35.36l14.15,1.18.59,27.7a197.93,197.93,0,0,0,30.05,10.61Z" transform="translate(-58.75 -44.71)"/></g><g id="Layer_3" data-name="Layer 3"><path class="cls-6" d="M2815,531.5s-5.07,21.29-20.64,48.19-10.51,29.69-23.25,43.85-38.23,31.15-43.9,45.31-34,62.31-34,76.47v31.15l-13.69-27.19s-6.7-53-8.53-64.54l-1.83-11.57s-13.39-5.48-17-6.69l-3.66-1.22s-16.44,15.22-21.92,38.36-20,60.45-16.33,83.58,22,86.41,37.82,100.41,32.09-.73,40-.12-2.12,11.6-2.12,11.6-17.61,74,28.09,139.61,61.28,82,61.28,82,55.07,66.79,64.45,72.65,41,28.12,89,28.12,78.51-4.68,78.51-4.68,48-42.19,64.44-52.73,82.44-51.92,96.5-68.33,53.29-83.5,58-122.17,18.94-190.32,16.6-224.3,3.77-67.77.26-95.9a166,166,0,0,0-14.59-49.72s-60.66-44.21-81.76-43c0,0-46.87-28.12-114.83-22.26,0,0-15.23-24.61-42.18-18.75s-44.53,19.92-64.45,19.92-39.84-8.2-55.07-8.2S2815,531.5,2815,531.5Z" transform="translate(-58.75 -44.71)"/></g><g id="Layer_4" data-name="Layer 4"><path class="cls-6" d="M2710.63,1024.09s2.54,134.75-4.59,143.9c0,0,7.13,132.15,23.18,192.76S2782.69,1523,2813,1574.66l30.3,51.69s102.1,55.18,117.65,62.39S3141,1649.53,3141,1649.53l-32.09-529.43Z" transform="translate(-58.75 -44.71)"/></g><g id="Layer_2" data-name="Layer 2"><path class="cls-7" d="M2800.69,376s-70.84,60.1-115.92,161-77.28,171.72-79.42,197.48-4.3,107.33-10.74,128.8-47.22,148.12-62.25,186.76-25.76,94.45-47.22,122.35-188.91,131-219,176l-30,45.08s73-83.71,143.82-118.06,118.81-58.09,127.16-62.93c18.72-10.84,54.62-18.78,76.62-27.25,27.91-10.73,90.26-68.16,94.56-76.74s2.19,33.83,21.51,18.8c12.1-9.41,17.78-20.65,23.25-35.18,3.26-8.67,3.14-33.37,3.14-33.37s-21.73-46.63-24.49-57.64-7.34-112-7.34-112-45.9-5.51-59.66-45.9-21.12-90-13.77-115.66,24.78-63.33,36.71-58.74,5.51,33,12.85,54.15,11.15,36.4,10.24,51.09.78,18.68.78,18.68-2,4,16.52-17.66,99.74-205.22,127.53-216l27.8-10.81s52.5-1.54,69.48-4.63,51-15.44,51-15.44,47.87,23.16,77.21,24.71,46.32-4.64,46.32-4.64,24.71,13.9,40.15,21.62,60.22,13.9,72.58,29.34,17,17,17,27.8-7.72,27.79,0,43.23,12.36,38.61,12.36,52.5-10.81,198.46-10.81,198.46-.72,96.31-59,156.37-97.17,90.11-97.17,90.11-86.57,169.6-83,213.77,17.67,57.12,3.54,110.71-33.57,256.76,8.83,322.13,84.8,130.73,93.64,162.53,44.16,65.37,12.36,98.94-83,54.76-106,54.76h-23s-8.83,42.4,24.74,61.84,56.53,21.2,56.53,21.2l339.21-14.13,40.63-67.14s-5.3-249.1-24.73-279.14-35.34-76-35.34-76,76-19.44,86.57-121.91-23-300.33-49.47-333.9c0,0-3.53-91.87-10.6-104.24s44.17-107.76,40.64-159-33.57-270.3-53-326.84-58.3-210.23-111.3-265S3171.33,332,3072.4,319.62c0,0-162.54-15.9-203.17,12.37S2800.69,376,2800.69,376Z" transform="translate(-58.75 -44.71)"/><path class="cls-7" d="M2671,1101.49s-14.63,64.58-21.47,72.22-50.54,9.49-65.83,11.5-32.07,4.18-37.81,4-16.74,8-16.74,8l-16.78,12s20.24,6.68,49.21,0,87.92-6.49,100-22.58,33-37.57,37-48.15-27.54-21-27.54-21Z" transform="translate(-58.75 -44.71)"/><path class="cls-7" d="M2708.59,1160.63,2718.8,1101h-30.36l-29.36-10.39-6,40.75v16.18S2679.23,1178,2708.59,1160.63Z" transform="translate(-58.75 -44.71)"/><path class="cls-7" d="M2671,1146.2l-25.76,4.3a124.5,124.5,0,0,1-25.8,6.32c-15,2.08-13.84,5.15-22.35,10.82s-47.7-59.06-47.7-59.06l99.47-84.49,22.14,42.55Z" transform="translate(-58.75 -44.71)"/><path class="cls-8" d="M1598.5,570.92h71.57a0,0,0,0,1,0,0v8.56a0,0,0,0,1,0,0h-72.28a0,0,0,0,1,0,0v-7.85A.71.71,0,0,1,1598.5,570.92Z"/></g><g id="Layer_13" data-name="Layer 13"><path class="cls-9" d="M543.31,2865s6,172.71,7.52,213-1.5,132.72,11.94,154.41S909,3254.09,909,3254.09l533.13-21.69-310.39-447.47L729.58,2655.58Z" transform="translate(-58.75 -44.71)"/></g><g id="Layer_12" data-name="Layer 12"><path class="cls-10" d="M1531.35,688.67l-29,33.47s-119.55,10-192.61,38.18c0,0-58.11,18.27-86.34,23.25l-28.22,5-56.46,6.64s-58.11,33.21-91.32,58.12l-33.2,24.9s-83,66.42-131.17,162.72l-28.23,60.56s-18.26,93.85-19.92,190.15c0,0-21.59,51.47-21.59,76.38,0,0-18.26,13.28-18.26,28.23v43.17s-10,6.64-13.29,33.2c0,0-11.62-3.32-11.62,44.83,0,0-18.26,15-14.94,39.9,0,0-31.55,147.73-26.57,190.89,0,0-18.26,15-21.58,23.25s-3.32,41.51-8.3,54.79-16.25,66.2-16.25,73.08-20.63,68.76-27.5,79.76-28.88,74-31.63,101.62c0,0-13.75,66.14-19.25,95s2.75,266.77,0,303.9-67.62,339.15-73.06,367.67-9.5,42.1,0,46.17a74.38,74.38,0,0,1,16.3,9.69s-9.51-32.77-4.07-38.2,43.46-16.3,80.12-36.67,63.83-31.24,76.05-25.81,88.28,50.25,122.23,76.06,72,42.1,91,66.54,165.68,196.92,192.84,222.72,70.62,58.4,85.56,63.83,239-20.91,239-20.91l217.29-307.56s88.57-322.6,93.18-595h0V2204.63s33.47-46.47,52.9-104.71h0l94.21,24.42L1999.54,2142l107-296.64-31.7-98.95s-4.17-75.5-2.34-85.23,10.94-57.75,20.67-77.2,7.9-8.51,19.45-68.08,18.23-73.55,18.23-73.55,33.44-83.28,37.69-89.36,7.29-18.84,7.29-18.84,14-108.81,0-165.34-23.09-64.43-37.08-86.32-35.25-46.2-35.25-46.2l-210.89,33.33L1832,1181.07,1620.73,795.94Z" transform="translate(-58.75 -44.71)"/></g><g id="Layer_14" data-name="Layer 14"><polyline class="cls-11" points="877.26 3205.85 1617.81 2773.64 3825.42 2764.62 3854.01 2764.62 4950.86 3176.73"/></g><g id="Layer_11" data-name="Layer 11"><path class="cls-12" d="M2174.73,463.41s19.42,134,21,161.86,4.15,186.79,4.15,186.79-8.93,43.6-38.87,80.37l-7.88,12.08s0,24.16-3.15,29.94-35.2,27.84-35.2,27.84-1.82,65-4.91,77.38l-3.1,12.38s-23.21,60-44.09,71.77l-20.89,11.78s-33.26,17.79-62.66,13.15-84.32-31-84.32-31-7.73,34-11.6,67.3-6.19,53.38-6.19,53.38-20.89,31.72-23.21,49.51-2.32,58.79-10,81.22-33.27,83.55-37.13,105.21-12.38,54.92-12.38,54.92-30.94-263.78-44.87-279.26l-20.89-11.6s7-133-12.37-160.9S1617.84,949.16,1604.69,885l-44.77-92.23,9.19-30.77-7.74-17.79c-7.73-17.79-24.75-59.57-24.75-74.27s9.28-64.2,9.28-64.2l90.51-13.15,37.13-169.42,194.69-149.3,188.23,10.83,65.75,35.59,41,66.53Z" transform="translate(-58.75 -44.71)"/><path class="cls-12" d="M1134,2278.15s-5-77.73,0-87.76l5-10,15,12.54s153-116.28,195.58-112.05,72.72,16.76,72.72,16.76,168,331,190.57,363.59,77.73,112.83,107.82,142.92,62.69,80.24,82.75,85.26,24.21-5,64.76-12.54,100-23,113.06-23,18-9.46,74.82,29.75c0,0,16.67,11.26,31.1,13.07s23,2.7,23,2.7,35.37,23.28,61.27,62.63l25.89,39.35,43.53,58.93s4.69,14.06,0,26.11l-4.69,12.06s-26.78,6.25-38.84,3.46l-12-2.8s11.39,4.35-15.4,3.52-34.53,2.51-47.4-15.57-26.26-50.89-33.63-52.23l-7.36-1.34s-20.09,0-27.46.67-24.11,4.29-28.79,7.84-10,3.54-11.39,16.27-.67,20.09-7.36,26.11-24.54,11.36-37.76,8.06-30.87-23.15-30.87-23.15-7.71,18.74-15.43,23.15-22,12.87-35.27,10.29-83.77-41.16-83.77-41.16-54,26.46-105.81,20.95c0,0-32,1.1-39.68,0S1531.16,2771,1492.59,2730.31s-214.94-225.88-267.84-311.85S1134,2278.15,1134,2278.15Z" transform="translate(-58.75 -44.71)"/><path class="cls-12" d="M1793.49,2099.92s49.6,7.71,91.49,9.92,106.91,0,106.91,0-45.19,448.6-46.29,475.06-8.82,93.68-8.82,93.68l-112.42,17.64h-72.75s1.1-108,0-163.13-7.72-168.64-11-224.85a902.9,902.9,0,0,1,0-103.61,289.15,289.15,0,0,0,37.47-66.13Z" transform="translate(-58.75 -44.71)"/></g><g id="Layer_10" data-name="Layer 10"><path class="cls-5" d="M2058.26,424.88s-159.16-36.2-185-43.24-99-13.07-110.68,43.24-2.35,105.59,25.81,145.48,51.62,72.74,35.19,84.48-49.37,1.68-70.8,12.4-36.91,19-38.1,34.53-9.52,45.24-9.52,57.15v11.9l-23.82-8.33s-1.19-57.15-51.2-102.4-64.29-52.39-72.62-47.62a30.51,30.51,0,0,0-15.48,26.19c0,11.91-3.58,29.77,0,46.44s6,23.81,6,23.81l-16.67-20.24s-10.72-188.12-26.19-248.85-29.77-67.86-19.05-107.15,39.29-91.68,88.1-125S1714.71,114.78,1785,110s136.92-14.28,209.55,34.53,107.16,64.3,132.16,111.92,39.3,96.45,46.44,144.07l7.14,47.63V481.5s-21.43-77.4-50-114.31l-28.58-36.91s8.34,52.39-6,73.82l-14.29,21.44Z" transform="translate(-58.75 -44.71)"/></g><g id="Layer_8" data-name="Layer 8"><path class="cls-13" d="M2515,2784.93V2835l349.88,66.85,1188-5.81,28.58-16.33,243.62-740.38s1.36-38.11-40.83-39.47-1150-19.05-1150-19.05-46.27,16.33-51.71,65.33l-178.61,638.75Z" transform="translate(-58.75 -44.71)"/><g id="Layer_9" data-name="Layer 9"><polygon class="cls-14" points="2462.47 2740.23 2832.04 2797.27 2845.13 2740.23 2462.47 2740.23"/></g></g></svg>