<svg xmlns="http://www.w3.org/2000/svg" viewBox="0 0 4881.94 3086.04"><defs><style>.cls-1{fill:#ebf3ff;}.cls-2{fill:#f66;}.cls-3{fill:#3cdb96;}.cls-4{fill:#3c3973;}.cls-5{fill:#fff;}.cls-6{fill:#e2f3fc;}.cls-7{fill:#7ab4c3;}</style></defs><g id="Layer_2" data-name="Layer 2"><path class="cls-1" d="M186.58,1010.18c25.33-254.75,281.41-431,533.1-518.78,289.2-100.91,604.78-132,909.47-89.69,348.35,48.4,675.68,189.67,1021.47,252.64a2316.39,2316.39,0,0,0,630.74,27.19c207.07-19.48,410.68-66.83,618.21-81.18S4325.9,607.88,4501,715.17c286.05,175.23,385.13,527.1,423.07,849.62,13.18,112,21.75,225.68,3.74,337.06-20.29,125.49-73.68,243.94-134.8,356.71-228.22,421.1-593.2,796.19-1066.16,940.45-341.79,104.26-713.85,81.13-1063.35,3.62S1980.08,2995.41,1640,2886.13c-167.92-54-344.66-103.61-519.86-78.42-130.47,18.77-253.22,78.41-385,84.32C540.18,2900.78,353,2784,255,2622.78S140,2263.71,176.56,2080.61c11.27-56.45,27.41-113.34,21.14-170.5-7.13-65-42.41-123.49-70-183.27-168.06-363.42-30-832,311.82-1058.37" transform="translate(-56.17 -294.71)"/></g><g id="Layer_1" data-name="Layer 1"><rect class="cls-2" x="763.56" y="231.44" width="1056.99" height="2750.58"/><rect class="cls-3" x="3077.21" y="631.21" width="1158.33" height="2343.26"/><polygon class="cls-4" points="3168.53 3086.04 1737.53 3086.04 1737.53 0 3168.53 231.44 3168.53 3086.04"/><rect class="cls-3" x="3168.52" y="535.12" width="169.16" height="96.09"/><polygon class="cls-3" points="3337.69 631.21 4235.54 380.66 4235.54 631.21 3337.69 631.21"/><rect class="cls-5" x="3389.8" y="919.93" width="291.3" height="282.85"/><rect class="cls-5" x="3847.97" y="919.93" width="282.85" height="282.85"/><rect class="cls-5" x="3398.24" y="1395.26" width="282.85" height="282.85"/><rect class="cls-5" x="3852.25" y="1395.26" width="282.85" height="282.85"/><rect class="cls-5" x="3398.24" y="1870.59" width="282.85" height="282.85"/><rect class="cls-5" x="3856.42" y="1870.59" width="282.85" height="282.85"/><rect class="cls-6" x="3626.13" y="2574.54" width="320.97" height="399.93"/><rect class="cls-5" x="1891.12" y="479.05" width="1123.81" height="354.7"/><rect class="cls-5" x="1891.12" y="1025.43" width="1123.81" height="354.7"/><rect class="cls-5" x="1891.12" y="1571.8" width="1123.81" height="354.7"/><rect class="cls-6" x="2265.98" y="2711.95" width="374.09" height="374.09"/><rect class="cls-7" x="2450.27" y="2711.95" width="5.52" height="374.09"/><rect class="cls-7" x="3783.85" y="2574.54" width="5.52" height="399.93"/><rect class="cls-6" x="1214.73" y="2294.13" width="374.09" height="687.89"/><rect class="cls-7" x="1399.01" y="2294.13" width="5.52" height="687.89"/></g><g id="Layer_3" data-name="Layer 3"><rect class="cls-5" x="896.97" y="422.98" width="112.14" height="112.14"/><rect class="cls-5" x="1125.08" y="422.98" width="112.14" height="112.14"/><rect class="cls-5" x="1360.04" y="422.98" width="112.14" height="112.14"/><rect class="cls-5" x="1588.14" y="422.98" width="112.14" height="112.14"/><rect class="cls-5" x="897.31" y="964.13" width="112.14" height="112.14"/><rect class="cls-5" x="1125.42" y="964.13" width="112.14" height="112.14"/><rect class="cls-5" x="1360.37" y="964.13" width="112.14" height="112.14"/><rect class="cls-5" x="1588.48" y="964.13" width="112.14" height="112.14"/><rect class="cls-5" x="897.64" y="683.73" width="112.14" height="112.14"/><rect class="cls-5" x="1125.75" y="683.73" width="112.14" height="112.14"/><rect class="cls-5" x="1360.71" y="683.73" width="112.14" height="112.14"/><rect class="cls-5" x="1588.82" y="683.73" width="112.14" height="112.14"/><rect class="cls-5" x="897.64" y="1219.87" width="112.14" height="112.14"/><rect class="cls-5" x="1125.75" y="1219.87" width="112.14" height="112.14"/><rect class="cls-5" x="1360.71" y="1219.87" width="112.14" height="112.14"/><rect class="cls-5" x="1588.82" y="1219.87" width="112.14" height="112.14"/><rect class="cls-5" x="897.98" y="1761.01" width="112.14" height="112.14"/><rect class="cls-5" x="1126.09" y="1761.01" width="112.14" height="112.14"/><rect class="cls-5" x="1361.05" y="1761.01" width="112.14" height="112.14"/><rect class="cls-5" x="1589.16" y="1761.01" width="112.14" height="112.14"/><rect class="cls-5" x="898.32" y="1480.62" width="112.14" height="112.14"/><rect class="cls-5" x="1126.43" y="1480.62" width="112.14" height="112.14"/><rect class="cls-5" x="1361.39" y="1480.62" width="112.14" height="112.14"/><rect class="cls-5" x="1589.49" y="1480.62" width="112.14" height="112.14"/></g></svg>