<svg id="Layer_15" data-name="Layer 15" xmlns="http://www.w3.org/2000/svg" viewBox="0 0 4574.82 3230.51"><defs><style>.cls-1{fill:#ebf3ff;}.cls-2{fill:#efefef;}.cls-3{fill:#ffe9d7;}.cls-4{fill:#fcfcfc;}.cls-5{fill:#77cd9e;}.cls-10,.cls-6{fill:none;}.cls-7{fill:#150a56;}.cls-8{fill:#aa7b68;}.cls-9{fill:#007ff3;}.cls-10{stroke:#007ff3;stroke-miterlimit:10;}.cls-11{fill:#fff9f8;}.cls-12{fill:#485162;}.cls-13{fill:#ef5d24;}</style></defs><path class="cls-1" d="M4779.07,1586.61c0,1341-1028.83,1515.14-2369.83,1515.14S311.36,2966.47,311.36,1625.46,1107.09,498.82,2448.09,498.82,4779.07,245.61,4779.07,1586.61Z" transform="translate(-219.25 -45.12)"/><path class="cls-2" d="M1163.4,1489.93c-16.59,79.3-46.36,156.28-45.18,238.47.46,31.95,27.79,62.61,61.12,61.11,32.72-1.46,61.61-26.86,61.12-61.11-.14-9.6.08-19.17.78-28.75.3-4.08.79-8.15,1.12-12.23q1.22-10.17-.65,4,.57-4.07,1.23-8.11c2.82-17.63,6.7-35.08,11-52.41,9-36.22,19.69-72,27.34-108.53,6.53-31.21-9.13-67.54-42.69-75.18-30.62-7-68.17,9.22-75.18,42.69Z" transform="translate(-219.25 -45.12)"/><path class="cls-3" d="M1125.42,1124.23c-11.39-1.7-21.74-3.86-33.28-.12-10.2,3.3-19.59,8.34-27.25,16a63.71,63.71,0,0,0-18.45,45.65c.15,16.77,7.88,31.22,15.75,45.42a344.9,344.9,0,0,0,22.51,35.37c19.17,26.46,40.22,51.18,65,72.48,12.48,10.71,26.3,17.9,43.22,17.9,15,0,32.89-6.66,43.21-17.9,10.7-11.65,18.63-26.94,17.9-43.22-.69-15.48-5.69-32.74-17.9-43.21a355.12,355.12,0,0,1-48.62-51l9.56,12.37a355.24,355.24,0,0,1-36.47-58l6.16,14.6-.31-1.08,2.18,16.25v-1.16l-2.18,16.25.28-1-15.72,27,.55-.56L1092.14,1242l.79.12a46.35,46.35,0,0,0,24.37,1.09,45.45,45.45,0,0,0,22.72-7.26c12.68-7.41,24.77-22,28.09-36.52,3.56-15.65,2.79-33.21-6.16-47.09-8-12.45-21.19-25.8-36.53-28.09Z" transform="translate(-219.25 -45.12)"/><path class="cls-3" d="M1141.74,1189.44l-.13,100.62c0,33.24-1.84,67,1.48,100.15,3.06,30.58,20.93,55.71,53,60,31,4.16,57.25-14.6,67.06-43.77q29.8-88.64,50.65-179.86H1195.92c1.4,3.37,2.23,6.8,3.42,10.22,4.07,11.66-1.07-14.29,0-1.92.7,8.41,1.47,16.83,2.1,25.25q1.86,24.91,3,49.87,2.25,51,1.34,102.06c-.53,32,28.49,62.58,61.12,61.12,35.25-1.58,58.44-26.89,61.12-61.12l1.56-19.94c2.5-32-29.9-62.52-61.12-61.12-35.25,1.58-58.43,26.89-61.11,61.12l-1.57,19.94h122.24q.88-53.2-1.55-106.4-1.22-26-3.27-52c-1.55-19.7-1.69-41.13-9.33-59.55-5.3-12.77-10.6-23-21.9-31.75-10.31-8-23.65-13.72-37-13.12-26.11,1.17-52.8,18-58.94,44.87q-20.82,91.15-50.65,179.86l120,16.25c-3.31-33.11-1.52-66.91-1.48-100.15l.13-100.62c0-32-28.14-62.59-61.12-61.11-33.14,1.48-61.07,26.85-61.11,61.11Z" transform="translate(-219.25 -45.12)"/><polygon class="cls-4" points="704.1 989.57 1030.05 1356.27 907.82 1600.73 622.61 1111.8 704.1 989.57"/><path class="cls-5" d="M1249.3,1401.39l-40.75,81.49,40.75,40.74h0l-49.12,173.69-73.11,70.78,81.48,163,122.24,163,40.74,40.75,40.75-163-40.75-366.7-40.74-152.37L1290,1401.39Z" transform="translate(-219.25 -45.12)"/><path class="cls-6" d="M1086.32,586.5" transform="translate(-219.25 -45.12)"/><path class="cls-3" d="M1037.53,971.38S998.83,894,960.14,894s-38.7,77.39-38.7,77.39,0,76.64,41.51,105.38c9.58,6.63,21.37,10.71,35.88,10.71Z" transform="translate(-219.25 -45.12)"/><path class="cls-3" d="M923.34,953.2v81.49s122.24,163,203.73,203.72c0,0,122.23,122.23,244.46,0s122.24-244.47,122.24-244.47l34.11-173.64,6.63-233.8L1453,545.76l-122.23-81.49-163,40.74L1045.58,586.5l-81.49,163V831Z" transform="translate(-219.25 -45.12)"/><path class="cls-5" d="M1004.83,790.22s0-40.74,20.38-101.86c8.9-26.72,34.71-45.71,49.79-54.88a38.16,38.16,0,0,0,16.15-20.72l15.54-46.63s122.24-81.49,203.73-40.75,203.72,81.49,203.72,81.49,40.74,203.72,0,244.47c0,0,81.49-244.47,40.74-326s-142.6-142.6-142.6-142.6S1371.53,342,1330.79,342s-203.72-40.74-244.47,40.75c0,0-163,40.74-163,122.23,0,0-40.74,244.47,0,244.47" transform="translate(-219.25 -45.12)"/><path class="cls-7" d="M760.37,1238.41l81.49-122.23s203.72,244.46,244.46,326S1371.53,2094,1371.53,2094l-40.74-488.93v-163s81.49,0,122.23,122.24S1493.77,2094,1493.77,2094v366.7c0,40.75,40.74,122.24,40.74,122.24" transform="translate(-219.25 -45.12)"/><path class="cls-7" d="M288.72,2290.52s-17.29,292.46,23.46,333.2-81.49,651.91-81.49,651.91h1466.8l-40.75-326" transform="translate(-219.25 -45.12)"/><polyline class="cls-4" points="1070.8 1356.27 1111.54 1234.04 1111.54 1407.62"/><path class="cls-2" d="M2023.44,2705.21" transform="translate(-219.25 -45.12)"/><path class="cls-8" d="M3164.29,260.55s-122.24,203.72,0,285.21c0,0,40.74,285.21,163,285.21,0,0,122.24,203.72,285.21,0s122.24-285.21,122.24-285.21,81.49,40.74,81.49-81.49S3775.45,342,3775.45,342,3694,301.29,3694,382.78c0,0-122.23-122.23-122.23-163s-81.49-81.49-81.49-81.49S3245.77,138.31,3164.29,260.55Z" transform="translate(-219.25 -45.12)"/><path class="cls-8" d="M3424.25,908.45q27.72,46.26,59,90.23c10.31,14.45,20.65,32.54,34.1,44.14,21.85,18.82,51.14,19.66,74,2,33-25.53,29.77-77.51,27.59-115.07-2.07-35.75-6.81-71.38-3.77-107.23,1.71-20.14-16.82-37.53-35.33-40s-41,9.2-44.7,29.18a342.86,342.86,0,0,1-17.64,62.39c-.29.76-3.09,7.63-1.26,3.26,2-4.89-2.21,4.88-2.17,4.78q-3.29,7.19-6.92,14.2c-5.11,9.88-10.75,19.45-16.77,28.8l74.47,9.73c-1.29-3.35-2.27-6.59-3.26-10-2.64-9.22-.7,6.47-.35-3.11.09-2.33,1.51-12.24-.35-3.19a89.42,89.42,0,0,1,2.75-10.18l-50.12,28.45a125.18,125.18,0,0,1,14.16,3.4c2.06.63,4.06,1.47,6.12,2.09,5.38,1.63-5.68-3.11-.8-.31,4.23,2.43,8.61,4.44,12.71,7.1,1.82,1.17,3.55,2.45,5.33,3.68-7.11-4.9-1-.59.52.8,10.45,9.38,20.36,17.83,33.62,23,15.17,5.86,33.43,3.8,47.3-4.63,19.35-11.74,31.83-35.68,42-55.28a359.74,359.74,0,0,0,26.28-66.1c5.85-20.48-7.15-45.26-28.46-50.12-21.71-4.94-43.85,6.53-50.12,28.46-2.45,8.59-5.19,17.07-8.36,25.42-.64,1.67-5.69,13.25-2,5.12-2,4.33-4,8.65-6.09,12.91q-5.61,11.16-12.12,21.84c-1.86,3-3.78,6.06-5.75,9-1.15,1.75-2.34,3.49-3.56,5.2a14.83,14.83,0,0,1,7.08-6.84c10.56-5.77,15.41-2.62,24.28.4q3.66,3-.72-.71c-1.53-1.39-3-2.79-4.53-4.2a186.87,186.87,0,0,0-23.54-18.3,145,145,0,0,0-51.66-20.49c-22.49-4.16-42.74,6-50.12,28.45-7.31,22.24-7.23,47.93,1.21,69.85,6,15.53,16.59,26.86,33.87,29.18,16.52,2.22,31.61-5.5,40.6-19.45a371.88,371.88,0,0,0,53-132.9l-80-10.83c-2.5,29.42.18,58.73,2.44,88.07,1.08,14,2,28.06,2.17,42.12.06,7.64-.1,15.29-.63,22.91-.22,3.18-.58,6.35-.86,9.53q-.55,5,.29-2.44a41.11,41.11,0,0,1-1.12,4.79c-.32,3.59,2.19-3.8,4-5.47,7.45-6.86,20.38-7.21,29-1.79q6.35,5.44,3.12,2.18-3-3.33,2.08,3c-1.9-2.59-3.86-5.13-5.77-7.71q-13.2-17.77-25.81-36-25.22-36.42-47.93-74.48c-11-18.28-37.11-26.63-55.74-14.62-18.39,11.86-26.34,36.18-14.62,55.75Z" transform="translate(-219.25 -45.12)"/><path class="cls-8" d="M3668.22,773.87c-29.11-3.63-61,4.77-84.93,21.61l61.31,35.18c-.2-9.17-2.25,6.46.41-1.55-3,8.93.45.35,1.78-1.8,4.07-6.61,8.64-13,13-19.39l26.16-38.74L3610,748.61q.51,30.9-.09,61.81c-.42,20.4-3.25,41.56.61,61.74,5.13,26.88,27.57,50.42,55.93,51.36,23.53.78,46.6-12.1,61.68-29.8,27.36-32.12,34.79-72.32,33.21-113.54-1.5-39-5.66-79.17-25.92-113.4a40.85,40.85,0,0,0-40.59-19.45c-16.53,2.22-28.6,13.54-33.88,29.18q-13.54,40.17-24.11,81.25-5.13,20.09-9.49,40.35-2.17,10.13-4.17,20.29-1.08,5.55-2.11,11.11c-.87,4.68-5.07,12.65,1.39,1.12L3637.08,816l-1.47.82h41.13l-1-.45,18.73,24.35-.4-1.16v21.66l.25-1L3655,890.1l.89-.09c21.12-2.26,41.8-17.12,40.74-40.75-.9-20.13-18-43.16-40.74-40.74l-.89.09c-17.55,1.88-34.85,11.29-39.29,29.92-4.56,19.15,2.21,38.75,19.91,48.66,20.77,11.63,46.69,3.45,58.11-17,5.16-9.26,6-19.9,8-30.1q2.89-14.79,6.19-29.5a1115.84,1115.84,0,0,1,31.58-112.39l-74.47,9.73c1.67,2.82,3.13,5.72,4.71,8.58,4.44,8-1.63-5.78.88,2.27,1.95,6.25,3.84,12.46,5.17,18.89.43,2.05,2.22,7.67,1.75,9.72q-.9-7.25-.34-2.64c.2,1.64.38,3.29.55,4.93.68,6.57,1.14,13.16,1.53,19.75.81,13.87.45,27.41,0,41.26q-.47,4.55.34-2c-.27,1.77-.59,3.52-1,5.27-.65,3.18-1.43,6.33-2.37,9.44-.37,1.25-4,10.5-1.45,4.74s-1.81,3.22-2.43,4.31-2.45,5.68-3.86,6.16q5.29-6.51,1-1.42l-2,2.11q-2,2.07-4.17,4l3.73-2.81c-1.88,3.65-7.83,2.43-1.44,2s15.24,1.58,20,6.14a12,12,0,0,1,3.87,6q1.8,4.93.07-.85c1.43,10.39.42,0,.44-2,0-3.45.24-6.9.37-10.35q1.83-46.32,1-92.7c-.28-17.25-12.39-35.3-29.91-39.29-18.49-4.21-35.5,3.15-46,18.73L3585.22,773c-11.91,17.65-22.59,35.47-22.11,57.67.63,28.67,35,53.7,61.31,35.18,4-2.82,8.36-4.92,12.44-7.55,3.82-2.46-6.51,1.75.7-.29,2.59-.74,5.13-1.64,7.76-2.3,2.1-.52,4.23-.86,6.33-1.34,4.76-1.09-7.4.1.43.21a145.24,145.24,0,0,1,16.14.79c21.23,2.65,41.64-20.63,40.74-40.75-1.09-24.34-18-37.9-40.74-40.74Z" transform="translate(-219.25 -45.12)"/><path class="cls-8" d="M3690.11,570.88c13.87,44.87,29.16,89.56,41.6,134.85q.9,3,1.56,6.12-.48-6-.19,1.49a10.06,10.06,0,0,1,1.15-5.74q4.24-4.74-.57.59c-6.43,6.39-13.32,12.29-19.51,18.93a215.49,215.49,0,0,0-37.22,54.18c-9.13,19.22-6,44.87,14.61,55.74,18.14,9.58,46,5.94,55.75-14.61A199.3,199.3,0,0,1,3763.13,795c1.3-1.88,3.53-4.58.82-1.24,1.66-2.06,3.38-4.07,5.14-6.05,3.52-3.95,7.24-7.72,11.09-11.35,22.61-21.37,37.51-44.14,33.15-76.6-3.4-25.32-13.65-50.25-21.18-74.59l-23.47-75.91c-6.28-20.33-28.72-35.38-50.12-28.46-20.47,6.63-35.2,28.32-28.45,50.12Z" transform="translate(-219.25 -45.12)"/><path class="cls-3" d="M2063.24,2771.77a484.26,484.26,0,0,1,58-45.59c20.63-13.71,37.69-19.76,62.28-24.37,23.88-4.48,47.1-8.6,71.56-7.87a75.23,75.23,0,0,1,15.58,1.82c1.09.25,12.35,3.85,8.15,2.12,2.34,1,12.43,7.61,10.61,6.06,5.62,4.79,4.87,5,7.33,9.4,10.74,19.19,37,25.58,55.74,14.62,19.33-11.31,25.41-36.48,14.62-55.75-38.6-68.91-122.73-63.22-189.55-51.8-32.49,5.56-62.93,13.34-91.08,31.25-28.69,18.24-55.68,39.63-80.82,62.48-16.28,14.81-15,42.59,0,57.63,16.21,16.2,41.29,14.84,57.62,0Z" transform="translate(-219.25 -45.12)"/><path class="cls-3" d="M2152.76,2667.37c-73.62,33-135.42,87-166.54,162.44-6.1,14.78,3.16,34,14.6,42.83,13.79,10.66,29.92,10.23,45.25,3.19,43.37-19.91,83.13-46.24,124.29-70.17,40.52-23.55,75.41-41.11,121.74-49.68l-21.67-78.58c-75.1,24.73-151.48,50.29-217.88,94.25-13.86,9.17-21.72,23.77-19.46,40.59,2,14.74,13.5,31.05,29.19,33.88,34.46,6.2,66.6,2,97.95-13.78,19.08-9.61,26-38.05,14.62-55.75-12.57-19.49-35.34-24.89-55.75-14.61-4.46,2.13-5.13,2.52-2,1.16l-4,1.41c-2.15.6-13.11,3.37-11.28,3.07,2.41-.4-7.62.4-9.52.39-2.14,0-4.29-.05-6.43-.21q5.58,1.15-1.9-.26l9.74,74.47c62.81-41.58,126.78-62.44,198.42-86,20.2-6.65,35.46-28.46,28.45-50.12-7.27-22.48-27.61-32.62-50.12-28.46-99,18.32-176.11,87-265.49,128.06l59.86,46c-2.9,7,1.59-3.12,2.27-4.49q3-6.07,6.46-11.93a207.36,207.36,0,0,1,12.8-19.34q2.52-3.41-.45.59,2.45-3,5-5.94,3.81-4.41,7.84-8.63c5.39-5.65,11.05-11,16.92-16.2,2.95-2.59,6-5.1,9-7.58,9.8-8-6.08,4.12,4.26-3.19,6.46-4.57,13-9,19.68-13.2a385,385,0,0,1,45.31-23.84c19.51-8.76,25.67-38.62,14.62-55.75-13-20.17-34.87-24-55.74-14.61Z" transform="translate(-219.25 -45.12)"/><path class="cls-3" d="M1971.06,2980.53l119.94,71c40.76,24.13,80.13-30.34,49.38-64a392.61,392.61,0,0,1-50.09-68.11c-6.42-11-13.09-23.08-17.2-33.63,0,.14-2.14-7.14-1.43-3.81,0,.06.13-7.41-.26-4,.66-5.87,4.23-14.73,6-18.75,6-13.83,8-27.38,0-41.12-7-11.91-21.05-20.91-35.18-20.18-31.19,1.59-59.07,20.52-68.84,50.87-9.22,28.65,1.67,58.68,23.21,78.66,19,17.63,42.84,30.14,63.56,45.63,19.78,14.79,38.35,31.2,56.2,48.26,24.51,23.41,71,7.57,69.55-28.81-1.16-29.39-2.77-58.74-4.65-88.09q-1.32-20.53-2.77-41.07c-1.05-15-.54-31.41-4-46-3.87-16.52-15.79-29.61-32.62-33.82-16-4-32.1,2-46.29,8.95a118.55,118.55,0,0,0-53.44,53.35c-12.2,24.85-1.6,50.57,24.35,59.85,24.35,8.71,48.28-4.07,69.94-14.09,18.88-8.74,37.22-18.58,55.53-28.43,35.45-19.07,69.57-37.63,108.2-48.4,21.19-5.91,34.3-28.86,28.45-50.12s-28.85-34.39-50.12-28.46c-38.3,10.68-74.33,28.15-109.33,46.78-16.84,9-33.54,18.19-50.53,26.86-7.71,3.94-15.47,7.77-23.33,11.41-2.55,1.17-7.08,3.36-9.26,4.2l-3.87,1.48q-10.92,2.76,6,.19l24.35,59.86c7.06-14.39,15.2-22.55,29.36-24.85h-21.66l2.5.76-24.35-18.72q-4.83-18.21-3.07-4.24.42,5.88.83,11.74.63,8.79,1.24,17.6,1.42,20.54,2.73,41.07,2.6,41.09,4.28,82.22l69.56-28.82a755.12,755.12,0,0,0-89.85-73.35c-12.51-8.72-25.6-15.81-32.91-23.45q2.22,3.79,0,.26-2.13-3.7-.13.66c-.59,2.19-.52,5.27-1,7.57-.78,3.82-6.18,3,.06.43-3,1.2-4.1,3.38-8,3.57l-35.18-61.3c-8.9,20.63-17.46,40.9-16.82,63.88.64,23.36,11.42,44.94,22.22,65.1,19,35.52,43.2,68.36,70.36,98.07l49.37-64-119.94-71c-18.94-11.21-44.69-4.29-55.75,14.62-11.2,19.15-4.37,44.5,14.62,55.74Z" transform="translate(-219.25 -45.12)"/><path class="cls-3" d="M2342.17,2764.72c52.43,0,52.52-81.49,0-81.49s-52.52,81.49,0,81.49Z" transform="translate(-219.25 -45.12)"/><path class="cls-3" d="M2391.67,2773.65l-8.89-31.05c-1.35-4.7-2.6-9.43-4.25-14-2.72-7.59-6.38-14.61-9.8-21.84l4.11,9.73a19.23,19.23,0,0,1-1-3.15l1.46,10.84a6.78,6.78,0,0,1-.05-2.06l-1.45,10.83.23-1-4.1,9.73a5.31,5.31,0,0,1,.92-1.68l-6.37,8.25a5.84,5.84,0,0,1,1.24-1.14l-8.24,6.37a7,7,0,0,1,1.52-.78l-9.73,4.1a17.65,17.65,0,0,1,2.6-.65l-10.83,1.45a38.86,38.86,0,0,1,8.69.17l-10.83-1.45a51.43,51.43,0,0,1,12.71,3.43l-9.74-4.1a26.86,26.86,0,0,1,5.57,3.1l-8.25-6.37a9.34,9.34,0,0,1,1.37,1.37l-6.37-8.24a6.63,6.63,0,0,1,1,1.62l-4.11-9.73.28.92c3.06,10,9.62,19,18.73,24.35,8.73,5.11,21.6,7.28,31.39,4.11s19.37-9.3,24.35-18.73,7.36-20.8,4.11-31.39a51,51,0,0,0-5.35-12.28c-4.51-7-9.32-11.15-16-16-5-3.63-11.29-5.71-17-7.89a47.82,47.82,0,0,0-9.26-2.5c-6.29-1-13-2.37-19.49-2-9.08.44-17.81,2.15-25.77,6.74a47.64,47.64,0,0,0-21.63,27.6,53.09,53.09,0,0,0-1.69,11.83c0,.7,0,1.35,0,2.06a51.88,51.88,0,0,0,4.51,18.84c1.9,4.51,4.26,8.68,6.24,13.14l-4.11-9.74c3.18,7.59,5.12,15.68,7.38,23.57l7.26,25.35a42.33,42.33,0,0,0,18.73,24.35c8.73,5.11,21.6,7.28,31.39,4.11s19.37-9.3,24.35-18.73c5.1-9.64,7.18-20.67,4.11-31.39Z" transform="translate(-219.25 -45.12)"/><path class="cls-3" d="M2336.75,2738.52c-44.6,21.47-89.64,42.22-133.79,64.6-42.58,21.58-84.37,51-105.66,95.13-7.21,14.95-7.62,31.69,3.18,45.25,11.07,13.9,25.82,17.1,42.83,14.6,50.76-7.46,99.49-23.18,145.65-45.51,42.83-20.72,78.21-45.91,122.89-55.24l-31.39-74.47c-98.95,53.59-183,131-246.23,224-12.38,18.2-3.46,45.17,14.61,55.75,20.12,11.76,43.34,3.63,55.75-14.62,54.42-80,129.83-147.53,217-194.74,17.66-9.57,24.52-33,16.67-50.88-8.45-19.23-27.67-27.85-48.07-23.59-48.48,10.12-90.4,37.22-134,59.29-40.62,20.59-87.18,34.5-134.58,41.47l46,59.85c2.55-5.29,5.45-10.21,8.47-15.23,3.54-5.87-.73-.14,4.21-5.62,2.93-3.26,5.91-6.47,9.06-9.52q3.17-3,6.48-5.92,5.79-4.64,2-1.9c16.55-13.18,36.19-22.85,55.09-32.13,41.48-20.37,83.27-40.13,124.9-60.18,19.83-9.54,25.09-37.84,14.62-55.74-11.85-20.26-35.85-24.2-55.75-14.62Z" transform="translate(-219.25 -45.12)"/><path class="cls-3" d="M2223.26,3020.63a177.39,177.39,0,0,0,38.69,29.83,40.9,40.9,0,0,0,52.56-10.49c11.72-15.17,12.07-40-3.19-53.5a162.41,162.41,0,0,1-14.16-14.58c-1.91-2.34-1.16-1.38,2.22,2.88q-1.59-2.19-3.08-4.46c-2-3.08-3.71-6.31-5.6-9.46q-2.37-4.95-.34-.3,1.88,4.71,0-.45-1.57-6.69-.08,2.51.06-6.59-1,4c2-7.57-4.94,7.32-.9,1.29a22.1,22.1,0,0,1-8.22,8.29q-9.52,3.43-3.36,1.61-10.53,1.07-3.85.81,5.1.34-.62-.31c-7.64-1.66,2.68.83,4,1.2,3.52,1,7,2.12,10.42,3.37l2.56,1q6.16,2.47-2.17-.92c2.66-1.11,14.27,7.46,16.86,9.08,1.93,1.2,8.18,4.06,9,6.15q-6.91-5.43-1.79-1.31,2.11,1.76,4.15,3.58l57.62-57.62a81.86,81.86,0,0,1-7.77-7c-7-7.29-.16.11-.33.21-.4.24-5.06-8.2-5.5-8.9-4.37-7,1.88,7.55-.06.15a56.7,56.7,0,0,1-1.64-5.54q.78,9.15.43,2.28-1.68,8.84-.11,2.95l-2.17,5.54q3.48-5.31-2.19,2.69,4.65-4.35-2.91,1.73a45,45,0,0,1,4-2.57q4.27-2.14-.28-.19-4.83,1.88.23,0,2.61-.87,5.3-1.48c7.63-2.43-8.9.14,1.46.06s-6.24-2.48,1.46-.22c1.3.38,12.53,3,5.31,1.24q-5-2.19-.41.05c1.44.79,2.85,1.63,4.21,2.54,6.68,3.78-6.64-6.26.34.62.89.85,1.74,1.74,2.56,2.67q4.14,4.92-1.82-2.44c.92,1.36,1.79,2.75,2.59,4.19q2.94,5.8-.93-3.07c4.32,10.26,8.7,18.48,18.72,24.35,8.74,5.11,21.61,7.28,31.4,4.11s19.37-9.3,24.35-18.73c4.73-9,8.25-21.57,4.11-31.39-10-23.66-24.92-44.18-48.83-55.36a99.49,99.49,0,0,0-87.59,1c-27.78,13.78-43.19,42.32-39.08,72.86,3.34,24.85,18.06,49.58,37.55,65.28,8.7,7,17.18,11.93,28.81,11.93,10,0,21.93-4.44,28.81-11.93,14.15-15.41,17.08-42.58,0-57.62a203.58,203.58,0,0,0-60.79-37c-23.49-9.38-50.29-12.81-73.23.06-27,15.13-36,50.63-26.31,78.63,7.86,22.79,23,43.72,41,59.63l49.38-64c-2.4-1.36-4.78-2.75-7.1-4.24-1-.62-10.23-7.16-4.86-3.19,5.2,3.85-2.33-2.09-3.3-3-2.4-2.15-4.69-4.4-6.94-6.7-14.94-15.25-42.84-16.1-57.62,0-15.06,16.4-15.94,41.35,0,57.62Z" transform="translate(-219.25 -45.12)"/><path class="cls-3" d="M2331.41,2900.78c1.35,1,2.69,2,4,3l-8.24-6.37A122.55,122.55,0,0,1,2348.7,2919l-6.37-8.25a122.31,122.31,0,0,1,11.77,18.63,39.21,39.21,0,0,0,40.6,19.45,30.26,30.26,0,0,0,15.15-4.83c8.7-5.61,16.36-14,18.72-24.35l1.46-10.83a40.6,40.6,0,0,0-5.56-20.57c-6-11.62-13.91-22.25-22.42-32.12s-18.86-18.13-29.51-25.74a30.23,30.23,0,0,0-15.15-4.83A41.84,41.84,0,0,0,2316.8,2845c-5,9.45-7.51,20.91-4.11,31.39l4.11,9.74a40.91,40.91,0,0,0,14.61,14.61Z" transform="translate(-219.25 -45.12)"/><path class="cls-4" d="M1901.32,2717.37l127.29-2s-28.47,283.79-69,279.72l-162.16-16.27-145.9-178.42Z" transform="translate(-219.25 -45.12)"/><path class="cls-7" d="M841.86,1116.18,719.62,1238.41s-203.72,122.23-285.21,163-203.72,488.93-203.72,488.93c-122.23,651.91,774.14,937.12,814.89,1018.61,0,0,651.91,122.23,774.14,81.49l81.49-285.21-383.27-158.79" transform="translate(-219.25 -45.12)"/><path class="cls-9" d="M3578,1066.86c-13.33-.4-26.66-.44-40,0q-9.52.27-19,.82c-5.64.33-11.58.49-17,2a44.77,44.77,0,0,0-26.55,20.56c-10.33,17.91-4.37,41.09.83,60a262.11,262.11,0,0,0,15.94,41.75c7.14,15.19,15.68,30.86,30.45,39.79,15.12,9.14,33.15,7.31,48.06-.88,8-4.38,13.56-11.68,19.18-18.54a659.27,659.27,0,0,0,48.36-66.63c3.39-5.4,6.67-10.63,8.41-16.94a42.85,42.85,0,0,0-11.27-41.33c-11.56-11.22-27.05-12.67-42.29-13.66-17.28-1.12-35.26,1.23-51.9,5.91a42.31,42.31,0,0,0-24.35,18.72c-5.11,8.74-7.27,21.61-4.1,31.4,6.76,20.91,28.14,34.64,50.12,28.46a130.78,130.78,0,0,1,17.65-3.69l-10.84,1.46a126.31,126.31,0,0,1,32.39.15l-10.83-1.45a43.46,43.46,0,0,1,4.51.8l-18-10.47.7.57-11.93-28.81.09,1.1,5.56-20.56c-4.43,9.38-11.28,18.22-17.15,26.76-6.1,8.9-12.48,17.61-19.06,26.16l6.37-8.24q-5.24,6.75-10.65,13.36c-3.23,3.93-6.33,8.33-10.37,11.48l8.25-6.37a8.85,8.85,0,0,1-2.37,1.21l9.73-4.1-1.27.27,10.83-1.45h-1.32l10.83,1.45-1.35-.31,9.73,4.1a7.46,7.46,0,0,1-2.34-1.41l8.25,6.37a13.52,13.52,0,0,1-1.95-2.12l6.37,8.25c-6.43-9.07-11.3-19.54-15.63-29.75l4.11,9.73a205.53,205.53,0,0,1-13.55-49.28l1.45,10.83a8.48,8.48,0,0,1,0-2.93l-5.56,20.57.59-1.29-6.37,8.25.84-.74-8.24,6.37,1.05-.45-9.73,4.11,1.17-.23-10.84,1.45c21.19-1.93,42.77-1.75,64-1.11s41.71-19.2,40.75-40.74c-1-22.63-17.9-40.06-40.75-40.75Z" transform="translate(-219.25 -45.12)"/><path class="cls-9" d="M3517.4,1216.09c-.23,41.62-19.72,81.89-31.87,121.06q-19.26,62.05-33.35,125.53c-5.7,25.54,33.57,36.45,39.29,10.83q14.72-65.79,34.81-130.21c13-41.59,31.62-82.91,31.86-127.21.14-26.22-40.6-26.25-40.74,0Z" transform="translate(-219.25 -45.12)"/><path class="cls-9" d="M3548.64,1197a1615.51,1615.51,0,0,0,45,232.65c6.88,25.28,46.19,14.55,39.29-10.83a1544.09,1544.09,0,0,1-43.5-221.82c-1.3-10.93-8.43-20.37-20.37-20.37-10,0-21.69,9.37-20.37,20.37Z" transform="translate(-219.25 -45.12)"/><path class="cls-9" d="M3540,1227.76c-9.1,110.61-33.59,219.5-37.17,330.62-.72,22.53,35.67,28.28,40,5.41,14-73.71,27.63-147.91,25.38-223.27-.55-18.36-29.53-30.1-38-10.28-18.75,44.08-33.09,89.18-42.18,136.25l40,5.42a579.77,579.77,0,0,1,22.46-102.68c7.87-25.26-30.66-35.31-39.29-10.83a740.08,740.08,0,0,0-34.32,136.79c-6.33,42.55-14.72,91.56-4.83,134,4.33,18.57,27.66,18.07,37.23,4.87,24.49-33.76,38.39-73,51.67-112.19l-40-5.41c-6,48.93-14.16,97.52-24.17,145.79l40,5.41c-5.46-52.14,0-105.49,5.18-157.47,5.06-50.31,10.52-102.43,31.45-149.05l-32,4.12c57.54,60.13-15.92,154.8-32.66,217.26-6.88,25.63,30.58,35.27,39.28,10.83,15.86-44.51,36.49-89.75,47.25-135.78,10.44-44.69-8.11-93.3-13.93-137.78l-40,5.42a716.32,716.32,0,0,1,16.57,78.89c3.92,25.84,43.19,14.86,39.28-10.83a714.63,714.63,0,0,0-16.56-78.9c-5.76-21.39-43.07-17.94-40,5.42,2.8,21.35,5.47,42.76,9.62,63.9,4.84,24.65,10.92,45.79,3.69,70.8-12.5,43.27-30.05,85.6-45.16,128l39.28,10.83c22.05-82.23,97-178.73,22.19-256.9-8.32-8.7-26.61-7.89-32,4.12-21.82,48.64-29.43,100.33-35.24,152.93-6.34,57.3-13,116.6-7,174.16,2.21,21,35,29.77,40,5.42,10.75-51.85,19.18-104.07,25.63-156.62,2.92-23.89-33.07-25.94-40-5.42-12.24,36.13-25,71.31-47.56,102.46l37.24,4.86c-9.16-39.25.67-89.13,7.39-128.26a742.75,742.75,0,0,1,31.76-120.85l-39.29-10.83a638.2,638.2,0,0,0-23.92,113.51c-2.75,22.67,35.68,27.88,40,5.41,8.37-43.38,20.76-85.83,38.07-126.51l-38-10.29c2.14,71.84-10.56,142.17-23.93,212.44l40,5.42c3.57-111.11,28.07-220,37.16-330.62,2.15-26.13-38.61-26-40.74,0Z" transform="translate(-219.25 -45.12)"/><path class="cls-9" d="M3589.73,1232.21c15.3-35.32,42.17-63.63,61.61-96.52,5.42-9.18,2.38-22.75-7.31-27.87s-22.08-2.5-27.87,7.3c-19.44,32.9-46.31,61.2-61.61,96.53-4.23,9.75-3.22,22.31,7.3,27.87,8.79,4.64,23.35,3.13,27.88-7.31Z" transform="translate(-219.25 -45.12)"/><path class="cls-10" d="M3508.57,1201.54" transform="translate(-219.25 -45.12)"/><path class="cls-11" d="M3551.36,1055.06s-40.75,163-81.49,244.47-40.75-326-40.75-326V932.83Z" transform="translate(-219.25 -45.12)"/><polygon class="cls-11" points="3596.95 663.61 3328.52 1023.85 3433.97 1152.55 3637.69 704.36 3596.95 663.61"/><path class="cls-8" d="M2087,3061.62a41.17,41.17,0,0,1,1.34-4l-2.05,4.87a42.31,42.31,0,0,1,3.43-6.53c.55-.87,1.35-1.71,1.81-2.63q-3.18,4-1.22,1.58c.46-.56.92-1.11,1.39-1.65,3-3.56,6.38-6.86,9.7-10.17s6.83-6.62,10.46-9.71c2.94-2.5-4.12,3-.24.18,1-.74,2.07-1.46,3.14-2.13a53,53,0,0,1,6.71-3.54l-4.87,2.05a30.51,30.51,0,0,1,5.74-1.78l-5.42.73a16.5,16.5,0,0,1,3.65,0l-5.42-.73a8,8,0,0,1,1.85.52l-4.87-2.06q2.74,1.43-1.69-1.66-3-4.55-1.56-1.85l-2.06-4.87.28.9-.72-5.41a6.34,6.34,0,0,1,.08,2.13l.72-5.42a8.31,8.31,0,0,1-.56,2.08l2-4.86a28.91,28.91,0,0,1-2.24,3.84c-1.81,2.85,1.22-1.53,1.22-1.52a8.53,8.53,0,0,1-1.38,1.67,95.24,95.24,0,0,1-6.67,7.11c-4.17,4-8.63,7.79-13.09,11.5-10.4,8.64-24.76,18.46-27.51,32.55-1.33,6.83-.66,14,3,20,4.65,7.68,12.92,12,21.75,12.51a37.59,37.59,0,0,0,23.48-7.12c12.4-9.06,20.64-22.33,29.73-34.5,5.2-7,11.23-13.77,13.65-22.34a30,30,0,0,0-12.75-33.88c-9-5.68-22.85-2.2-27.88,7.31-5.3,10-2.33,21.81,7.31,27.87a13.66,13.66,0,0,1-4.87-5,8.63,8.63,0,0,1,.78,1.51l-2.06-4.86a12.89,12.89,0,0,1,.62,2.52l-.72-5.41a16.37,16.37,0,0,1,0,2.62l.72-5.41a19.63,19.63,0,0,1-.78,3l2-4.87c-2,4.73-5.49,8.72-8.54,12.8l-10,13.42c-1.48,2-3,4-4.45,6-2.22,3,3.31-4.12.37-.53-.75.92-1.52,1.83-2.33,2.71-1.36,1.5-2.9,2.79-4.34,4.2,4.11-4.05,2.49-1.83,1-.88a25.61,25.61,0,0,1-3.42,1.75l4.87-2.06a21.81,21.81,0,0,1-4.64,1.19l5.42-.72a19.37,19.37,0,0,1-3.14,0l5.42.73a7.19,7.19,0,0,1-2.05-.58l4.87,2.05a17.31,17.31,0,0,1,4.77,4.69l2.05,4.87a7.12,7.12,0,0,1-.5-1.73l.73,5.41a7.48,7.48,0,0,1-.05-1.83l-.73,5.41a12,12,0,0,1,.74-2.74l-2.06,4.87s.76-1.73,1-1.77-3.62,4.1-1.27,1.71c.86-.87,1.7-1.77,2.58-2.63,1.95-1.91,4-3.75,6-5.55,4.25-3.72,8.65-7.28,13-10.91s8.27-7.08,12.09-11c4.78-4.87,9.89-10.38,13.06-16.43,5.77-11,5-25.19-4.89-33.68a31.15,31.15,0,0,0-31.73-5.29c-13.22,5-23.86,13.77-33.8,23.65-10.72,10.66-21.11,22-25.27,36.92-2.85,10.26,3.52,22.62,14.23,25.06s22-3.24,25.06-14.23Z" transform="translate(-219.25 -45.12)"/><path class="cls-8" d="M2132.53,3094.26c13.15-15,26.4-30.17,41.78-43,0,0,5-4,2.55-2.11,2.24-1.73,4.57-3.36,6.92-4.94,4.09-2.75,8.37-5.71,12.92-7.65-2.88,1.23,3.4-.88,3.28-.81q-9.2,3.28-12.88-12.74c-.06,2.17,0,2.5.13,1s.09-1.19-.4.88q1.36-3-.29.22a37.64,37.64,0,0,1-2.1,3.21c1-1.31,1-1.43.12-.34a240.94,240.94,0,0,1-44.14,37.86,49.9,49.9,0,0,1-5.23,3.22c1.81-.62,1.56-.56-.73.17a2.89,2.89,0,0,1,2.39.14c-5.27-.58-10.9-3.36-15.87-5l-32.61-10.95c-10.11-3.39-22.71,3.91-25.06,14.23-2.56,11.26,3.41,21.42,14.23,25.06l32.61,10.95c12.15,4.08,24.2,8.49,37,4.3,11.51-3.76,21.15-12.07,30.56-19.38,8.1-6.28,16-12.85,23.49-19.8,16.39-15.12,38-40.36,20.53-63-9.84-12.75-27.74-12-41.23-6.34-10.22,4.31-19.27,10.65-28,17.4-18.3,14.14-33.65,31.24-48.82,48.59-7,8-8.48,21,0,28.81,7.68,7.06,21.32,8.57,28.81,0Z" transform="translate(-219.25 -45.12)"/><path class="cls-8" d="M2111.24,3119.1c8.76,5.06,20.47,6.29,30.46,6a97.81,97.81,0,0,0,27.6-4.84,134,134,0,0,0,46.52-26.62c14.56-12.91,23-30.61,25-49.82,1.17-11.27-1.69-22.09-8.92-30.87-6.27-7.62-15.63-11.35-24.66-14.54-10.07-3.56-22.74,4-25.06,14.23-2.6,11.4,3.45,21.25,14.22,25.06.64.22,3.43,1.6,4.07,1.49-1.48.26-3.43-1.65-.26,0,.63.33,1.25.68,1.85,1.07q2.25,1.53.18.08c-1.32-1-1.32-.93,0,.3l-1.52-1.87c-3.09-5.51,1.1.73,0,.94-.24.05-.26-4.63-.36.07a19.14,19.14,0,0,1-.28,4c1.25-5.06-.25.39-.43,1.12-.39,1.62-.92,3.18-1.39,4.78-1.08,3.66,1-1.56-.13.52-1.44,2.71-2.85,5.33-4.53,7.91-2.09,3.19,1.34-1.22-.32.37-1.16,1.11-2.16,2.41-3.3,3.54-1,.95-1.94,1.87-2.95,2.77-.51.45-4.77,3.85-.9.91a118.32,118.32,0,0,1-15.34,9.8c-2.51,1.36-5.1,2.51-7.65,3.78,4.14-2-.78.28-1.44.53q-2.38.88-4.82,1.64-4,1.26-8.17,2.12c-.79.16-6.15,1.58-1.19.33a22,22,0,0,1-4.14.35,75,75,0,0,1-9.12-.14c-5.23-.34,3.94,1.08-1.17-.23-1.46-.38-5.25-2.29-1.27,0-9.23-5.34-22.71-2.45-27.87,7.31s-2.55,22.17,7.31,27.87Z" transform="translate(-219.25 -45.12)"/><path class="cls-8" d="M1983.55,3037.47c17.68,7.59,35.47,17,54,22.05,19.05,5.22,39.07,5,58.6,3.61,10.61-.76,20.89-8.83,20.37-20.37-.46-10.39-9-21.19-20.37-20.38a252.68,252.68,0,0,1-26.82.82c-3.82-.13-7.63-.39-11.42-.84,4.47.53-3.19-.63-4-.79-1.87-.39-3.72-.83-5.56-1.34a113.08,113.08,0,0,1-11.43-3.89l-2.57-1c2,.87,1.93.83-.25-.1l-5.25-2.25-24.82-10.66c-5.24-2.25-9.95-3.64-15.69-2.06-4.73,1.3-9.85,5-12.18,9.37-4.63,8.76-3.14,23.38,7.31,27.87Z" transform="translate(-219.25 -45.12)"/><path class="cls-8" d="M2228.89,2645.58c-20.77,17.17-34.45,40.84-54.09,59.1-4.62,4.29-9.87,7.82-14.49,12.09-6.17,5.68-9.91,12.43-13,20.12a399.09,399.09,0,0,0-14.4,42c-7.12,25.84-16.85,72.94,17.95,83.51,28.9,8.78,53.3-25.83,63.58-48.15,13.88-30.14,22.2-63,32.22-94.59,8-25-31.36-35.77-39.29-10.83-8.8,27.69-15.86,56.93-27.52,83.58-4.4,10.06-10,20.2-18.33,27.54-.75.68-1.51,1.35-2.29,2q-4.74,2.41.62,1.14c1.26.64,8.24,2.31,7,3.39.82-.71.17-9.53.29-11a88.42,88.42,0,0,1,1.26-9.46c2.79-14.88,7.54-29.27,12.68-43.47,1.85-5.1,3.11-11.54,6.49-15.79s9.61-7.48,13.84-11.22c20.86-18.42,34.75-43.29,56.28-61.09,8.49-7,7.26-21.55,0-28.81-8.4-8.4-20.3-7-28.81,0Z" transform="translate(-219.25 -45.12)"/><path class="cls-8" d="M2194.16,2712.33c-1.09,4.35-2.35,8.65-3.83,12.89q-1.11,3.18-2.34,6.3c-.35.9-.71,1.79-1.08,2.68q1.23-2.86-.2.45c-3.57,7.94-7.4,15.75-11.29,23.54-8.37,16.78-16.71,33.82-21.68,52l40,5.42c-.06-1.15-.4-3.08-.46-.82a17.77,17.77,0,0,1,1-4.09c.77-2.69,1.81-5.31,2.81-7.92.31-.83,1.19-2.93.34-.93.55-1.28,1.12-2.56,1.7-3.82,1.16-2.54,2.37-5.06,3.6-7.57,5.15-10.44,10.65-20.72,16.32-30.89,5-9,10-18.19,15.82-26.72.63-.92,1.31-1.82,1.94-2.74,1.65-2.4-2.12,2.24-.09.18,1.54-1.57,2.9-3.28,4.51-4.8.33-.31,3-2.63,1-1s.79-.47,1.21-.73c.91-.57,1.89-1,2.8-1.56,2.33-1.43-4.32,1.48.41,0,10.15-3.2,17.7-14.33,14.23-25.06-3.3-10.19-14.18-17.66-25.06-14.23-25.72,8.1-38.59,32.23-50.94,54.27-6.37,11.38-12.58,22.89-18.27,34.63-6.45,13.31-14.42,28.62-13.61,43.83.55,10.19,7.34,18.62,17.67,20A20.36,20.36,0,0,0,2193,2821c1.19-4.33,2.54-8.61,4.09-12.83.77-2.11,1.62-4.19,2.44-6.28q.81-2-.19.43c.52-1.18,1-2.36,1.57-3.53,3.57-7.94,7.51-15.71,11.4-23.51,8.34-16.76,16.54-33.88,21.11-52.12,2.59-10.32-3.33-22.58-14.23-25.06-10.56-2.41-22.29,3.17-25.06,14.23Z" transform="translate(-219.25 -45.12)"/><path class="cls-8" d="M2252.15,2685.9c-3.77-.38,1,1,2.34,1.81,3.12,1.82,6.14,3.83,9.17,5.78q9.59,6.18,19,12.67c12.52,8.63,24.82,17.59,37.09,26.58,5.66,4.15,11.12,8.76,17.49,11.76,8,3.75,15.91,4.16,24.51,3.23,15.72-1.72,30.61-4.11,44.67-11.76,20.26-11,6.49-43.71-15.7-37.23-10.23,3-20.75,6.47-30.41,4.08l4.87,37.23a131.89,131.89,0,0,1,40.64-13.34c10.86-1.81,16.92-15.25,14.23-25.06-3.17-11.52-14.17-16-25.06-14.23a165.62,165.62,0,0,0-50.38,17.45c-15.41,8.18-11.84,33.09,4.87,37.23,17.7,4.39,34.92.93,52.07-4.08l-15.7-37.23c-8.13,4.43-21.49,7.74-31.35,6.83a1.92,1.92,0,0,1,1.11.7,37.38,37.38,0,0,1-4.12-2.58c-3-2-5.93-4.33-8.88-6.5-5.36-3.93-10.73-7.87-16.12-11.77-11.55-8.36-23.19-16.61-35.07-24.48-12.44-8.25-24-16.28-39.23-17.83-11-1.12-20.37,10.16-20.37,20.37,0,11.94,9.38,19.25,20.37,20.37Z" transform="translate(-219.25 -45.12)"/><path class="cls-8" d="M2367.41,2713.92a141.33,141.33,0,0,1-47.94-13.1,164.34,164.34,0,0,1-22.45-13.09c-8.78-6.09-16.82-12.85-28-13.65-19.34-1.37-34.52,16.52-45.79,30.23-13.15,16-16.6,40.58,4.09,52.48,7.42,4.27,16.56,5.71,24.66,8.17,9.23,2.81,18.37,5.91,27.36,9.4a262.73,262.73,0,0,1,48.15,24.63c16,10.42,29.54,23.7,44.41,35.62,18.46,14.8,34.39,4,49.34-9.75,15.64-14.42,29.15-32.28,31.47-54a54.38,54.38,0,0,0-6.8-32.95c-2.59-4.54-11.44-12-11.61-17.15L2414,2741.13c-4.14-.18-4.46-4.27-2.55,0a27.12,27.12,0,0,0,2.19,3.45,79.18,79.18,0,0,1,6.71,12.38c.3.72,1.15,4.25,1.49,4.36-1.27-.39,2.92-7.94.1-6,1.73-1.18,6.54,2.48,7.43,1.14.25-.37-3.19-5.83-3.47-6.39-8.29-17.08-20.41-34.75-42-33.2-11.88.85-24.8,12.53-19.64,25.78,5.55,14.28,11.38,29.21,14.34,44.28v-10.83l-.26,1.67,5.24-9-1.2,1.24,9-5.24q11.49,5,6.83.77a34.62,34.62,0,0,1-3.12-3.51c-2.07-2.44-4-4.94-6.19-7.25a107.9,107.9,0,0,0-15.12-12.59c-10.76-7.71-23.07-13-35.34-17.77-27.54-10.78-56-19.46-84-29-24.86-8.5-35.54,30.85-10.83,39.29,22.31,7.62,44.63,15.19,66.92,22.86,17,5.83,35.39,12,48.42,24.9,6.8,6.75,11.72,14.86,20.44,19.52,10.56,5.64,24.63,4.57,33-4.39,8.78-9.37,5.86-21.2,2.65-32.22-3.32-11.36-7.2-22.52-11.49-33.55l-19.65,25.79c-1.87.14-1.46-3.51,1,1.15,1.37,2.61,2.71,5.2,4,7.87,3.23,6.84,6.62,13.53,12.06,19,15.85,15.87,36.66,11.47,51.64-2.9,15.41-14.79,9.18-34.64.61-51-8.45-16.14-19.56-30.49-39.17-31.33-10.75-.46-20.73,9.71-20.37,20.37a47.39,47.39,0,0,0,9.43,26.89c4.42,6.11,10.37,11.63,9.36,19.77-.9,7.22-5.72,13.8-10.43,19.06a143.89,143.89,0,0,1-10.71,10.68c-1.39,1.25-2.85,2.42-4.23,3.67-.94.85-5.16,2.67-1.83,1.79H2396c4.36,1.21-3.05-3.36-4.11-4.27-2.92-2.51-5.81-5.06-8.73-7.58-5.52-4.76-11.11-9.42-16.88-13.9a261,261,0,0,0-33.63-22.3c-24.14-13.35-50.26-23.34-76.75-30.93-2.53-.73-5.61-2.22-8.17-2.28q-8.13-2.82,4.23,12.39a5.2,5.2,0,0,1,1.75-2.63c4.66-3.5,8.47-9.16,12.71-13.25,1.3-1.25,2.62-2.49,4-3.7q4.76-3.81-5.34.61c-.09.47,6.65,4.7,7.2,5.1a170.08,170.08,0,0,0,15.93,10.47c24.43,14,51.28,21.75,79.24,24.32,11,1,20.37-10.08,20.37-20.37,0-11.86-9.37-19.36-20.37-20.37Z" transform="translate(-219.25 -45.12)"/><path class="cls-8" d="M2365.1,2827.37c17.07,19.13,34,38.41,51.2,57.4,6.43,7.09,15.39,11.21,25.07,9,9-2.11,14.18-8.47,19.3-15.64,7-9.81,12-20.86,16.34-32.06,8.78-22.73,15-48.56,14.23-73-.26-8.13-1.45-15.9-7.17-22.1-6.76-7.33-17.22-8.89-26.57-7.64-14.29,1.92-25,12.24-32.13,24.17-14.35,24-17.13,52.32-19.52,79.56-.74,8.47,6.83,17.79,15,19.64a21.24,21.24,0,0,0,23-9.36l3.52-5.32c5.9-8.9,2-22.93-7.31-27.87-10.22-5.4-21.58-2.2-27.87,7.31l-3.52,5.31,38,10.29c.36-4.11.72-8.21,1.14-12.31.2-1.9.4-3.8.63-5.7.11-.95.22-1.89.34-2.84-.27,1.95-.29,2.18-.08.69a178.28,178.28,0,0,1,5-23.1q.82-2.68,1.79-5.33c.15-.41,2.58-5.7.78-2.07a103.68,103.68,0,0,1,5.22-9.75c1-1.52,3.09-3.67.73-1.24,1.23-1.27,3.58-3.17.74-1.26a19.58,19.58,0,0,1,2.87-1.68,3.94,3.94,0,0,1-2.84,1c-1.62.1-1.44.12.56.05q-4.07-.71-.55.43l-9-5.23q-4.36-16-3.53-7.69c.07,1.38.12,2.77.14,4.16q0,3.12-.1,6.24c-.1,2.42-.29,4.84-.54,7.26-.1,1-.21,2.07-.35,3.1q.38-3-.18.78c-1.73,9-3.71,17.9-6.29,26.72-1.14,3.9-2.38,7.78-3.74,11.61-.84,2.36-1.72,4.7-2.67,7,1.34-3.29-.51,1.09-.94,2a118.4,118.4,0,0,1-6.14,11.5q-1.47,2.38-3,4.7c-.7,1-1.43,2-2.17,3a10.32,10.32,0,0,1,6.15-4.59h10.83c1.69.36,7.72,5.91,3.74,1.51-1.22-1.33-2.41-2.69-3.61-4l-6.49-7.27-13.7-15.36-27.4-30.72c-7.11-8-21.65-7.79-28.81,0-7.81,8.51-7.59,20.3,0,28.81Z" transform="translate(-219.25 -45.12)"/><path class="cls-11" d="M2395.24,2663.31l-45.84,41.9s122.23-40.75,122.23,122.23,120.8,0,120.8,0l1.43-122.23-81.48-81.49h-40.75Z" transform="translate(-219.25 -45.12)"/><path class="cls-8" d="M1980.65,3038.25c23.22,20.57,46.41,42.6,72.66,59.32,12.61,8,26.37,13.89,40.51,18.67,15.59,5.28,32.29,9.34,48.83,7.35,10.92-1.31,20.37-8.42,20.37-20.37,0-10-9.37-21.7-20.37-20.37-24.55,3-51.09-8.81-70.94-21.86-22.31-14.67-42.22-33.81-62.25-51.55-8.23-7.29-20.7-8.11-28.81,0-7.43,7.43-8.27,21.49,0,28.81Z" transform="translate(-219.25 -45.12)"/><path class="cls-12" d="M2227.16,831" transform="translate(-219.25 -45.12)"/><path class="cls-13" d="M3143.92,230.66c-5-1.13-14.41-9.75-14.23-15.66-.28,9.14,13-8.51,15.74-11.32A281.07,281.07,0,0,1,3189.51,167c32.75-22,69-37.87,106.89-48.78,38.17-11,80.95-20.67,120.85-17.06,43.22,3.92,90.76,26.6,123.88,54.31,20,16.72,48.95-12,28.81-28.81-42.51-35.57-100.89-63.51-156.8-66.55C3359.88,57.19,3301.49,71.4,3251.92,90c-48.11,18.08-93.35,44-130.36,79.92-14.46,14.05-37,33-31.34,55.64,5,20,22.79,39.87,42.87,44.37,25.54,5.72,36.45-33.56,10.83-39.29Z" transform="translate(-219.25 -45.12)"/><path class="cls-13" d="M3505.62,171.66c24.74,7,40.37,35.21,52.65,56,12.06,20.45,22.11,42,31.75,63.69,19.86,44.67,38.26,89.95,67.13,129.78,10.78,14.87,30.58,11.94,37.23-4.87a119.94,119.94,0,0,1,32.53-46.07c10.29-9.11,19.86-15.58,21.67-30.37,3.32-27-11.84-61.5-21.85-86.1-23.63-58.09-60.6-110-110.75-148.1s-113.26-60.42-176.53-60.5c-32.67,0-64.37,6.63-95.07,17.48-32.41,11.44-66,23-91.14,47.34-18.86,18.29,10,47.08,28.81,28.81,21.52-20.88,53.19-30.32,81.07-39.61,27.27-9.1,54.8-14,83.6-13.16,55.31,1.68,110.58,23.2,153.15,58.47,42.31,35.05,74.12,82.24,92.85,133.77q6.26,17.22,10.79,35c.82,3.23,6,18.28,4.8,21.42,1.47-3.82-6.91,4-7.32,4.36-21.64,17-35.93,41.26-45.89,66.43l37.23-4.87c-33.34-46-52.53-99.27-76.48-150.32-20.48-43.68-49-103.71-99.4-117.87-25.28-7.1-36.07,32.2-10.83,39.29Z" transform="translate(-219.25 -45.12)"/><path class="cls-13" d="M3148.69,238.15l130-54.45c21.09-8.84,42.15-17.74,63.26-26.51,19.08-7.91,38.78-16.06,59.58-17.68,25.83-2,26.57-40.38,0-40.74-88.08-1.21-169,36.93-245.62,76.37-23.32,12-2.73,47.18,20.56,35.18,70.19-36.14,144.3-71.92,225.06-70.81V98.77c-45.41,3.53-87.55,26.31-128.94,43.66l-134.7,56.43c-10.14,4.25-17.41,13.48-14.23,25.06,2.63,9.57,14.85,18.51,25.06,14.23Z" transform="translate(-219.25 -45.12)"/><path class="cls-13" d="M3417.8,108.44a104.84,104.84,0,0,1,34.08,17.76l10.28-38-56.67,2.89c-26.07,1.33-26.38,40.2,0,40.74,67,1.39,136.8,16.39,185.14,66.06,18.33,18.83,47.12-10,28.81-28.81-55.87-57.4-136.3-76.39-214-78v40.74l56.67-2.89c21.51-1.1,26-26,10.28-38a135.38,135.38,0,0,0-43.81-21.87c-25.18-7.5-35.94,31.81-10.83,39.29Z" transform="translate(-219.25 -45.12)"/><path class="cls-13" d="M3550.53,144.53c39.19,6.59,64.7,38,80.31,72.49,8.92,19.75,14.68,40.94,20.52,61.76,3.25,11.55,6.6,23.09,9.7,34.68.88,3.31,4.41,13,1.66,15.82-15.8,16.06,4.86,45,24.69,32,8.23-5.41,18.36-10.39,25.33-17.4,9.86-9.92,8.59-25.36-.77-35-14.64-15-30.95-28.19-45.17-43.76-28.28-31-52.91-65-77.46-98.92l-32,24.69c22.66,18.4,42.95,40.7,54.29,68,12.16,29.22,14.22,60.07,35.75,85,12.93,15,41.33-.9,34-19.82q-28.75-74.7-62.36-147.39c-4.61-10-19-12.49-27.87-7.31-10.25,6-11.94,17.84-7.31,27.87q31.38,67.88,58.25,137.66l34.05-19.82c-9-10.36-12.41-24.19-16-37.09-4.21-15.23-8.69-30.11-15.57-44.39-13.43-27.93-34.56-52-58.48-71.46-7.88-6.4-18.28-8.34-26.75-1.59-7.3,5.8-11.29,17.93-5.25,26.28,19.83,27.42,39.73,54.83,61.23,81,10.57,12.85,21.54,25.39,33.1,37.35s24.26,22.05,35.76,33.68l-5.24-9,.86,2.73,2.06-15.7c1.51-3-4.69,2.4-5.58,3l-9.5,6.24,24.69,32c20.3-20.62,10.73-48.59,3.95-72.85-7.71-27.58-15.1-55.25-26.36-81.64-19.62-46-55.94-89.65-107.77-98.36-10.84-1.82-21.94,2.86-25.06,14.23-2.69,9.77,3.32,23.23,14.23,25.06Z" transform="translate(-219.25 -45.12)"/><path class="cls-13" d="M3696,323c-54.75-77.92-94.14-165.22-189.13-201.12-102.77-38.83-212.15.36-308.2,39.21-20.39,8.24-34.77,27.14-28.46,50.12,5.32,19.34,29.6,36.75,50.12,28.45,80.32-32.48,171-71,258-41.64,73.63,24.81,106,107.36,147.27,166.11,12.63,18,35.63,26.38,55.74,14.62,17.79-10.41,27.34-37.65,14.62-55.75Z" transform="translate(-219.25 -45.12)"/><path class="cls-13" d="M3105.89,181.08c-30.13,31.68-84.43,88.46-40,130.28,21.72,20.42,54.53,18.43,77.37,1.6,17.21-12.67,30.08-30.43,46.79-43.89,71.07-57.29,166.76-73.54,253.82-90.19,21.63-4.14,34-30.12,28.46-50.13-6.22-22.63-28.43-32.6-50.12-28.45-65.71,12.57-130.93,26-192.68,52.48-26.46,11.35-52,24.81-75.26,41.8a364.78,364.78,0,0,0-38.95,32.07c-5.28,5.09-10.11,10.56-15.18,15.85a92.76,92.76,0,0,1-6.71,6.74q17.51-13.35,35.05,12.92v21.66q-3.15,3.49-.63-.13c1.38-2.34,2.85-4.61,4.41-6.83,3.3-4.94,6.74-9.93,10.4-14.61,6.45-8.25,13.61-16,20.81-23.55,36.14-38-21.39-95.71-57.62-57.62Z" transform="translate(-219.25 -45.12)"/><path class="cls-13" d="M3472.51,180.43q11.34,11.19,21.89,23.15,5.83,6.64,11.43,13.49c1.49,1.83,3,3.66,4.44,5.51.6.75,6.48,8.34,3.35,4.24s3.34,4.48,3.24,4.34q2.11,2.84,4.21,5.7,4.71,6.44,9.31,13c6.49,9.2,12.83,18.5,19.12,27.84,25.8,38.37,51.09,76.91,80.11,113,13.42,16.68,43.83,15,57.62,0,16.26-17.71,14.32-39.83,0-57.62-1.85-2.31-3.68-4.64-5.53-6.95-3.91-4.86,3.55,4.83-.14-.19-3.17-4.29-6.4-8.53-9.54-12.84-6.63-9.12-13.07-18.37-19.42-27.68-12.39-18.15-24.4-36.54-36.72-54.73-25.74-38-53-75.52-85.75-107.84-15.19-15-42.67-16.29-57.62,0s-16.22,41.63,0,57.63Z" transform="translate(-219.25 -45.12)"/><path class="cls-13" d="M3603.08,350.09c16.74,27.26,33.88,54.64,56.11,77.86,7.39,7.71,21.48,8,28.81,0,7.6-8.28,7.88-20.59,0-28.82q-7.74-8.07-14.71-16.84c-.54-.68-1-1.42-1.63-2.06.7.77,2.38,3.12.78,1-1.19-1.58-2.38-3.16-3.55-4.75q-3.3-4.51-6.48-9.13c-8.49-12.32-16.32-25.08-24.15-37.83-5.57-9.08-18.48-13.36-27.87-7.31-9.11,5.88-13.27,18.16-7.31,27.88Z" transform="translate(-219.25 -45.12)"/><path class="cls-13" d="M3123.8,298.27c62.68-28.73,124.85-60.62,189.43-84.89,59.89-22.52,124.35-34.17,185.29-8.82,24.18,10.05,34.73-29.35,10.83-39.29-64.51-26.84-136.34-16.76-200.33,6.37-70.35,25.44-137.84,60.31-205.79,91.45-23.8,10.91-3.12,46,20.57,35.18Z" transform="translate(-219.25 -45.12)"/><path class="cls-12" d="M3429.12,1002.16S3103.17,1177.29,3103.17,1218c0,0-61.12,142.6-61.12,264.84s-81.49,488.93-122.23,488.93-488.93,692.65-570.42,692.65c0,0,285.21-40.74,244.46,285.21,0,0,488.94-407.44,651.91-814.88,0,0,203.73,244.46,163,611.16S3368,3275.63,3368,3275.63H4794.06V1947.14a358.41,358.41,0,0,0-18.14-112.5c-64.68-195.77-163.39-840.7-267.07-840.7,0,0-448.19-163-529.68-122.23l-122.23-163-117.08,296.88-37.51,116-130.62,320.56-79.26,158.51-2.23,4.47-32.37-295.53" transform="translate(-219.25 -45.12)"/></svg>