<svg xmlns="http://www.w3.org/2000/svg" viewBox="0 0 928.31 838.87"><defs><style>.cls-1{fill:#ebf3ff;}.cls-2{fill:#cfd5e5;}.cls-3{fill:#7293ff;}.cls-4{fill:#24005b;}.cls-5{fill:#3d5fc1;}.cls-6{fill:#3cdc97;}.cls-7{fill:#e8b397;}.cls-8{fill:#c3c5d8;}.cls-9{fill:#91949b;}.cls-10{fill:#404144;}</style></defs><title>Asset 1</title><g id="Layer_2" data-name="Layer 2"><g id="Layer_14" data-name="Layer 14"><path class="cls-1" d="M465.61,774.31c-62.72,3-126,6-188.08-2.33s-123.78-29-169-67.49c-31.4-26.72-53.59-60.84-71.17-96.1C21,575.74,8.29,541.49,3,506.12-12.43,403.93,34.64,303,86.22,210.53c7.2-12.9,14.63-25.91,25.37-36.71,41.91-42.17,115.71-37.41,178-48.45,54.15-9.6,103.59-33.19,155.21-50.54S554.3,46.39,606.39,62.61c95.1,29.59,132.32,134.93,219.76,179.3,18.6,9.45,39.21,15.94,56.31,27.38,48.26,32.28,55.52,96.23,35.26,146.65s-61.78,91.4-98.63,133.83c-19.19,22.09-37.91,46.19-41.62,73.85-3.89,28.93,9.16,59,0,87-12.28,37.41-58.88,56.64-101.78,65.54a512.19,512.19,0,0,1-198.2,1.72"/></g><g id="Layer_9" data-name="Layer 9"><path class="cls-2" d="M468.28,823.37s38.5-1.75,55.16-12.77,57.67-49.42,57.67-49.42L541,392.9l-49-55.77H420.32V682.86Z"/></g><g id="Layer_10" data-name="Layer 10"><path class="cls-3" d="M520.63,619.35h5.24s13.09.89-25.15,32.63-44.53,8.68-44.53,8.68l55.53-32.48Z"/></g><g id="Layer_6" data-name="Layer 6"><path class="cls-4" d="M471.73,479.7s15.38,34.8,16.72,40.82,3.5,42.83,3.5,42.83,6.83,34.12,0,93-15.57,109.93-16.3,121,4.81,23.27,4.25,30.47-7.77,31-7.77,31l-136.28-7.63s-100.28-35-119.12-48.89a17.18,17.18,0,0,1-4.79-10.18c-.41-6,.13-18.75-.55-21.47a60.4,60.4,0,0,1-1.09-9.24,6.94,6.94,0,0,1,.82-2.45l1.77.14s-2-4.49-4.35-5l-2.31-.54a5.48,5.48,0,0,1,4.21-4.9,16.74,16.74,0,0,1,4.14.12l.92.36S202,663.53,201.21,600s-3.16-157.13-3.16-157.13L264.7,310.6l72.21-31.18L468.65,308Z"/><path class="cls-4" d="M491.58,358.84s-1.78,28.1,3.68,40.87,12.13,30,12.13,34.44,2.22,8.89,5,12.22c0,0-3.89,17.77,2.78,33.88l9.44,43.32s6.54,126.36,6.54,133.43,2.07,66.12,2.07,66.12v38.13l6.89,38.33,13.09,11s58.94-29.22,60.62-46.27c0,0-.84-33-3.64-43.61,0,0,2-24-2.51-33,0,0-.28-7.26-.28-11.18s-8.39-16.21-9.22-21.8.27-11.54-4.06-18.66c0,0-3.71-17.63-4-21s-8.35-33.72-8.35-33.72L540.61,358.84l-44.05-41.06-5,15.53Z"/></g><g id="Layer_7" data-name="Layer 7"><path class="cls-4" d="M523.44,619.35S491,659,472.13,673.85s-67.26,6.91-67.26,6.91l19.73-66.13,51-50.91Z"/></g><g id="Layer_8" data-name="Layer 8"><path class="cls-5" d="M250.71,337.13c-.56,10.93,4.45,20.94,11.35,29.11,7.21,8.53,16.37,14.86,25.54,21.08,9,6.08,18.11,12.27,25.09,20.68s10.16,18.62,13.06,28.91c3.17,11.22,6.33,22.86,14.26,31.77,1.28,1.45,3.4-.68,2.12-2.12-6.95-7.81-10-18-12.76-27.88s-5.54-20.18-11.5-28.79c-12.6-18.16-34.38-26.09-49.67-41.41-8.34-8.36-15.12-19.12-14.49-31.35.1-1.93-2.9-1.92-3,0Z"/><path class="cls-5" d="M223.54,755.3c2.75,9.72,10.59,17.15,19.69,21.1,11.3,4.9,23.94,4.45,35.86,2.52,25.41-4.13,49.64-13.77,73.05-24.16,23.07-10.23,45.83-21.32,67.25-34.7A327.21,327.21,0,0,0,450.51,698c10.15-8.14,19.87-16.8,29.56-25.48,10-9,20.09-17.82,30-26.92a176.24,176.24,0,0,0,13.14-13.22,50,50,0,0,0,5.57-6.93,6.66,6.66,0,0,0,.59-5.34,2.68,2.68,0,0,0-4-1.58c-1.72.87-.2,3.46,1.52,2.59-.34.17-.24-.3-.37,0a7.12,7.12,0,0,0,.1,1.09,4.12,4.12,0,0,1-1,2.38c-1.83,2.46-3.83,4.8-5.88,7.07-4,4.41-8.29,8.52-12.67,12.54C497.82,652.7,488.38,661,479,669.42c-18.33,16.43-36.86,32.5-57.63,45.83-20.08,12.88-41.43,23.63-63.12,33.49-22.18,10.08-44.83,19.58-68.65,25-11.74,2.69-24.22,4.9-36.22,2.61-9.6-1.84-19-7-24.19-15.5a25.59,25.59,0,0,1-2.78-6.39,1.5,1.5,0,0,0-2.89.8Z"/><path class="cls-5" d="M213.78,729.16a50.57,50.57,0,0,0,9.58,27.21c1.12,1.55,3.73,0,2.59-1.51a47.79,47.79,0,0,1-9.17-25.7c-.09-1.92-3.09-1.94-3,0Z"/></g><g id="Layer_5" data-name="Layer 5"><path class="cls-6" d="M480.91,411.46a72.76,72.76,0,0,0,2,28c1.56,5.67,3.8,11.13,5.47,16.77,8.75,29.43.78,62.89-19.14,86.25a30.07,30.07,0,0,0,2.28-32c-2.89-5.2-7.29-9.4-10.59-14.36-8.6-12.92-9-29.48-8.54-45,.22-8.41.74-17.32,5.43-24.31s15.08-10.86,21.8-5.77"/><path class="cls-6" d="M340.19,290.82c-7.14,8.82-11.64,19.3-14.86,30.11a279.41,279.41,0,0,0-7.88,35.59c-3.85,23.93-4.41,48.8,2.86,72.16a99.54,99.54,0,0,0,17.28,33c1.21,1.5,3.32-.63,2.12-2.12C326,442.51,319.36,420.63,318,399a180.22,180.22,0,0,1,1.73-37.35,300.61,300.61,0,0,1,7.26-35.4c3.18-11.85,7.57-23.67,15.37-33.31,1.21-1.49-.9-3.62-2.12-2.12Z"/><path class="cls-6" d="M603.13,194.91c-2,14.59,2.1,28.87,6.43,42.67s9.18,27.85,7.86,42.39c-1.4,15.43-11.29,28.07-15.5,42.67-4.74,16.45.59,33.12,0,49.79-.62,16.27-9.28,30.07-18.61,42.85-1.14,1.56-2.3,3.11-3.45,4.66s1.45,3,2.59,1.51c9.28-12.46,19-25.7,21.69-41.39,2.86-16.77-3.21-33.57-.68-50.33,2.35-15.53,12.81-28.27,16.07-43.54,3.06-14.32-.65-28.79-4.87-42.47s-9.49-27.89-9-42.56a52.64,52.64,0,0,1,.45-5.46,1.55,1.55,0,0,0-1-1.84,1.51,1.51,0,0,0-1.85,1Z"/><path class="cls-6" d="M444.74,36.87A186.62,186.62,0,0,1,407,77c-7.11,5.61-14.74,10.44-22.27,15.46s-14.87,10.31-20.82,17.1c-11.79,13.5-16.25,31.37-18.82,48.68-2.79,18.81-3.65,38.51-11.77,56-6.51,14.06-19.26,27.26-35.27,29.33a33.53,33.53,0,0,1-5.84.22c-1.93-.08-1.93,2.92,0,3,16.51.72,31-10.22,39.58-23.54,10.42-16.1,12.53-36,14.89-54.53,2.25-17.7,4.93-36.34,15.08-51.49,10.31-15.37,27.63-23.46,42.12-34.14A189.89,189.89,0,0,0,443.33,44q2.06-2.75,4-5.57c1.1-1.59-1.49-3.09-2.59-1.51Z"/></g><g id="Layer_3" data-name="Layer 3"><path class="cls-7" d="M629,131.46s-2.68,28.27-8.55,37.76c0,0-2.23,15.08-2,18.71a7,7,0,0,1-1.54,5.42l-10.69,6.94L600,226.84l-4.2,49.81L553.2,321l-36.67,4.21-17.44-20.41-2.53,13a34.27,34.27,0,0,0-5,15.53c-.63,9.14,0,25.53,0,25.53l-19.85-10.71,42.55-129.55,52.64-87.12L621.13,101Z"/></g><g id="Layer_2-2" data-name="Layer 2"><path class="cls-6" d="M632.1,128.15s8.09-1.79,11.31-23.45c1.33-9-9.67-52.95-23.63-63.63S572.13,0,541.74,0s-87.9,14.79-112.55,55.86S370.05,98.58,361,128.15s-18.07,99.18-42.72,114.9-78.86,43.65-96.11,72.4-29.57,77.22-26.29,96.11l3.29,18.9s-5,49.56-1.69,57.5c0,0,29.67-114.51,48.9-139.59s48.9-51.82,68.12-53.91,24.66-1.68,24.66-1.68S325,338.16,329.82,377a586.38,586.38,0,0,1,4.85,71.35c0,4.85,3.47,40.88,11.78,52s10.39,47.8-2.77,55.42l-13.16,7.62s24.94,8.31,40.18-15.93c0,0-6.93,29.79-22.17,32.56,0,0,1.38,15.93,24.24,10.39s47.55-29.79,47.55-29.79,31.43-22.86,39.05-63,9-54,9-54,21.48-27,21.48-49.88-12.47-61-.69-78.28,16.62-15.94,29.78-38.8,45-79,50.58-116.38c0,0,16.38-38.69,39.48-35.33,0,0,9.92-.8,16.63,4.16C629,131.46,632.1,128.15,632.1,128.15Z"/><path class="cls-6" d="M606.43,203.46s-4.93,42.09,1.58,64.87-6.51,58.19-6.51,58.19,3.09,37-13.29,61.53c0,0-7.52,21.85,0,45.75s2.73,37.56,2.73,37.56-44.33,20.05-57.39,32.32c0,0-15-39.18-13.46-60.16,0,0-12.66-30.07-15-60.94s-6.31-47.38-7.4-56.09l-1.09-8.71,2.53-13s13.43,7.42,15.72,7.59,11.84.71,16.26-1.06,6.72-2.82,8.31-4.77,7.42-16.08,8.13-16.43a9.3,9.3,0,0,0,1.79-1.58s5.44-1.47,6.42-4.15a5.72,5.72,0,0,0,0-4.44l2.22-1.43s5.21-1.3,6.64-3.52,4.43-8.21,5.09-8.34A3.64,3.64,0,0,0,571,266s2,1.17,6.78,1.17,10.16-2.74,10.16-2.74,3-2.6,3.26-4.3-1.43-23.07-.78-24.24,6.78-19.42,6.78-19.42,1.69-7.95,3.52-10.95a18.37,18.37,0,0,1,5.6-5.21Z"/></g><g id="Layer_4" data-name="Layer 4"><path class="cls-7" d="M475.65,563.72,517,527.91s5.26-15.53,7.76-17.29,33.28-28.05,37.53-29.87,26.74-10,26.74-10,12.36-7.21,15.69-7.21h4.23a16.41,16.41,0,0,0,6.91,4.74,47.5,47.5,0,0,0,9.48,1.79c2.82.39,10,1.67,11.52,3.71s2.69,8.07.77,10.38a17.22,17.22,0,0,1-8.32,6,43.09,43.09,0,0,1-11.65.9,101.46,101.46,0,0,1-10.37-1.54s-6.66,2.44-7.69,2.69-12.55,5.64-14.08,5.89l-1.54.26-1.54.29,25.25.53s29.21-4.48,33.83-5.33,16.65-5.22,16.65-5.22,12.52-12.89,21.39-13.37,15.56-.37,15.56-.37,7.41,3.93,0,11.36c0,0,.45,1.65.73,2.65s-1,6.63-2.47,7.54-13.28,5.84-18.42,11.47-16.18,13.05-17.53,16-20.46,20.38-20.46,20.38-6.15,19.85-6.15,22.09.49,5.26-.08,6.42-1.35,2.73-1.35,2.73,3.18,6.78.08,10.12-25.19,8.56-34.09,8.56c0,0-25.16-1-32.9.78l-7.74,1.74-31.27,22.69s-21.75-5.55-23.4-8.66l-2.73-5.07s1.27-8-4.87-11.49C492.44,594.13,475.89,567.78,475.65,563.72Z"/></g><g id="Layer_11" data-name="Layer 11"><path class="cls-8" d="M620.22,497.22s94.1-91.78,95.74-91.5S755.91,395,755.91,395s6.29,3.83,6.29,7.39-.23,4.13-3.4,7.45-69.42,64.73-69.42,64.73-15.4-.11-34.72,15.21C654.66,489.82,648.74,493.67,620.22,497.22Z"/></g><g id="Layer_13" data-name="Layer 13"><path class="cls-9" d="M639.73,494.14l80.06-76.66s4.64-2.54,7.54-3.12,35-10.94,35-10.94,1.22,3.19-4.07,7.19l-68.84,64s-16.55,6.2-21.11,8.82a87.1,87.1,0,0,1-19.17,8.48C641.3,494.14,639.73,494.14,639.73,494.14Z"/></g><g id="Layer_12" data-name="Layer 12"><path class="cls-10" d="M660.8,465.31s-2.11-.7,1.69-4.51l5.36-5.35s1.26-.85,2.11,0,1.34,1.46.61,2.44-5,5.26-5,5.26S662.81,466.62,660.8,465.31Z"/><path class="cls-10" d="M638.32,483l14.59-14.4s2.4-1.41,3.47-.74,1,2.89.66,3.56S641.09,487,641.09,487s-3.08.91-3.74-.49S638.32,483,638.32,483Z"/></g></g></svg>