<svg id="Layer_15" data-name="Layer 15" xmlns="http://www.w3.org/2000/svg" viewBox="0 0 4738.49 3193.61"><defs><style>.cls-1{fill:#447255;}.cls-2{fill:#ebf3ff;}.cls-3{fill:#485162;}.cls-4{fill:#fce4ca;}.cls-5{fill:#77cd9e;}.cls-6{fill:#150a56;}.cls-7{fill:#e8d0b1;}.cls-8{fill:#fff;}.cls-9{fill:#603121;}.cls-10{fill:none;stroke:#c38870;stroke-miterlimit:10;}.cls-11{fill:#ef5d24;}</style></defs><path class="cls-1" d="M1139.69,1178" transform="translate(-170.45 -43)"/><path class="cls-2" d="M1342.41,1178s283.81-892,1094.7-364.9c518.07,336.74,1003,160.46,1285.74-10.78,170.05-103,387.74-76.89,524.8,67.14,484.22,508.87,1313.79,1629.57-229.31,2092.5C1991.12,3570.1,653.15,2475.4,1342.41,1178Z" transform="translate(-170.45 -43)"/><path class="cls-3" d="M655.18,2853.82c-127.7-1.3-271.39,18.33-384.69,81.25-54.41,30.22-98.68,83.59-100,148.27-1.42,68.73,46.82,118.1,109.11,138.18,56.92,18.34,123.15,15.84,182.12,13.41,69.1-2.85,137.78-11.89,206.18-21.67,36.19-5.18,81.14-4.62,102.9-39.11C790,3143.7,784.71,3096.8,785,3062.1q.39-45.92-2.33-91.79c-2.52-42.56-6.43-90-56-102.78-37.92-9.75-80.78,17.84-114.55,32.11q-55.83,23.58-111.39,47.74-106.49,46.38-211.9,95.14c-56.18,25.95-26.6,114.26,30.7,113.33a3940.93,3940.93,0,0,0,433.26-31c68.79-8.75,81.76-92.93,16.17-119.46-42.8-17.31-88.5-25.36-134.63-25.79-78.29-.71-78.36,120.92,0,121.64,35.92.33,69,8,102.29,21.44l16.17-119.46a3940.92,3940.92,0,0,1-433.26,31l30.69,113.33q94-43.39,188.76-85,46.25-20.28,92.69-40.1,20.61-8.8,41.27-17.5,11.64-4.89,23.29-9.75l9.32-3.88q21.48-6.66-6-4.35L663.12,2959c-7.62-12.84-3.15-5.44-2.41,6.21q.63,10.18,1.13,20.38,1.21,25.48,1.48,51,.24,23-.28,45.92-.24,10.2-.63,20.4-.28,7.65-.68,15.29-1.5,13.14,4-5.44l36.35-28c-36.79,12.62-81.6,13.64-120.27,18.29-43.22,5.19-86.63,9.17-130.15,10.57-35.35,1.13-84.05,1.52-112.1-2.9a187.68,187.68,0,0,1-20.89-4.54s-16.62-6-11.51-3.58c-11.33-5.32-14.07-7-15.7-14,1.6,6.79,1.38-8.46.51-4.65a63.59,63.59,0,0,1,4.48-12.93c4.89-9.3,12.49-16.22,21.58-22.71,28.5-20.32,64.95-30.8,98-40.68,78-23.31,157.79-33.1,239.11-32.27,78.29.79,78.35-120.84,0-121.64Z" transform="translate(-170.45 -43)"/><path class="cls-3" d="M939,2772.73c-127.7-1.3-271.39,18.33-384.69,81.25-54.41,30.22-98.68,83.59-100,148.27-1.42,68.73,46.82,118.1,109.11,138.18,56.93,18.34,123.15,15.84,182.13,13.41C814.62,3151,883.3,3142,951.7,3132.17c36.19-5.18,81.14-4.62,102.9-39.11,19.21-30.45,13.92-77.35,14.2-112q.39-45.91-2.33-91.79c-2.52-42.56-6.43-90-56-102.78-37.92-9.74-80.77,17.85-114.55,32.11q-55.83,23.58-111.39,47.75-106.49,46.36-211.9,95.13c-56.18,26-26.6,114.26,30.7,113.33a3940.93,3940.93,0,0,0,433.26-31c68.79-8.75,81.77-92.93,16.17-119.46-42.8-17.31-88.49-25.36-134.63-25.78-78.29-.72-78.36,120.91,0,121.63,35.92.33,69,8,102.3,21.44l16.16-119.46a3943.39,3943.39,0,0,1-433.26,31L634,3066.46q94-43.41,188.77-85,46.25-20.26,92.68-40.1,20.63-8.8,41.27-17.49,11.64-4.9,23.29-9.75l9.33-3.89q21.46-6.66-6.05-4.34l-36.34-28c-7.62-12.84-3.15-5.44-2.41,6.21q.63,10.18,1.13,20.38,1.22,25.48,1.48,51,.24,23-.28,45.92-.24,10.2-.63,20.4-.29,7.65-.68,15.29-1.5,13.16,4-5.44l36.35-28c-36.79,12.62-81.6,13.64-120.27,18.29-43.22,5.19-86.63,9.17-130.15,10.57-35.35,1.13-84,1.52-112.1-2.9a185.93,185.93,0,0,1-20.89-4.54s-16.62-6-11.5-3.58c-11.34-5.32-14.08-7-15.71-13.95,1.6,6.8,1.38-8.46.51-4.65a63.59,63.59,0,0,1,4.48-12.93c4.89-9.3,12.49-16.22,21.58-22.71,28.5-20.32,65-30.8,98-40.68,78-23.31,157.79-33.1,239.11-32.27,78.3.79,78.36-120.84,0-121.64Z" transform="translate(-170.45 -43)"/><path class="cls-4" d="M3113.61,1119.34c84.12,13.1,163.58-.26,239.93-37.54,70.23-34.29,137.6-86.18,219.75-79.75,21.86,1.71,40.55-19.86,40.55-40.54,0-23.36-18.63-38.83-40.55-40.55-82.25-6.44-155,34.33-224.81,72.13-66.85,36.19-136.26,60.05-213.31,48.06-21.61-3.37-43.61,5.5-49.87,28.31-5.29,19.24,6.55,46.49,28.31,49.88Z" transform="translate(-170.45 -43)"/><path class="cls-4" d="M3400.92,1018.6c52.18,0,52.26-81.09,0-81.09s-52.26,81.09,0,81.09Z" transform="translate(-170.45 -43)"/><path class="cls-4" d="M3083,1146.48c-.89,110.93,145,74,207.8,54.08,88.68-28.09,173.62-59.61,255.62-103.78,18.75-10.1,35.6-15.32,56.18-19.89,18.26-4.06,36.33-12.65,46.4-29.23,25.26-41.57-14.52-87.5-58.18-85.22-22.22,1.16-44,13.09-64.06,21.88s-40.1,18.3-60,27.79c-39.29,18.73-78.43,38-119.5,52.58-46.67,16.57-92.54,22.3-141.35,27.88-22.33,2.56-45,5.38-66.34,12.67a201.8,201.8,0,0,0-33.19,14.43c-4.65,2.61-27.8,16.71-20.94,18.11-50.94-10.37-72.73,67.77-21.55,78.19,25.32,5.15,44.66-.8,66-14.8,19.7-12.93,37.17-20.93,60.6-25.2,46.12-8.4,92.73-8.32,138.36-20.58,47.09-12.65,92.08-32.43,136.17-53,22.85-10.65,45.49-21.75,68.33-32.42,11.4-5.33,22.82-10.63,34.36-15.65q8.08-3.6,16.31-6.89,19.47-3.2-3.57-11.78l-5.53-20.46q25.45-23.09,6.14-16.5-5.51.81-10.94,2a162.16,162.16,0,0,0-26,8c-19.1,7.47-36.78,17.21-54.7,27.08a799.27,799.27,0,0,1-111.7,50.35c-38.89,14.22-78.37,27-117.92,39.29-19,5.88-38.12,11.67-57.68,15.23-8.8,1.6-17.87,3.24-26.86,3.19a35.12,35.12,0,0,1-13.43-1.08q-3-2.46,2.32,3.77c.42-52.19-80.67-52.24-81.09,0Z" transform="translate(-170.45 -43)"/><path class="cls-5" d="M3045.28,1137.43s121.63,202.73,486.53-81.09l81.09-81.08,40.54,121.63s-121.63,202.72-40.54,405.44S3775.08,2070,3775.08,2070L3694,2191.59l-202.72,40.54L3248,2272.68l-243.27-40.55-81.09-81.08,81.09,162.17,364.9,40.55h162.18l121.63,40.54s-162.17,81.09-162.17,243.27-40.55,162.18-40.55,162.18-202.72-243.27-486.53-364.9l-283.81-121.64s81.09-283.81,81.09-364.9,0-486.53,81.08-486.53S3045.28,1137.43,3045.28,1137.43Z" transform="translate(-170.45 -43)"/><path class="cls-4" d="M3572.35,1178S3612.9,1583.42,3694,1745.6l81.09,364.9s-446,162.18-770.35,81.09l-40.54-40.54H2802l-81.09,81.08,40.55,40.55,162.17,81.09c81.09,40.54,202.73,0,283.81,40.54s486.54,0,486.54,0,324.35,0,324.35-81.09,81.09-283.81,0-527.07c0,0-40.54-486.54-121.63-527.08,0,0-40.54-202.73-121.63-202.73H3653.44Z" transform="translate(-170.45 -43)"/><path class="cls-4" d="M3147.1,893.23q6,11.19,11.2,22.8c-3.48-7.86,1.44,3.88,2,5.47q2.22,6,4.17,12,3.9,12.09,6.72,24.51,1.22,5.31,2.22,10.66c.45,2.38.86,4.76,1.25,7.15q.93,6.28.32,1.8t.19,1.82q.4,3.69.72,7.4c.32,3.8.57,7.61.78,11.42.51,8.89.76,17.8,1.12,26.7.83,20.11,2.56,40.16,6.39,60,4,20.87,30.16,34.7,49.87,28.32,22.24-7.19,32.65-27.52,28.32-49.87-.31-1.6-2.34-16.83-1.45-8-.38-3.78-.74-7.57-1-11.36-.66-8.88-1-17.77-1.31-26.66a526.35,526.35,0,0,0-5.46-61.27c-5.65-36.33-18.61-71.46-36-103.76-10.08-18.69-37.49-26.13-55.47-14.55-19,12.23-25.33,35.49-14.54,55.48Z" transform="translate(-170.45 -43)"/><path class="cls-4" d="M3284.47,777.44c36.3,78.39,82.53,151,136.48,218.42,13.31,16.63,43.64,14.92,57.33,0,16.21-17.66,14.21-39.6,0-57.34q-4.7-5.87-9.32-11.78c2.59,3.3,1.21,1.58-.53-.72-1.51-2-3-4-4.53-6q-9-12-17.66-24.3-17.85-25.34-34.11-51.72a1027.35,1027.35,0,0,1-57.64-107.5c-8.93-19.31-38.28-25.63-55.47-14.54-19.9,12.82-24.11,34.82-14.55,55.47Z" transform="translate(-170.45 -43)"/><path class="cls-4" d="M3188.64,742.45c18.94,74.78,75,123.24,118.55,183.27,1.31,1.8,9,14.7,8.34,14.88.06,0,0-3.06.47-3.14.83-.15,11.8-7.06,9.82-6.56,3.82-1,7.95,1,11.46,1.07,3.23,0-2.21-2.08-1.4-1-4.33-5.75-7.5-12.33-10.5-18.83-17-36.81-28.65-76.21-40.84-114.81-6.58-20.88-28.2-34.27-49.87-28.32-23.14,6.36-31.65,28.15-28.32,49.88q19.8,129.27,52.39,256.05l67.76-39.44a330.61,330.61,0,0,1-34.34-43.19c-11.13-16.74-31.54-25-50.63-16.58-17.4,7.65-30.2,28.42-23.47,47.83l17.81,51.39c7.17,20.68,27.78,34.39,49.87,28.32,20.1-5.53,35.53-29.1,28.32-49.88L3296.25,1002l-74.1,31.24a458.82,458.82,0,0,0,47,59.6c28.37,30.3,77.55-1.38,67.77-39.45q-32.57-126.68-52.39-256.06l-78.19,21.56c8,25.46,16.07,50.94,25.23,76,8.92,24.41,17.63,51.06,31.65,73.08,14.56,22.86,36.73,42.35,65.07,43.36,29.92,1.06,55.91-20.18,64.66-48.12,16.91-54-30.84-98.27-62.26-135.66-27.07-32.21-53.48-65.68-63.86-106.69-12.8-50.55-91-29.13-78.2,21.56Z" transform="translate(-170.45 -43)"/><path class="cls-4" d="M3633.25,1215.23c-3.59,33.45-7.18,66.93-8.35,100.55-5.39,153.52,41.31,308.41,130.64,433.38" transform="translate(-170.45 -43)"/><path class="cls-4" d="M3781.09,1084.46c60.85,69.11,100.75,154.92,124.2,244S3936.35,1510,3938,1602.06" transform="translate(-170.45 -43)"/><path class="cls-4" d="M3800.17,2017.11c-3.14,24.23,2.85,48.72,2,73.14-1.35,40.39-22.56,79.65-55.61,102.91" transform="translate(-170.45 -43)"/><path class="cls-6" d="M572.06,2799.76S531.52,3043,774.79,3124.11c0,0,648.71-405.44,689.25-405.44,35.48,0,319.29-186.25,389.69-260,10-10.53,15.76-18.76,15.76-23.83,0,0,648.71,770.34,1175.79,608.16s405.44-324.35,405.44-324.35L3166.91,2475.4l-446-324.35-734.21-330.4a141.69,141.69,0,0,0-143.7,16.27Z" transform="translate(-170.45 -43)"/><path class="cls-6" d="M1846.61,2445.9c125.28,189.66,282.26,362.89,482.9,474.24,99.36,55.15,208.44,95.2,321,112.27,54.53,8.27,114.26,16.39,169.12,7.61,56.14-9,105.36-53.18,151.53-83.65,43.37-28.62,2.8-98.87-40.93-70-41.57,27.43-88.39,71.65-139.7,75.11-53.08,3.57-109.43-4.31-161.23-14.86-102.32-20.84-199.65-60.35-289.13-113.94-174.56-104.55-312.26-259.26-423.51-427.68-28.64-43.36-98.89-2.79-70,40.92Z" transform="translate(-170.45 -43)"/><path class="cls-7" d="M812.8,2819.29" transform="translate(-170.45 -43)"/><path class="cls-6" d="M1831,2439.2c116.33,270.13,390.23,465.27,683.54,487" transform="translate(-170.45 -43)"/><path class="cls-6" d="M1839.92,2482,1390,2738.32l-225,128.18c-37.49,21.36-74.91,42.87-112.48,64.09-15.76,8.9-34.1,24.17-53.75,19.4-19.29-4.67-36.7-29-49-43.1l-57.34,57.34c43.71,49.45,96.3,143.42,174.7,107.56,41.3-18.88,78.53-54.3,115.06-81l128.67-94.11,492-359.82c41.69-30.49,1.28-100.89-40.93-70l-423.83,310-211.92,155L1080.73,2965c-9.72,7.11-36.28,34.64-49.48,33.65-8.24-.62-27.27-30.47-32.11-35.95l-49.36-55.84c-34.67-39.22-91.57,18.24-57.34,57.34,56.76,64.84,115.67,84.5,193,41,88.63-49.9,176.76-100.72,265.13-151.07L1880.85,2552c45.33-25.83,4.52-95.92-40.93-70Z" transform="translate(-170.45 -43)"/><path class="cls-6" d="M1031.47,3046.09c301.75-155,546.56-404.11,846-563.48" transform="translate(-170.45 -43)"/><path class="cls-8" d="M2292.21,2131.91c58.91,34.72,127.4,44.74,193.49,57.33,20.76,4,44.74-5.79,49.87-28.31,4.55-20-6-45.63-28.32-49.88-31.53-6-63.26-11.43-94.47-19a424.41,424.41,0,0,1-43.08-12.69c-3.9-1.4-8.26-2.61-11.93-4.56,8.55,4.53,0,0-2-1-7.75-3.58-15.26-7.58-22.61-11.91-18.29-10.77-45.27-4.76-55.48,14.55-10.3,19.49-5,44,14.55,55.47Z" transform="translate(-170.45 -43)"/><path class="cls-4" d="M3784.66,1961.68c7.32,25.16,13.32,51,13.77,77.15s-4.95,53-19,75.12c-7.23,11.38-16.56,21.27-26.11,30.8a697.1,697.1,0,0,1-75.33,65.16" transform="translate(-170.45 -43)"/><path class="cls-6" d="M1808.54,2501.24h49.2a41.78,41.78,0,0,0,28.66-11.88,45.06,45.06,0,0,0,11.88-28.67c-.47-10.48-3.91-21.36-11.88-28.67s-17.68-11.87-28.66-11.87h-49.2a41.82,41.82,0,0,0-28.67,11.87,45.12,45.12,0,0,0-11.87,28.67c.47,10.49,3.91,21.36,11.87,28.67s17.68,11.88,28.67,11.88Z" transform="translate(-170.45 -43)"/><path class="cls-9" d="M2998.8,130.54c-92.28,55.13-144.06,160.78-182.67,257.39-49.59,124.13-25.38,247.78,14.89,370.73,41.05,125.35,79.41,251.91,69.07,385.75-4.9,63.43-37.51,115.11-51.11,175.89-12.9,57.64,3,112,16.77,168,12.49,50.64,90.7,29.19,78.2-21.56-13.4-54.35-26.19-102.13-7.08-157,17.37-49.92,37.09-95.17,42.79-148.4,11.88-110.85-8.29-228-40.8-333.88-34.06-110.9-90-229.18-66.54-347.93,11.3-57.18,39.39-110.83,66.95-161.69,25.27-46.66,54.06-89.47,100.46-117.19,44.76-26.74,4-96.87-40.93-70Z" transform="translate(-170.45 -43)"/><path class="cls-9" d="M2960,1471.72c6.6-191.67,151.09-345.87,190-530.05,10.75-50.91-67.4-72.67-78.19-21.56-40.75,192.9-185.93,349.27-192.9,551.61-1.8,52.19,79.29,52.12,81.09,0Z" transform="translate(-170.45 -43)"/><path class="cls-9" d="M2817.49,456.48c49.43,104.4,18.83,230.91,91.84,327.21,30.32,40,81,62.35,105.12,106.71,23.69,43.58,44.47,88.86,102.67,84.26,22.65-1.8,39.45-17.16,40.54-40.55,2-43.36-26.95-76.38-49.83-110.67L3016,685.9C2988.6,644.78,2965.93,608,2956,559.06c-8.6-42.34-18.81-77.73-46.25-111.8-25.3-31.41-81,2.44-67.77,39.45a3122.93,3122.93,0,0,0,119.42,289.13c20.48,43.18,39.89,89,66.47,128.9,10.24,15.36,21.7,29.8,36.25,41.29,14.78,11.67,32.7,14.79,47.89,24.86l-18.64-24.23c9,26.74-28.83,82.42-42,103.89-20.32,33.14-43.86,64.14-66.74,95.52-44.69,61.28-86.45,125.06-100.91,200.75-9.74,51,68.4,72.84,78.19,21.56,29.61-155,202.06-253.41,213.19-413.44,2.76-39.67-18.36-50.29-49.05-65.92-38.89-19.81-57.67-78.3-75.84-115.2a2910.77,2910.77,0,0,1-130-308.67L2852.4,504.6c24.21,30.06,22.47,74.46,33.11,110,10.75,35.95,30.23,66.76,50.85,97.74q36.18,54.33,72.47,108.58l38.64,57.91c10.26,15.37,30,35.29,29.1,55.27l40.55-40.54c-18.95,1.49-31.07-42.75-39.39-55.78-10.26-16.06-23.29-30-37.46-42.69-36.62-32.65-72.22-56.43-89.9-104.69-32.85-89.7-21.2-186.88-62.86-274.86-22.32-47.13-92.25-6-70,40.93Z" transform="translate(-170.45 -43)"/><path class="cls-9" d="M2904.17,752.89c-5.51,31.85-2.43,62.13,8.59,92.52,10.28,28.34,24.7,55,33.44,83.94a270.07,270.07,0,0,1,11.64,85.3c-.76,31.76-8,62.94-4,94.75,2.3,18,11,33.94,29.77,39.1,16.4,4.51,38-2.69,45.79-18.63,20.11-41,37.37-84.61,46.32-129.53,7.58-38,4.16-81.68-33.52-102.49-28.05-15.49-59.1,4.33-61,35a1026.93,1026.93,0,0,1-39.74,224.44c-14.66,50.19,63.56,71.62,78.19,21.56a1127.38,1127.38,0,0,0,42.64-246l-61,35c-8.55-4.72-.69-10.47-2.68-2.86.42-1.58-.21,8.7-.28,9.44-.79,8.36-5.16,23.24-8,33.43a471.18,471.18,0,0,1-30.92,81.07L3035,1109.4c-3.74-29.37,2.25-58,3.67-87.27,1.51-30.92-1.79-62.43-8.54-92.62-6.68-29.9-19-57.49-31-85.51-9-21-20.76-46.13-16.71-69.55,3.72-21.55-5.76-43.67-28.32-49.87-19.52-5.37-46.12,6.62-49.87,28.31Z" transform="translate(-170.45 -43)"/><path class="cls-10" d="M3369.63,326.54" transform="translate(-170.45 -43)"/><path class="cls-4" d="M3053.45,243.61c-43.65-14.85-83.43,9.39-110,43-27.35,34.69-55.11,75.15-53.48,121.33.78,22.15,9.09,41.79,16.88,62.13,9.12,23.84,5.2,38.43,6.12,62.83,1.49,40.08,27.72,66.65,48,98.5,10.7,16.82,11.68,34.82,17.73,53.37,7.79,23.88,22.23,44.08,36.27,64.56,27.28,39.8,52.61,82.41,83.1,119.82,30.31,37.18,77.26,43.15,120,24.75,41-17.67,69.75-53.23,95.18-88.66,61.78-86,114.91-182.6,131.56-288.39,3.44-21.8-5.59-43.35-28.31-49.87-19.22-5.52-46.48,6.72-49.88,28.31-14.19,90.17-55.83,169.92-106.54,244.78-16.76,24.73-50.86,85.29-87.25,83.57-17.45-.82-27.33-27-36-39.61l-39.63-57.83c-12.3-17.94-27-35.71-36.72-55.31-9.92-20.1-10.44-43.34-20.23-63.83-12.73-26.65-45.94-51.84-46.07-82.35-.08-20.68,2.66-38.83-3.06-59.3-5.25-18.8-18.49-37.72-20-57.47-1.67-21.55,35.66-94.72,60.79-86.17,49.51,16.86,70.77-61.44,21.56-78.19Z" transform="translate(-170.45 -43)"/><path class="cls-4" d="M3028.8,282.74A1736.22,1736.22,0,0,0,3000.72,487l79.64-10.78c-7.08-29.27-19.24-61.2-21.09-91.28-.76-12.29,2.5-12.77,10.1-21.94,10.35-12.48,15.66-25.67,15.23-42-.47-17.89-12.27-34.27-29.76-39.1-50.53-13.94-91.77,30.4-104.29,75.8-12.63,45.82,5.87,85,22.77,126.55,17.61,43.32-.63,85.53,32.8,123.66,31.56,36,65.25,66.22,85.54,110.84,19,41.67,20.16,98.22,73.89,112,49,12.54,78.45-29.79,96.48-68.11,42.69-90.74,71.35-187.87,126.72-272.32l-70-40.93c-20.53,33.87-17.17,69.83-27.68,106.42-9.92,34.52-40.43,60.67-58.38,91.07l75.55,20.46c.1-49.91.22-99.86-2.33-149.73-2.16-42.2-5.09-84.46-29.07-120.77-48.36-73.2-134.08-121.94-206.46-167.95-37-23.53-71.4,21.41-55.47,55.48,30.65,65.55,77.79,113.34,124.15,167.4,22.9,26.71,36.76,55.57,41.93,90.56,2.59,17.54,3.31,35.61,3.42,53.32.07,10.91-.25,21.82-.88,32.72l-.8,10.88q-2.86,18.81,14.1-12.73h21.56c1.09.19,1.81,6.87-2.9-6.66-2.56-7.36-3.88-15.27-5.7-22.85q-6.9-28.83-13.22-57.8-12-55.32-21.85-111.08c-11.08-63-28.46-137.63-101.78-152.49-23.59-4.78-40.92,6.84-49.87,28.32-26,62.3-10,129.39,16.28,188.61,12.46,28.06,27.27,55,40.8,82.58q11,22.41,21.44,45.08c3.46,7.53,7.26,15,10.29,22.73l2.43,5.76q2.52,15.4,5.44-4l49.13-6.33c-24-10.65-35.55-51-47.1-73l-49.53-94.28c-20.36-38.75-71.91-16.31-75.56,20.46-5.25,52.94,11.54,103.42,29.72,152.35,14.42,38.82,30.72,78.93,61,108.34,31.23,30.34,85.2,49.81,115.24,5.72,4.56-6.69,6.56-13.89,8.21-21.68,2.57-12.14,6-18.85,12.11-30.37L3259,637.53q36.08-68.32,72.15-136.67c24.2-46.09,38.19-90.68,1.4-134.45-58.52-69.61-140.88-126.07-219.77-169.84-45.67-25.34-86.62,44.67-40.93,70,59.67,33.1,115.24,72.28,165.22,118.81,10.42,9.71,28.06,21.73,34.71,34.41,7.13,13.6-3.86,27.2-10.65,40.13q-26.94,51.3-54.11,102.5t-54.11,102.5c-6.23,11.81-19,28.85-19.75,42.66q-7.09,20.58,10.93,3.6,21.21-5,6.95-10.57c-2-4.91-11-10.35-14.38-14.55-18.94-23.48-28.72-53.91-38.68-81.93-13.19-37.08-24.18-72.9-20.24-112.64L3002.21,512l59.44,113.13c16.52,31.45,31.77,67.91,66.28,83.24,17.56,7.8,34.52,6.77,49.13-6.34,23.62-21.18,23.58-53.42,12.94-81.25-13.07-34.17-30.14-67.35-46.5-100-30.4-60.75-71-126.34-42.26-195.29l-49.88,28.31c37.71,7.65,38.88,60,44.22,90.55q11.13,63.72,25.09,126.91c8,36.29,12.24,86.16,39.88,114,27.31,27.55,77.77,28.83,96-9.69,16.24-34.34,10.35-86.73,6.64-123.57-4.21-41.76-13.27-82.08-36.34-117.76-20.54-31.78-47.68-58.19-73-86-28.58-31.42-51-66.4-68.95-104.84l-55.47,55.47c60.09,38.2,136.42,78.58,177.37,138.86,19.86,29.23,17.68,67.32,18.93,101.21,1.59,42.77,1.49,85.57,1.4,128.36-.08,40.36,55.16,55,75.56,20.47,19.21-32.53,47-58.94,61-94.53,12.92-32.74,6.69-72.7,25-103,27.25-45-41.57-84.32-70-40.93-39.29,59.94-65.81,126.42-92.62,192.57-13.23,32.67-26.06,66-42.55,97.23-.73,1.39-10.36,15.18-10.13,15.85q19.68,4.18,13.31-6.35a62.85,62.85,0,0,1-4.06-13.09c-5-16.94-10.07-33.1-17.23-49.34-13.94-31.62-33.45-59.77-55.53-86.26-11-13.16-22.83-25.33-34.86-37.5-15-15.16-10.48-19.69-10.58-40.43-.15-32.61-13.89-60.69-26.14-90.1-5-11.93-10.71-25-11.24-38.05a46.49,46.49,0,0,1,3.73-20.9c3.72-8.25,12.54-10.1,2.45-12.89L3003.51,321q7.08-14.67.19-6.37a60.51,60.51,0,0,0-9.18,11.1,80.37,80.37,0,0,0-9.88,17.89c-5.83,14.85-7.36,30.87-6,46.73,3.07,36.2,15,72.27,23.54,107.46,11.27,46.65,76.25,32.88,79.64-10.78A1550.66,1550.66,0,0,1,3107,304.29c10.13-51-68-72.77-78.19-21.55Z" transform="translate(-170.45 -43)"/><path class="cls-4" d="M3000.77,351.54c2-17.64,22.65-35.52,34.42-47,15.09-14.66,32.28-27.88,51.71-36.34,42-18.27,81.72-7.81,115.56,20.92,38.45,32.67,73.93,69.33,110.49,104.09q15.48,14.7,31,29.42c1.23,1.17,11.1,11.84,11.74,11.71-1.64.33-2.13-7.32-1.8-7.85-9.52,14.79-19.43,34.88-22.55,52.44-4.36,24.51,10.68,52.61,39.09,51.32,42.46-1.92,69.68-30.91,74.15-72.09,2.37-21.81-20.33-40.55-40.54-40.55-23.89,0-38.17,18.68-40.54,40.55.45-4.17,1.56-8.75,6.93-9l39.1,51.33c4.66-26.22,26.25-45.05,25.14-73.78-1.35-35-28.53-56.82-51.95-79.07-49.43-47-97.23-101.79-154.1-139.94-56.7-38-126.19-37.56-186.32-7.63-57.46,28.6-115.06,85.71-122.57,151.42-2.49,21.79,20.42,40.55,40.55,40.55,24,0,38.05-18.69,40.54-40.55Z" transform="translate(-170.45 -43)"/><path class="cls-9" d="M3097.87,183.9c35.29-57,123.83-69.07,183.67-53.9,64.6,16.38,114.94,64.13,155,115.26,43,54.83,78.61,116.43,110.4,178.3,33.44,65.08,59.45,134.29,103.71,193.2,31,41.22,101.41.85,70-40.93-51.86-69-80.61-152.23-121.91-227.49-39.87-72.65-85.49-146.08-144.34-205.07-57.83-58-131.66-97.85-214.74-100.16-79.73-2.22-168.5,29.8-211.87,99.86-27.54,44.5,42.58,85.26,70,40.93Z" transform="translate(-170.45 -43)"/><path class="cls-9" d="M3085.55,212.87c163-11.48,286.62,99.84,329.66,250.72,20.56,72.09,29.36,147,50.1,219,19.39,67.35,50.06,149,116.39,182.68,46.43,23.58,87.52-46.36,40.92-70-66.34-33.69-83.27-143.1-97.07-208.58-16.18-76.81-29.28-153.87-62-225.86-66-145.36-217.95-240.31-378-229-51.77,3.64-52.17,84.76,0,81.09Z" transform="translate(-170.45 -43)"/><path class="cls-9" d="M3175.11,181.63c57.47-4.78,113.36-8,158.65,33.55,45.86,42,83.67,101.13,113.81,155.17,29.78,53.4,43.49,113.13,53.6,173s14.24,120.45,42.26,175.47c23.68,46.51,93.67,5.52,70-40.93-29.61-58.15-28.25-131.74-41.25-194.81-14-67.8-38.27-130.94-76.18-189-36.65-56.16-75.73-117.22-130.66-157.16-56.46-41-123.45-41.87-190.24-36.32-51.64,4.29-52.09,85.42,0,81.09Z" transform="translate(-170.45 -43)"/><path class="cls-9" d="M3521.34,748.92c3.16,39.11,21.13,69.11,45.27,98.93,19,23.44,37,44,40.18,75.21,3.28,32.73-4.7,65.66-11.43,97.4q-12.22,57.64-24.49,115.27c-4.55,21.4,6.32,43.83,28.32,49.87,20.17,5.55,45.3-6.8,49.87-28.31,8.71-41,17.5-82,26.12-123,7.19-34.18,14.5-69.55,13.07-104.65-1.48-36.27-11.73-70.53-33-100.09-16.79-23.34-50.35-50.08-52.82-80.67-1.77-21.82-17.37-40.54-40.55-40.54-20.57,0-42.32,18.59-40.54,40.54Z" transform="translate(-170.45 -43)"/><path class="cls-9" d="M3533.45,479.22c6.62,68.72-1.48,138.27,12.35,206.37,11.95,58.81,41.72,112.66,91.85,146.88,30.15,20.58,68.21-13.37,59.56-45.79q-44.64-167.17-89.27-334.36l-67.77,39.44c54.54,51.47,82.63,124.74,140.74,173.22,16.8,14,40.87,16.47,57.34,0,14.41-14.42,16.89-43.24,0-57.34-57.84-48.25-86.13-121.68-140.74-173.21-29.17-27.54-78.39-.36-67.76,39.44q44.63,167.19,89.26,334.37l59.56-45.79c-33.86-23.11-49.43-66.32-56.39-108.16-8.89-53.48-2.11-117.75-7.64-175.07-2.1-21.79-17.13-40.54-40.55-40.54-20.29,0-42.65,18.61-40.54,40.54Z" transform="translate(-170.45 -43)"/><path class="cls-9" d="M3657.41,1180c51.43-66.35,114.3-121.55,188.39-161.36,64.09-34.44,146.38-75.32,133.34-163-6-40.15-33-70.73-58.54-100.46Q3875.8,703,3830.84,651c-54.24-62.47-112.25-123-186.73-161.17-46.36-23.77-87.43,46.17-40.93,70,62.32,31.94,110.73,80.82,156.63,132.82,24.62,27.89,48.69,56.27,73,84.46,20.43,23.72,61.33,57,66.06,89.46,4.41,30.32-31.28,49.52-53.51,61.3-30.38,16.11-60.85,31-89.56,50.15a657.1,657.1,0,0,0-155.69,144.58c-13.52,17.44-16.68,40.3,0,57.34,13.83,14.14,43.94,17.28,57.33,0Z" transform="translate(-170.45 -43)"/><path class="cls-9" d="M3500.22,379.54c59,48.9,101.94,111.33,142.53,175.61,39.92,63.23,84.5,130.85,84.51,208.33,0,52.17,81.09,52.26,81.09,0,0-90.23-45.2-169.16-91.85-243.34-45.08-71.66-93.19-143.46-158.95-197.94-16.85-14-40.83-16.5-57.33,0-14.38,14.38-16.95,43.3,0,57.34Z" transform="translate(-170.45 -43)"/><path class="cls-9" d="M3794.47,748.45A387.63,387.63,0,0,0,3734.62,648c-21.76-26.5-72.1-5.28-69.21,28.67l10.66,125.5,79.64-10.77c-22.67-56.3-17.08-118.92-48.35-172.56-19.41-33.31-78.24-20.75-75.55,20.46a1646.81,1646.81,0,0,0,24.47,195.82c9.33,49.9,27.22,110.32,4.78,159.23-8.42,18.35-6.75,39.46,10.44,52.3,16.06,12,38.61,11.36,53.24-3.17a870.89,870.89,0,0,1,79.2-70.23c24.89-19.32,57.18-34.41,78.62-57.44,29.46-31.65,14.57-73.94-.91-108.33-13.8-30.65-33.92-58.3-57.94-81.76-21.12-20.63-60.65-12.4-67.77,17.89a925.37,925.37,0,0,1-45,140.22c-11.44,27.82,22.66,60.08,49.88,49.87,40.23-15.09,75.34-34.23,90.79-76.68,6.82-18.74-6.12-40.85-23.47-47.83-19.54-7.86-38.91-.51-50.63,16.58a306.07,306.07,0,0,1-20.75,26.94l67.76,17.89c-5.14-25.85-.4-52,12.41-74.92,16.59-29.66,32.91-58.6,22.23-93.63-15.18-49.77-93.47-28.55-78.19,21.56,2,6.53-5.61,16.46-9.52,23.3-8.45,14.76-16.06,29.82-21.29,46.07-10.42,32.32-10.39,66.15-3.83,99.17,5.77,29,48.45,40.27,67.77,17.9a495.24,495.24,0,0,0,33.42-43.35l-74.1-31.24c-3.08,8.46-23.12,15.91-34.16,20.05l49.87,49.88a924.61,924.61,0,0,0,45-140.22L3766.37,783c17.85,17.44,32.35,37.06,42.76,59.86a123.89,123.89,0,0,1,5,12.63c.52,1.51,4.26,17.07,5.23,17.61q-.49-17.62,4.35-12.62l-4.33,2.87c-6.33,1.77-13.81,9.12-19.27,12.86A958.44,958.44,0,0,0,3667.4,986.1l63.68,49.13c29.15-63.54,21.14-128.9,8.42-195.53-12.69-66.47-22.2-132.88-26.6-200.45l-75.56,20.46c26.83,46,20.45,104.19,40.18,153.19,7.53,18.72,23.06,32.27,44.48,29,18.45-2.77,36.89-19.43,35.16-39.82l-10.67-125.5-69.21,28.67a258.93,258.93,0,0,1,39,64.72c8.33,20.23,26.92,34.62,49.87,28.32,19.14-5.26,36.71-29.51,28.32-49.88Z" transform="translate(-170.45 -43)"/><path class="cls-9" d="M3534.19,811.12a382,382,0,0,1,42.5,160.38c2.2,58.36-21.66,122.71,9.75,176.47,26.31,45,96.42,4.27,70-40.93-11.82-20.25-3.78-48.57-1.24-70.81a426.85,426.85,0,0,0,1-88.26,482.4,482.4,0,0,0-52-177.77c-10.05-19.45-37.28-25.19-55.47-14.55-19.74,11.55-24.63,36-14.55,55.47Z" transform="translate(-170.45 -43)"/><path class="cls-9" d="M2983.35,180.39c-54.37,83.48-118.22,171.23-146.25,268-30.09,103.86,8.81,200.33,52.83,293.49,22.29,47.15,92.22,6,70-40.93-38-80.52-70.26-160.26-38.94-248.67,29.18-82.37,85-158.22,132.35-230.95,28.57-43.86-41.61-84.54-70-40.93Z" transform="translate(-170.45 -43)"/><path class="cls-4" d="M3333.44,697.65c52.18,0,52.27-81.08,0-81.08s-52.26,81.08,0,81.08Z" transform="translate(-170.45 -43)"/><path class="cls-9" d="M3410.54,428.18c12.65,77.19,12.2,142.56-15.15,216.28-24.08,64.89-34.94,124.26-7.51,190.17,24.09,57.85,53.89,115.82,82,171.9,13.61,27.15,30.17,53.13,51.23,75.14,24.23,25.32,49.83,39.89,56.29,76.69,9,51.31,87.17,29.56,78.2-21.55-11.66-66.44-69.62-92-101.88-145.68-16.1-26.78-27.86-55.87-40.57-84.32-14-31.25-31.3-60.68-45.7-91.66-32.26-69.39,0-122.81,20.49-189.87,22-71.91,12.71-145.88.79-218.66-8.42-51.37-86.58-29.58-78.2,21.56Z" transform="translate(-170.45 -43)"/><path class="cls-9" d="M3343.26,319c148.45,133.13-2.38,304,3.82,462.09,2.88,73.33,50,148.8,78.76,214.74q53.88,123.36,107.75,246.72c13.15,30.1,54.89,22.45,70,0q94.5-140.25,189-280.49c29.24-43.4-41-84-70-40.93q-94.48,140.25-189,280.49h70L3495.86,954.88c-19.25-44.09-40.86-87.86-57.66-133-17.25-46.32-4.85-87.57,7-133.51,19.79-76.86,52.1-160.22,47-240.65-4.56-72.15-38-138.09-91.59-186.13-38.75-34.76-96.29,22.41-57.34,57.34Z" transform="translate(-170.45 -43)"/><path class="cls-9" d="M3610.8,1248.81c30.35-45.16,60.14-90.75,91.16-135.45a286.89,286.89,0,0,1,17.53-23.37c8.08-9.58,16.71-18.69,25.65-27.47,18.47-18.12,38.35-34.73,58.33-51.14,16.45-13.52,15.06-43.52,0-57.34-17.49-16-39.79-14.42-57.34,0-41.89,34.41-80.33,70.23-111.67,114.79-32.14,45.69-62.52,92.69-93.68,139.05-11.86,17.65-4,45.69,14.54,55.48,20.46,10.8,42.82,4.28,55.48-14.55Z" transform="translate(-170.45 -43)"/><path class="cls-9" d="M3458.85,704.19c-4,63.25-2,122.09,23.48,181,24,55.46,53.45,109,80.46,163l63.68-49.13c-14.72-12.84-21.06-41.39-29.16-62.17l-33.38-85.58C3542.56,796.56,3519.17,742,3505,684.78c-12.54-50.63-90.76-29.19-78.2,21.55,15.22,61.44,40.77,120,63.71,178.82l35.76,91.69c10.87,27.88,19.54,59.28,42.86,79.61,34.89,30.43,84.61-7.24,63.68-49.13-25.31-50.65-52.08-100.84-75.7-152.3-22.27-48.51-20.43-98.71-17.17-150.83,1.37-21.88-19.61-40.55-40.54-40.55-23.09,0-39.17,18.61-40.55,40.55Z" transform="translate(-170.45 -43)"/><path class="cls-9" d="M3088.19,969c11.68,1.18,18.89,18.22,20.38,27.86,3.53,22.81-9.28,46.75-20.08,65.8-24.31,42.85-56.07,78.47-88,115.58-32.15,37.39-57.48,76.74-68.47,125.42-10.39,46-8.91,96.43-28.95,139.91-21.71,47.07,48.16,88.31,70,40.92,26.24-56.9,24-117.71,41.59-176.72,16.81-56.46,67.49-96.45,102.15-142,35.29-46.37,74.36-103.5,72.91-164.35-1.42-59.27-42.33-107.5-101.56-113.49-21.82-2.2-40.54,20.22-40.54,40.55,0,23.76,18.66,38.33,40.54,40.54Z" transform="translate(-170.45 -43)"/><path class="cls-8" d="M2923.64,2434.86v40.54L2356,2151.05l-283.81-202.73-243.27-81.09,40.55-81.08s202.72,81.08,243.26,121.63S2396.56,2070,2396.56,2110.5s567.63,324.36,567.63,324.36l-40.55,40.54" transform="translate(-170.45 -43)"/><path class="cls-8" d="M2112.75,1907.78s243.27-202.72,324.36-202.72,567.62,446,567.62,446L2802,2232.13l-81.09,40.55L2315.48,2070Z" transform="translate(-170.45 -43)"/><polygon class="cls-11" points="2783.8 2490.61 2135.09 2125.71 1912.41 1938.15 1611.85 1843.56 1624.05 1804.91 1935.42 1904.53 2158.09 2092.57 2803.68 2455.29 2783.8 2490.61"/><path class="cls-8" d="M2697.44,2298c26.89-16.25,48.76-39,73.48-58.14l-8.21,6.34c10.33-7.88,21.22-14.89,33.18-20l-9.68,4.09,1.45-.59c10.19-4.2,18.44-8.74,24.23-18.64,5.08-8.69,7.24-21.5,4.09-31.24s-9.26-19.27-18.64-24.23c-9-4.74-21.4-8.14-31.24-4.09-10.76,4.43-21.18,9-31,15.27a314,314,0,0,0-28.29,21.12c-13.65,11.13-26.5,23.22-40.43,34l8.2-6.34a201.13,201.13,0,0,1-18.08,12.44,42.18,42.18,0,0,0-18.64,24.23c-2.67,9.71-1.46,22.63,4.09,31.24,11.76,18.24,36.05,26.29,55.47,14.55Z" transform="translate(-170.45 -43)"/><path class="cls-8" d="M2670.08,2211.28q-77.6-53.81-155.87-106.62c-25.89-17.46-51.4-37-78.46-52.54-29.33-16.89-58.32-.46-88.54-.82-52.19-.63-52.22,80.46,0,81.09a229.5,229.5,0,0,0,47.12-4.49c4.91-1,24.55-2.47,7.84-4.76-16.48-2.26,2.63,5.64,7.39,8.81q36.83,24.56,73.5,49.34,73.35,49.56,146.1,100c18,12.48,45,3.32,55.47-14.55,11.79-20.15,3.5-43-14.55-55.47Z" transform="translate(-170.45 -43)"/></svg>