<svg id="Layer_15" data-name="Layer 15" xmlns="http://www.w3.org/2000/svg" viewBox="0 0 4967.84 3146.65"><defs><style>.cls-1{fill:#ebf3ff;}.cls-2{fill:#fff;}.cls-3{fill:#ef5d24;}.cls-4{fill:#1c277d;}.cls-5{fill:#8ec4ed;}.cls-6{fill:#bde6ff;}.cls-7{fill:#485162;}.cls-8{fill:#1e237d;}</style></defs><path class="cls-1" d="M53.89,1753.22s238-1451.48,1668.52-1626.6S4460.12,336.26,4799.26,1200.73,5031.62,2375,4592.6,2774.59c-388,353.13-2438.9,639.93-3646.22,315.64-387.26-104-710.42-382.28-848-758.94C37.25,2163.92,8.41,1968.26,53.89,1753.22Z" transform="translate(-31.62 -85.23)"/><path class="cls-2" d="M929.34,305" transform="translate(-31.62 -85.23)"/><rect class="cls-2" x="774.24" y="219.75" width="2428.45" height="2058.01" rx="2.78"/><path class="cls-3" d="M3337,1881" transform="translate(-31.62 -85.23)"/><path class="cls-3" d="M802.38,421.08c0-62.87,51.57-114.31,114.61-114.31H3122.64c63,0,114.61,51.44,114.61,114.31" transform="translate(-31.62 -85.23)"/><path class="cls-3" d="M771.46,302.07H3202.69a0,0,0,0,1,0,0V590.19a0,0,0,0,1,0,0H770.75a0,0,0,0,1,0,0V302.78A.71.71,0,0,1,771.46,302.07Z"/><circle class="cls-2" cx="913.98" cy="440.81" r="48.94"/><circle class="cls-2" cx="1779.48" cy="440.81" r="48.94"/><circle class="cls-2" cx="2209.91" cy="440.81" r="48.94"/><circle class="cls-2" cx="2643.85" cy="440.81" r="48.94"/><circle class="cls-2" cx="3063.29" cy="440.81" r="48.94"/><circle class="cls-2" cx="1347.03" cy="440.81" r="48.94"/><rect class="cls-4" x="897.72" y="178.59" width="41.16" height="246.96" rx="0.5"/><rect class="cls-4" x="1327.11" y="178.59" width="41.16" height="246.96" rx="0.5"/><rect class="cls-4" x="1762.09" y="178.59" width="41.16" height="246.96" rx="0.5"/><rect class="cls-4" x="2188.8" y="178.59" width="41.16" height="246.96" rx="0.5"/><rect class="cls-4" x="2614.69" y="178.59" width="41.16" height="246.96" rx="0.5"/><rect class="cls-4" x="3048.61" y="179.18" width="41.16" height="246.96" rx="0.5"/><rect class="cls-5" x="856.56" y="713.68" width="304.26" height="288.12" rx="1.66"/><rect class="cls-5" x="856.56" y="1084.12" width="304.26" height="288.12" rx="1.66"/><rect class="cls-5" x="856.56" y="1454.56" width="304.26" height="288.12" rx="1.66"/><rect class="cls-5" x="856.56" y="1825" width="304.26" height="288.12" rx="1.66"/><rect class="cls-5" x="1229.05" y="713.68" width="304.26" height="288.12" rx="1.66"/><rect class="cls-5" x="1229.05" y="1084.12" width="304.26" height="288.12" rx="1.66"/><rect class="cls-5" x="1229.05" y="1454.56" width="304.26" height="288.12" rx="1.66"/><rect class="cls-5" x="1229.05" y="1825" width="304.26" height="288.12" rx="1.66"/><rect class="cls-5" x="1638.61" y="713.68" width="304.26" height="288.12" rx="1.66"/><rect class="cls-5" x="1638.61" y="1084.12" width="304.26" height="288.12" rx="1.66"/><rect class="cls-5" x="1638.61" y="1454.56" width="304.26" height="288.12" rx="1.66"/><rect class="cls-5" x="1638.61" y="1825" width="304.26" height="288.12" rx="1.66"/><rect class="cls-5" x="2050.21" y="713.68" width="304.26" height="288.12" rx="1.66"/><rect class="cls-5" x="2050.21" y="1084.12" width="304.26" height="288.12" rx="1.66"/><rect class="cls-5" x="2461.81" y="713.68" width="304.26" height="288.12" rx="1.66"/><rect class="cls-5" x="2461.81" y="1084.12" width="304.26" height="288.12" rx="1.66"/><rect class="cls-5" x="2832.25" y="713.68" width="304.26" height="288.12" rx="1.66"/><rect class="cls-5" x="2050.21" y="1454.56" width="304.26" height="288.12" rx="1.66"/><rect class="cls-5" x="2050.21" y="1825" width="304.26" height="288.12" rx="1.66"/><circle class="cls-3" cx="3249.59" cy="2005.64" r="1121.3"/><circle class="cls-6" cx="3252.11" cy="2003.65" r="1023.8"/><path class="cls-7" d="M2814,1352.68l44.24,63.17c3.13,4.47,6.89,8,12.3,9.46,4.93,1.36,11.49.75,15.86-2.07,8.74-5.64,14-18.73,7.38-28.16l-44.24-63.18c-3.13-4.46-6.89-8-12.3-9.45-4.92-1.36-11.48-.75-15.86,2.07-8.74,5.64-14,18.73-7.38,28.16Z" transform="translate(-31.62 -85.23)"/><path class="cls-7" d="M2493.87,1679.24l56.13,52.9c7.83,7.39,21.43,8.36,29.1,0,7.36-8,8.37-21.21,0-29.1l-56.13-52.9c-7.84-7.39-21.43-8.36-29.1,0-7.36,8-8.37,21.22,0,29.1Z" transform="translate(-31.62 -85.23)"/><path class="cls-7" d="M2514.34,2571.34l63.18-44.24c4.46-3.12,8-6.88,9.46-12.3,1.35-4.92.74-11.48-2.08-15.85-5.63-8.74-18.73-14-28.16-7.39l-63.17,44.24c-4.47,3.13-8,6.89-9.46,12.3-1.36,4.93-.74,11.49,2.07,15.86,5.64,8.74,18.73,14,28.16,7.38Z" transform="translate(-31.62 -85.23)"/><path class="cls-7" d="M2840.9,2891.42l52.9-56.13c7.39-7.84,8.36-21.43,0-29.1-8-7.36-21.22-8.37-29.1,0l-52.9,56.13c-7.39,7.83-8.36,21.43,0,29.1,8,7.36,21.21,8.37,29.1,0Z" transform="translate(-31.62 -85.23)"/><path class="cls-8" d="M3255.81,1210.75v116.34c0,10.77,9.47,21.08,20.58,20.59s20.58-9,20.58-20.59V1210.75c0-10.76-9.46-21.08-20.58-20.58s-20.58,9-20.58,20.58Z" transform="translate(-31.62 -85.23)"/><path class="cls-8" d="M3255.81,2898.32v116.34c0,10.77,9.47,21.08,20.58,20.58s20.58-9,20.58-20.58V2898.32c0-10.77-9.46-21.08-20.58-20.58s-20.58,9-20.58,20.58Z" transform="translate(-31.62 -85.23)"/><path class="cls-8" d="M2486.26,2089.83H2369.91c-10.76,0-21.07,9.47-20.58,20.58s9.05,20.58,20.58,20.58h116.35c10.76,0,21.08-9.46,20.58-20.58s-9.05-20.58-20.58-20.58Z" transform="translate(-31.62 -85.23)"/><path class="cls-7" d="M3691.51,1334.71l-44.24,63.18c-2.92,4.16-3.38,11.12-2.08,15.85s5,10,9.46,12.3c4.78,2.53,10.56,3.79,15.86,2.08a23.2,23.2,0,0,0,12.3-9.46l44.24-63.18c2.91-4.16,3.38-11.12,2.07-15.85s-5-10-9.46-12.3c-4.77-2.53-10.56-3.79-15.85-2.08a23.13,23.13,0,0,0-12.3,9.46Z" transform="translate(-31.62 -85.23)"/><path class="cls-7" d="M4018,1652.94l-56.13,52.9c-7.85,7.4-8,21.74,0,29.11,8.41,7.72,20.73,7.89,29.1,0l56.13-52.9c7.85-7.4,8-21.74,0-29.11-8.41-7.72-20.73-7.89-29.1,0Z" transform="translate(-31.62 -85.23)"/><path class="cls-7" d="M4047.43,2538.61l-63.17-44.24c-4.17-2.92-11.13-3.38-15.86-2.08s-10,5-12.3,9.46c-2.53,4.78-3.79,10.56-2.08,15.86a23.22,23.22,0,0,0,9.46,12.3l63.18,44.24c4.16,2.92,11.12,3.38,15.85,2.07s9.95-5,12.3-9.45c2.53-4.78,3.79-10.57,2.08-15.86a23.17,23.17,0,0,0-9.46-12.3Z" transform="translate(-31.62 -85.23)"/><path class="cls-7" d="M3729.2,2865.12,3676.3,2809c-7.4-7.85-21.73-8-29.1,0-7.73,8.42-7.9,20.73,0,29.11l52.9,56.13c7.4,7.85,21.74,8,29.1,0,7.73-8.42,7.9-20.73,0-29.11Z" transform="translate(-31.62 -85.23)"/><path class="cls-8" d="M4054.74,2133.8h116.34c10.77,0,21.08-9.47,20.58-20.58s-9-20.58-20.58-20.58H4054.74c-10.76,0-21.08,9.47-20.58,20.58s9,20.58,20.58,20.58Z" transform="translate(-31.62 -85.23)"/><rect class="cls-8" x="3061.78" y="1847.9" width="611.89" height="41.14" transform="translate(444.47 4327.09) rotate(-70.36)"/><rect class="cls-8" x="3332.97" y="2158.14" width="41.2" height="354.07" transform="translate(-764.26 2298.96) rotate(-35.54)"/><circle class="cls-8" cx="3223.27" cy="2092.54" r="61.74"/></svg>